<?xml version="1.0" encoding="utf-8"?>
<!-- Generator: Adobe Illustrator 19.0.0, SVG Export Plug-In . SVG Version: 6.00 Build 0)  -->
<svg version="1.1" xmlns="http://www.w3.org/2000/svg" xmlns:xlink="http://www.w3.org/1999/xlink" x="0px" y="0px"
	 viewBox="0 0 850.4 850.4" style="enable-background:new 0 0 850.4 850.4;" xml:space="preserve">
<style type="text/css">
	.st0{stroke:#000000;stroke-miterlimit:10;}
	.st1{fill:#FFFFFF;stroke:#000000;stroke-width:0.25;stroke-miterlimit:10;}
	.st2{fill:#FFFFFF;}
</style>
<g id="cadre_exterieur">
	<rect x="0.3" class="st0" width="850.4" height="850.4"/>
</g>
<g id="Routes">
	<g id="Calque_4">
		<g>
			<path class="st1" d="M63.8,199.5l-1.8-6.6l43.3-16.2c0,0,2.5-1.2,6.7-3.2l1.2,7.4c-1.2,0.6-1.9,0.9-1.9,0.9L63.8,199.5z"/>
			<path class="st1" d="M118.2,178.5l-0.9-7.5c18.8-9,54.5-25.4,70.1-29.1c7.7-1.8,13.3-0.8,31.6-2.6c0,0,40.8-13.6,53.9-20.3
				c9.6-5,36-23.9,36-23.9l2.5,6.3c-0.7,0.6-1.1,0.9-1.1,0.9s-25.8,18.4-35.2,23.3c-12.7,6.5-52.6,19.8-52.6,19.8
				c-18,1.8-23.4,0.7-30.9,2.5C174.8,151.7,134.5,170.7,118.2,178.5"/>
			<path class="st1" d="M315.7,98.4C332.3,85,380.3,47.7,400.2,36c3.8-2.2,11.8-6.5,16.1-7.6h-18.5C376,41.9,328.2,80,312.6,92.7
				L315.7,98.4z"/>
			<path class="st1" d="M822.3,409.5c-4.7-10-7.2-14.3-7.3-14.5c-3.3-7.1-10.6-21.6-14.4-28.3c-3.3-5.7-10.9-16.3-14.8-21.6
				c-10.9-14.4-46.3-63-46.3-63l-5.4,5.1"/>
			<path class="st1" d="M646,109.6l-6.8-1.2c2,5.5,4.3,11.7,5.6,14.6c13.7,30.7,62.2,119.3,62.2,119.3l3.9,6.4l18.4,30.3l5.9-4.3
				l-18.4-30.5l-3.3-5.4c0,0-50.2-89.9-64.2-121.4C648.4,115.5,647.2,112.7,646,109.6z"/>
			<path class="st1" d="M645.6,80.2c-0.3,0.6-0.5,1.2-0.7,1.7c-1,2.3-3.6,6.9-3.6,9.4c0,1.3,1.3,6.2,2.2,8.4l-7.7-0.5"/>
			<path class="st1" d="M609.6,60.3c6.4,1.5,12.1,3,17.1,4.2c11.3,2.7,18.4,2.5,19.1,2.9c0.8,0.4,0.9,1.5,0.7,2.9"/>
			<path class="st1" d="M576.1,52.2c6,1.5,11.8,2.9,17.4,4.2"/>
			<path class="st1" d="M478.4,28.3c21.1,5.2,58.8,14.3,93,22.7"/>
		</g>
		<polyline class="st1" points="28.3,212.9 28.3,214.6 28.3,205.5 56.3,195.3 58.5,201.5 39.9,208.4 28.3,214.6 		"/>
		<path class="st1" d="M28.3,272.6l8.1,34.8l10.5,32.1c0,0,1.3,20.9,0,27.7c-1.3,6.9-7.8,19.6-9,26.5c-1.5,9-0.4,36.4-0.4,36.4
			l7.4-1.4c0,0-1.1-26.7,0.4-35.5c1.1-6.7,7.5-19.1,8.8-25.8c1.3-6.6,0-27,0-27l-10.2-31.3l-15.5-58L28.3,272.6"/>
		<path class="st1" d="M148.6,590.7c2.5,2.2,5.1,4.3,6.7,5.1c7.6,3.8,22.2,6.3,33.8,9.5c2.2,0.6,4.3,1.2,6.2,1.9
			c2.4,0.8,4.5,1.7,6.2,2.7c4.4,2.6,12.5,10.2,18.4,16.2c4.4,4.4,7.6,7.9,7.6,7.9l33.2,32.9l18,21.7c0,0,15.1,14.6,18.4,20.4
			c6.2,10.7,11.2,51.8,11.2,51.8s3.9,12.5,5.2,16.4c1.5,4.5,7.6,13,10.1,17c1.1,1.7,13.2,15.6,22.3,28h7.3
			c-2.4-3.9-37.3-54.3-38.7-58.7c-1.3-3.9-3-16-3-16s-4.9-36.6-11-47c-3.2-5.6-18-19.9-18-19.9l-19.5-21.2l-32.4-32
			c0,0-2.9-3.1-6.8-7.1c-5.9-5.9-14.1-13.9-18.6-16.5c-2-1.1-4.5-2.2-7.3-3.1c-1.9-0.6-4-1.2-6.2-1.8c-11.1-3-24.5-5.3-31.6-8.9
			c-2.2-1.1-5.6-4-8.4-6.6L148.6,590.7z"/>
		<path class="st1" d="M147.2,579.3c0,0-23.6-21.8-37.7-27.9c-5-2.2-16.1-4.2-21.5-3.5c-1.7,0.2-9.2,1.8-9.2,1.8
			c-2.9,4.3-4.9,7.8-10.2,7.8l-3.1,6.7c1.3,0.3,2.5,0.5,3.7,0.5c5.4,0,7.4-3.5,10.4-8c0,0,7.7-1.6,9.4-1.8
			c5.5-0.7,16.8,1.4,21.9,3.6c14.5,6.3,30,25.1,30,25.1s1.3,1.4,3.3,3.2L147.2,579.3z"/>
		<path class="st1" d="M54.4,545.7c-1.2-2.5-1.9-5.3-1.9-8.3c0-4,1.2-7.6,3.2-10.5l-8.6-90.7l-7.4,1.9l8.8,92.8
			c-2.1,3-3.3,6.8-3.3,10.8c0,3.8,2.1,7.6,5.3,11L54.4,545.7z"/>
		<polygon class="st1" points="680.7,733.3 593.5,754.4 585.2,755 586.3,745.2 680.2,725.2 		"/>
		<polygon class="st1" points="578.4,745.3 492.2,749.4 492.2,759.3 576.7,755.3 		"/>
		<polygon class="st1" points="486.6,759.4 449.2,760.6 449.9,750.6 487,749.5 		"/>
		<polygon class="st1" points="444.2,750.9 411.4,751.9 392.2,780.7 398,786.8 412.3,761.7 443,760.8 		"/>
		<polygon class="st1" points="394.3,792.7 374.7,822 364.9,822 388.4,786.8 		"/>
		<path class="st1" d="M719.5,711.5c-3,2.6-9.3,5.2-13,6.7c-4.3,1.8-15.1,4.4-21.5,5.9l1.3,8.4c0,0,19.7-5.4,26.2-8
			c2.5-1,6.4-2.8,9.7-4.6L719.5,711.5z"/>
		<path class="st1" d="M765.3,680.2c-11.4,10.8-33.3,31.9-37.3,35.5l-3.7-8.8c4.6-4.9,22.7-22.3,33.3-32.2L765.3,680.2z"/>
		<path class="st1" d="M802.9,551.2c-1.1,15.8,3,55.9,2.7,63.1c-0.4,11.2-27,38.5-36.6,49.4l3.2,9.8c9.9-11.2,39.8-44,40.2-55.4
			c0.3-7.4-2.4-48.5-1.2-64.7L802.9,551.2z"/>
		<path class="st1" d="M822,507v-21.7c0,0-12.7,38-18.2,55.3l8,2.6L822,507"/>
		<path class="st1" d="M734,287.2c0,0,32.8,49,43.4,63.1c3.8,5.1,11.3,15.5,14.5,21c3.8,6.6,27.2,45.2,30.4,52.1v-13.9"/>
		<path class="st1" d="M635.8,99.2c0,0-1.5-3.6-1.5-4.8c0.1-2.5,2.6-6.9,3.6-9.2c0.5-1.1,1.3-2.8,2-4.7l5.7-0.3"/>
		<path class="st1" d="M646.5,70.2l-7.8,0.8c-0.7-0.3-7.7-0.1-18.7-2.8c-2.8-0.7-5.9-1.4-9.2-2.2l-1.2-5.7"/>
		<path class="st1" d="M593.5,56.4l1.1,5.7c-5.9-1.4-12.2-2.9-18.7-4.5l0.2-5.4"/>
		<path class="st1" d="M478.4,28.3H454c0,0,64,15.3,116.4,27.9l1.1-5.3"/>
	</g>
	<path class="st1" d="M74.7,538.4c0,3.6-2.9,6.7-6.4,6.7c-3.6,0-6.4-2.9-6.4-6.4s2.9-6.4,6.4-6.4C71.8,532.2,74.7,534.8,74.7,538.4z
		"/>
	<path class="st1" d="M197.2,583.7"/>
	<g>
		<path class="st1" d="M187.5,493.9c0,0,3.5-12.4,3.4-16.7c0-1.5-1.4-6-1.4-6L68.2,434.3l-7.4,2c0.9,7.8,2.2,19.4,3.5,31.8
			l121.5,31.3L187.5,493.9z"/>
		<path class="st1" d="M182.9,508.8l0.7-3L65.2,476.4c0.9,8.4,1.8,16.8,2.6,24.3c0.5,4.7,5.8,15.9,9.7,18.7
			c4.7,3.4,15.1,4.2,20.4,6.6c15.3,7.1,37.8,27.3,56.4,39.5L182.9,508.8z"/>
	</g>
	<path class="st1" d="M189.3,509.1l-0.1,0.3L159.9,569c2.9,1.7,5.7,3.2,8.3,4.2c7.2,2.9,17.4,4.4,29.5,8.2l7.2-12.4l17.3-35.7
		L189.3,509.1z"/>
	<g>
		<polygon class="st1" points="242.8,485.7 245.2,479.7 208.2,451.4 197.8,471.4 		"/>
		<polygon class="st1" points="197.1,478.7 191.9,502.4 225.2,528 239.9,492.9 		"/>
	</g>
	<path class="st1" d="M145.1,403.1l-9.9,21.1L123,444.4c15.3,4.6,52.9,15.8,67.7,20.2c0.9,0.3,3.9,0.3,3.9,0.3l8.8-17.2L145.1,403.1
		z"/>
	<path class="st1" d="M64.2,372.7c-2.6,7.1-5.9,16.8-6.6,21.4c-1.3,9.3,1.7,32.8,1.7,32.8c0-0.8,0.2-0.2,0.5,1.5l5.7-1.8l50.5,15.6
		l11.7-18.2l0,0L64.2,372.7z"/>
	<g>
		<path class="st1" d="M78.9,375.2l8.7-15.8l-24-15.1c0,0,3.6,20.3,3.3,21.2L78.9,375.2z"/>
		<polygon class="st1" points="93.2,363.4 84.3,379.6 130.8,417.1 131,416.6 139.6,399 		"/>
	</g>
	<path class="st1" d="M293,632.6c-3.3-3.9-33.7-12.6-37.2-10.6c-1.5,0.9-3.9,5.3-2.7,6.6c9.1,9.5,28,27.5,28,27.5
		S294.9,634.9,293,632.6z"/>
	<g>
		<path class="st1" d="M381.9,607.7c0,0-16.7-2.6-17.2,1.7c-3.1,25.3,2.4,91.9,2.4,91.9l14.2,70.1l17.9-31.2L381.9,607.7z"/>
		<path class="st1" d="M358.9,708.1c0,0-5.5-71.4-2.9-97.8c0.3-2.6,4.7-6.4,7-7.7c3.9-2.2,17.6-3.5,17.6-3.5l0-0.1
			c0,0-1.2-17-3.9-21.9c-4.3-8-23.3-3.8-27.1,0.9c-15.5,19.6-54.1,88.3-54.1,88.3s9.8,10.7,13.7,16c1.4,1.8,3.7,5.8,4.5,8
			c4.5,13,6.7,29.2,8.5,39c1.2,6.6,4.7,23.5,6,26.1c6.4,12.9,30.8,46.3,30.8,46.3l17-22.5L358.9,708.1z"/>
	</g>
	<path class="st1" d="M801.8,451.5c0,2.8-2.3,5.1-5.1,5.1c-2.8,0-5.1-2.3-5.1-5.1c0-3.4,2.3-5.1,5.1-5.1
		C799.6,446.4,801.8,448.7,801.8,451.5z"/>
	<g>
		<path class="st1" d="M757.5,471l-80.6,16.9c0,0-5.4-3-7.2-2.6c-0.3,0.1-0.8,0.5-0.8,0.8c-0.2,0.9,0.6,2.9,1,3.8
			c0.6,1.2,3.4,4.1,3.4,4.1l84.2,32.7l0.1,0V471z"/>
		<path class="st1" d="M807.8,463c-5.3,0-12.7,0-21.6,1.9l-22.9,4.8v58.8l25.1,8.1l22.5-67.5L807.8,463z"/>
	</g>
	<path class="st1" d="M786.3,545.5l-23-8.8v102.4c13.8-13.6,24.4-25.8,25-27.6C789.1,609.3,786.3,545.5,786.3,545.5z"/>
	<path class="st1" d="M647.7,469.7c0,0-11.8,3.5-15,6.6c-1.5,1.4-7.4,10.7-7,13.3c0.4,2.7,4.4,2.3,5.9,2.2
		c7.7-0.7,30.3-6.4,30.3-6.4l0.1-4.1l-6.4-20.5L647.7,469.7z"/>
	<path class="st1" d="M672.8,463.8c-1.8-2.1-5.8-6.6-7.9-7.7c-0.9-0.5-2.9-0.6-3.9-0.3c-0.4,0.1-1.1,1-1.1,1l7.2,22l2.1-0.5
		L672.8,463.8z"/>
	<path class="st1" d="M669.8,429.1c1.2,3.8-2.1,21.8-2.1,21.8l7.9,6.6l10.3-46.6L658.4,400C659.1,401.7,668.8,425.8,669.8,429.1z"/>
	<g>
		<polygon class="st1" points="729.2,428.2 723.5,454.1 772.2,445.3 		"/>
		<polygon class="st1" points="717.1,455.6 723.9,426.1 692,413.4 681.7,456.9 680.4,461.7 717.1,455.6 		"/>
	</g>
	<g>
		<path class="st1" d="M722.5,461.8L720,472l64.8-13.5c-0.5-1.5-1-3.5-1-5.1c0-1.1,0.1-2.2,0.2-3.2L722.5,461.8z"/>
		<polygon class="st1" points="715.2,463 715.1,463 678.3,469.7 678.1,470.2 675,480 677.7,480.8 712.6,473.5 		"/>
	</g>
	<polygon class="st1" points="778.5,440.7 783.3,442.5 764.8,411.9 735.7,400 730.8,421.6 	"/>
	<path class="st1" d="M625.1,699.3l2.8,20.9c0.6-0.1,58.2-13.9,78.6-21.2c7-2.5,12.2-8.5,17.9-15.6c0.9-1.2,1.6-2.3,2.2-3.4
		L625.1,699.3z"/>
	<path class="st1" d="M586.4,705.2l2.3,21.7c5.2-0.8,12.3-1.8,15.3-2.3c3.6-0.5,11.2-1.9,17-3.1l-2.5-21.1L586.4,705.2z"/>
	<polygon class="st1" points="613.8,662.7 582.3,668.6 585.5,698 617.4,692.9 	"/>
	<polygon class="st1" points="609.4,627.3 578.4,632.4 581.5,661.2 612.9,655.6 	"/>
	<polygon class="st1" points="649.6,620.4 615.8,626.3 619.3,653.9 651.3,648.2 	"/>
	<polygon class="st1" points="604.7,588.5 574.2,594.8 577.6,625.4 608.6,620.2 	"/>
	<g>
		<path class="st1" d="M599.2,543.4c0,0-4.6-36.2-4.6-36.2c-1.8,0.2-11.8-0.2-13.5-0.2c-3.5-0.1-10.6,1.8-16.3,3.3l4.3,38.3
			L599.2,543.4z"/>
		<polygon class="st1" points="600.1,550.4 570,555.7 573.4,587.4 603.9,581.3 		"/>
	</g>
	<g>
		<polygon class="st1" points="514,598.4 566.6,588.6 563.2,557.1 510.5,568.4 		"/>
		<polygon class="st1" points="514.8,605.6 518.4,636.2 570.6,625.9 567.4,595.8 		"/>
		<path class="st1" d="M509.6,561.2l52.8-11.7l-4.2-38c-1,0.3-23.8,5.8-23.8,5.8c0.2,0.8,1.9,8.3-6.3,8.9c-3.2,0.2-5.9-1.6-5.9-5.7
			l-17.1,4.1L509.6,561.2z"/>
	</g>
	<g>
		<path class="st1" d="M450.6,656.9l-50,9.3c6.1,38.4,11.2,68.9,11.2,68.9l33.8-0.1L450.6,656.9z"/>
		<polygon class="st1" points="579.2,706.5 553.7,710.5 553.7,703 578.4,699.1 575.5,669.6 547,675.4 547,667.7 574.5,662.4 
			571.5,633.6 463.1,654.6 458.1,655.5 452.4,734.9 581,727.9 		"/>
	</g>
	<polygon class="st1" points="452.5,573.6 503,562.6 498.6,526.1 448.3,537.6 	"/>
	<g>
		<polygon class="st1" points="457.3,608.9 507.3,599.7 503.8,569.8 454.2,580.5 		"/>
		<polygon class="st1" points="511.7,637.5 508.1,606.8 458.1,616.1 461.4,647.4 		"/>
	</g>
	<g>
		<path class="st1" d="M448.3,629.9c1.3,0.7,5.7,0,5.7,0l-5.5-48.3l-40.2,8.7C408.3,590.4,435.7,623.6,448.3,629.9z"/>
		<path class="st1" d="M446,637.1c-14.9-6.1-46-45-46-45l-11,2.4c3.1,18.7,6.9,41.8,10.4,64l56.5-10.2l-1.2-11.2
			C454.7,637.1,448,638,446,637.1z"/>
	</g>
	<path class="st1" d="M696.7,555.1c-10.4-18.2-26.2-48.8-32.7-63.3c-0.6-1.4-19.1,4.9-25.3,5.9c-1.9,0.3-5.8,0.6-7.7,0.6
		c-1.8,0-5.3-0.2-7.1,0c-5.8,0.8-15.9,6-23.6,7.9l4.8,36l6.9-1.3v-11h5.8v9.7l24.1-6.5l1.8,5.8l-29.1,9.2l-8.7,1.5l3.8,30.1
		l48.4-9.9c0,0-1.5-10.1-1.1-12.7c0.3-1.8,5-2.8,6-4.4c0.6-0.9-0.5-3.3,0-4.2c1.2-2.3,9.9-3.2,9.9-3.2l1.8,5.1c0,0-5,1.8-6.2,3
		c-0.9,1-1.6,3.7-2.3,4.8c-0.5,0.8-2.9,1.4-3.3,2.3c-0.7,1.7,0.8,8.1,0.8,8.1s15.7-4.3,20.9-5.9
		C688.2,561.6,698.4,558.2,696.7,555.1z"/>
	<path class="st1" d="M746.6,530.4l-12.8,36.8l23.3,42.6c0.2-32.4,0.3-75.3,0.3-75.3L746.6,530.4z"/>
	<g>
		<path class="st1" d="M731,575.2l-6.5,18.7l21.9,37.4l2.6,0.4l7.9,13.6c0.1-0.1,0.1-10,0.2-23.9L731,575.2z"/>
		<path class="st1" d="M704.1,559l16.7,28.6l19.5-59.6l-64.6-24.5c3.5,6.5,21.4,39.8,28.1,51.6C704.3,555.9,704.5,557.9,704.1,559z"
			/>
	</g>
	<g>
		<path class="st1" d="M674.7,607.9c2.1-0.7,2.2-6.2,3.6-7.9c6.2-7.9,30-23,30-23l-8-14.6c-3.4,2.9-6.4,4.5-10.3,6.4
			c-5.9,2.7-25,7-25,7l-54.1,11.5l4,31.6C614.9,618.8,669.6,609.5,674.7,607.9z"/>
		<path class="st1" d="M711,581c0,0-24.1,14.1-29.5,22.2c-1.2,1.8-1.4,7.3-3.4,8.2c-4.9,2.2-21.8,5.2-21.8,5.2l1.3,30.5l83.8-14
			L711,581z"/>
	</g>
	<polygon class="st1" points="110.4,334.4 115.9,333 126.5,372.1 152.6,392.8 151.4,381.2 125.3,302.8 69.7,327.1 118.3,365.6 	"/>
	<path class="st1" d="M207.8,422.6c0,0,5.7-21.2,2.3-27c-3-5.1-17.5-8-22.9-5.6c-5.5,2.5-11.4,21.3-11.4,21.3l18.2,14.4l10.4,7.5
		L207.8,422.6z"/>
	<path class="st1" d="M86.6,207.3c-8.8,3.4-16.8,6.5-23.7,9.1l10.7,40.8l-6,2.2l-10.6-40.7c-8,3-18.4,6.9-18.4,6.9
		s16.8,42.7,21.4,56.6c2.1,6.4,5,34.6,6.8,38.6l48-20.9L86.6,207.3z"/>
	<g>
		<path class="st1" d="M127.6,231.2c-7-7.5-10.4-35.8-10.4-35.8c-8.1,3.2-16.1,6.3-23.8,9.3l14.3,48.2l30.2-12.9
			C137.9,239.9,135.1,239.1,127.6,231.2z"/>
		<path class="st1" d="M160.2,253.7c-1.3-0.6-16.7-9.1-16.7-9.1l-33.6,15.1l11.4,37.3l72.2-31.5C193.5,265.5,171.9,259,160.2,253.7z
			"/>
	</g>
	<path class="st1" d="M168.4,249c12.3,4.8,33.6,12.7,33.6,12.7l35.2-15.3l-13.4-39.1l4.5-2.1l13.6,39.2l1.2-0.5l3.7-2.6l-12.4-32.3
		l39.6-22.8l-9.9-28.4l-0.7-10.3c-10.9,4.5-27.7,11.2-37.8,13.1c-6.9,1.3-21.7-0.5-28.6,2.5c-13.2,5.7-43.1,17.5-73.2,29.3
		c0,0,5.1,29.6,12.3,36.2C151.3,242.5,164.4,247.5,168.4,249z"/>
	<polygon class="st1" points="286.3,215.5 277,193.1 242.8,212.3 253,237 	"/>
	<g>
		<path class="st1" d="M251.5,246.3l13.2,24.5l17.3,12.6l6.4,3.6c0,0,4.1-34.2,4.2-45.7c0.1-5.8-4.1-19.8-4.1-19.8L251.5,246.3z"/>
		<polygon class="st1" points="256.7,270.8 245.3,250.3 202,269.2 207.6,291.1 		"/>
	</g>
	<polygon class="st1" points="278.7,288.1 276.6,286.9 262.2,276.6 228.3,290 235.6,311.5 	"/>
	<polygon class="st1" points="283.2,293.2 237.5,317 257.7,376.7 270.9,378.9 287.7,294.3 	"/>
	<path class="st1" d="M210.1,437.3l36.6,27.8l22.9-79l-17.4-3.5l-30.5-89.8l-12.4,4.9l5.2,20.2l-14.7,7.4l-2.2-6.4l8.7-3.9
		l-3.8-14.6l-6.1,2.4l-2.7-5.8l7.2-3l-5.6-21.5l-64.8,28.1l13.5,38.9c0,0,24.2-11.8,31.1-15.5c1.4-0.7,5.7-0.8,6.3,0.6
		c3.2,8,9.3,28.3,9.3,28.3v18.2h-4.8v-16.4l-8.9-24.9l-31.4,15.6l9,26.5l22.6-11.2l2.3,6.7l-22.6,11.2l0.2,0.5l2.3,9.9l-1,8.4
		l12.6,10c0,0,6.9-15.7,9.1-19.3c1.2-2,5-6,7.4-6c7.1,0.2,17.9,2.5,23,5.5c1.8,1.1,5.7,3.4,6.4,5.3c2.9,7.6-0.9,24.5-3.1,32.4
		C212.9,428.2,210.1,437.3,210.1,437.3z"/>
	<path class="st1" d="M298.2,347.4l5.4-25.7l5.5-14.2l2.3-13.1l-10.5-1.9c0,0-11.5,72-17.1,95c-5.1,21.2-25.3,83.4-25.3,83.4
		c3.1,2.4,9.9,4.7,14.6,8.5l15.2-79.1L298.2,347.4z"/>
	<g>
		<polygon class="st1" points="283.7,459.7 326.6,469.2 327.7,445.1 287.1,439.6 		"/>
		<polygon class="st1" points="291.7,413.7 288.4,431.7 328,437 329,413.7 		"/>
	</g>
	<g>
		<polygon class="st1" points="297.5,382.1 353.2,386.3 348.4,372.7 321.7,372.7 300.4,366.1 		"/>
		<polygon class="st1" points="293.2,405.7 359.7,405.7 356.1,392.8 296.2,389 		"/>
		<path class="st1" d="M348.8,529.4c4.1,0,8,0.8,11.5,2.3l7.5-14.9l21.3-19l-2-8.4L282,467.9l-2.3,14.6c17.5,14.5,49,42.5,56.9,49.5
			C340.2,530.3,344.4,529.4,348.8,529.4z"/>
		<polygon class="st1" points="342,300.1 318.6,295.1 315.9,307.2 309.5,324.3 303.8,347.4 301.7,358.8 320.7,364.2 346.8,364.2 		
			"/>
		<polygon class="st1" points="333.4,470.5 382.5,480.2 373.5,450.8 334.2,445.9 		"/>
		<polygon class="st1" points="335.2,413.7 334.5,437.8 371.8,442.3 363.9,413.7 		"/>
	</g>
	<path class="st1" d="M335.9,159c-1.2,0.9-2.6,1.5-4.1,1.5c-3.9,0-7.1-3.7-7.1-8.2s3.2-8.2,7.1-8.2c0,0,0,0,0,0l-9.9-33.5
		c-6.1,5-18.9,15.3-25.4,19.3c-4.1,2.5-18.8,10.4-22,12.2l0.8,12.1l13.8,36c0,0,8.6,22.6,10.6,29.8c1.6,5.5,3.2,15.4,3.5,21.1
		c0.5,10.2-0.7,38.1-1.6,44.6l7.3,1.5l-0.5-42.4l-4.5-41.3l37.3-17.9L335.9,159z"/>
	<polygon class="st1" points="344.4,272.5 316.4,272.5 315,288.4 342,294.1 342.5,294.1 	"/>
	<g>
		<path class="st1" d="M322.5,200.3l-9.4,5.2l0.6,20.6l3,12.6l20.6-0.7C331.2,222.2,324.7,205,322.5,200.3z"/>
		<path class="st1" d="M340.2,246.1h-23.5l0.2,19.2l27.9,1.1l2.7-0.7C346.3,262.4,343.5,254.9,340.2,246.1z"/>
	</g>
	<polygon class="st1" points="328.3,197.6 354.3,264 377.9,254.8 355.2,184.7 348.4,188.3 	"/>
	<polygon class="st1" points="373.8,133.2 373.8,106.6 332.3,122.3 340.4,152.1 346.5,180.2 346.5,180.4 373.6,167 382.8,160.7 	"/>
	<polygon class="st1" points="374.9,85.9 374.9,81.8 367.9,73.9 328.6,105 330.2,114.7 373.8,99.1 	"/>
	<path class="st1" d="M398.8,57.9l-1.5-5.8c-9,6.1-22.1,15.5-25.5,17.9l7.6,7.3c0,0,3.9-7.2,5.6-9.8
		C387.7,63.4,398.8,57.9,398.8,57.9z"/>
	<g>
		<path class="st1" d="M407.7,85.3l-9.8,5.2c0,0-2.6,9.7-2.8,13.1c-0.1,1.6,2.5,10.2,2.5,10.2l-5.7,1.9c0,0-4-8.8-4.1-10.5
			c-0.1-2.7,2.2-10.6,2.2-10.6l-4.9-16.7c0,0-2.7,7.6-3.3,10c-0.8,3.5-1.8,8.7-1.9,12.3c0,7.8,0.7,31.1,0.7,31.1l8.3,25.3l33.6-22.9
			L407.7,85.3z"/>
		<polygon class="st1" points="395.2,83.9 405.6,78.5 400.3,63.8 389.9,71.4 394.8,83.2 		"/>
	</g>
	<path class="st1" d="M437.1,39.4c-3.6-0.4-11-0.8-14.6,0c-5.2,1.2-18.7,8.7-19.2,8.9l1.7,4.9c0,0,8.6-5.6,11-6.2
		c6.6-1.7,17.6-1.4,23.9,0.2c7.4,1.9,18.9,11.1,25.8,13.1c0.6,0.2,3.4,0.9,5.1,1.4l-8.2-17.3C454.3,42.5,442.5,40,437.1,39.4z"/>
	<g>
		<path class="st1" d="M745,639.2l-85.6,15.4l4,31.1l66.2-11c0-0.4,9.8-11.8,22.7-24.7L745,639.2z"/>
		<polygon class="st1" points="651.7,655.9 620.3,661.6 624.2,692.2 655.9,686.9 		"/>
	</g>
	<polygon class="st1" points="697.7,384.6 693.3,406.7 725.3,419.4 730.1,397.8 697.8,384.6 	"/>
	<g>
		<path class="st1" d="M650.6,396.9c-1.5-1.5-5.7-2.9-7.8-3.1c-1.7-0.2-6.8,1-6.8,1l14.5,30.4l7.1,24.3l4.6,0.2
			c0,0,2.2-14.2,1.5-18.8C662.4,422.2,652.4,398.8,650.6,396.9z"/>
		<polygon class="st1" points="645.5,387.5 687.3,404.3 692,382.4 649.2,365.5 		"/>
	</g>
	<polygon class="st1" points="645.5,461.1 645.6,461.5 652.2,454.3 653.2,453.4 645.5,430.6 630.2,397.5 622.7,388.3 618.4,401.5 	
		"/>
	<path class="st1" d="M602.8,400.5c3.4-3,12.8-24.7,12.8-24.7l-3.5-6.3c0,0-12.9,23.8-11.5,32.1
		C600.6,401.9,602.5,400.7,602.8,400.5z"/>
	<path class="st1" d="M601.5,411.5c-2.4,1.9,3.5,8.4,5.2,5.9c3.7-5.4,12.4-27.7,11.7-33.4C618.3,383.7,605.7,408.2,601.5,411.5z"/>
	<path class="st1" d="M595.5,395.5c0,0,5.7-20.5,9.1-27.3c0.7-1.5,4.8-6.1,4.8-6.1l-3.2-9.5l-36.9-13.5l-8.9,41.3L595.5,395.5z"/>
	<polygon class="st1" points="658.6,327.7 651.1,359.7 693.3,376.6 700.4,343.4 	"/>
	<polygon class="st1" points="634.7,323.6 629.1,351 644.6,357.2 654.1,319.3 	"/>
	<g>
		<polygon class="st1" points="708.2,307.3 660.9,317.8 660,321.6 702.4,336 		"/>
		<path class="st1" d="M808.9,433.6c0,0-16.6-32.5-22.6-43.4c-4.1-7.4-17.3-29.7-17.3-29.7l-45.4-62.2l-8.4,7.3l-16.3,73.1
			l69.5,26.8l20.8,35.5c1.8-1.2,4.1-1.9,6.8-1.9c7.4,0,13.5,5.4,14.6,12.6l2.2,0.2c0,0,0.3-5.2,0-6.9
			C812.4,442.1,808.9,433.6,808.9,433.6z"/>
	</g>
	<path class="st1" d="M628.5,325l-18.8,8l0,0.1c0,0,0.9,12.2,1.7,16.3c0.6,3.2,4.2,12.5,4.2,12.5l13.7,24.9l0.7,0.5l8.9-0.7
		l4.2-23.4c0,0-13.8-5.3-19.4-7.7c-0.9-0.4-0.8-2.9-0.7-3.9C623.5,345.5,627.4,329.3,628.5,325z"/>
	<path class="st1" d="M608.1,315.1c0,0,3.2-0.1,4.5-0.4l-1.2-25.4l-4.3,0L608.1,315.1z"/>
	<polygon class="st1" points="566.4,175.9 535.1,198 540.6,211.4 598.8,202.1 598.8,160.9 	"/>
	<polygon class="st1" points="557.7,116.8 549.7,101 508.1,131.9 523.2,168.8 544.3,130.8 	"/>
	<g>
		<polygon class="st1" points="562.2,121.3 548.3,137 526.6,177.2 532.3,191.1 563.7,168.2 598.8,151.9 598.8,116.5 567,119.9 		"/>
		<path class="st1" d="M592,109.6l-28.2,3.3L555,96.2c0,0,21.3,0,28.3,1.1c2.1,0.3,6.5,1.9,7.7,3.6C592.4,102.7,592,109.6,592,109.6
			z"/>
		<path class="st1" d="M599.6,92.4l16-6.9c-1-3.1-1.1-4.4-3.1-5.1C585.3,71,470.9,46,469.9,45.8l34.8,78.3l47.7-34.1L599.6,92.4z"/>
	</g>
	<g>
		<path class="st1" d="M564.4,239c1.2-6.5,7.8-25.1,7.8-25.1l-28.6,4.7l19.3,45.9C562.9,264.5,563.2,245.3,564.4,239z"/>
		<path class="st1" d="M601.7,245.1v-8l-2.9-27.6l-17.5,2.7c0,0-8.1,19.2-9.9,26.3c-1.8,7.4-1.4,30.5-1.4,30.5l32.5,21.1l0.1-10.8
			L601.7,245.1z"/>
	</g>
	<path class="st1" d="M560.3,350.5c1.6-7.1,2.8-12.4,2.8-12.4l0.9-3.9l0,0l3-19.2l-25.3-10.3l-10,34.3L560.3,350.5z"/>
	<polygon class="st1" points="526.7,195 515.9,168.6 500.6,177.4 513.2,205.6 	"/>
	<g>
		<path class="st1" d="M456.8,146l-17.2,13.6l7.2,15.3c4.5-1.7,12.9-4.7,19.9-6.7L456.8,146z"/>
		<path class="st1" d="M502.6,169.3l10.7-7l-11.6-28.4l-28.2-64.8c-2.7-0.7-7.4-1-9-1.6c-6.6-2.4-18.2-11.1-24.9-13.2
			c-6.1-1.9-16-2-22.2-0.6c-2.4,0.5-10,5.6-10,5.6l24.2,77.2l-2.2,1.5l7.8,16.6l26.2-20.5l2.2,4.9l-4.6,4.4l10.6,23.7
			c2.1-0.5,2.7-0.5,4.1-0.6c2.1-0.1,4.3,7,4.3,7l16.9-1.8l-15.4-30l7.2-3.2L502.6,169.3z"/>
	</g>
	<polygon class="st1" points="493.8,221.1 509.6,208.6 503.3,195.6 486.1,206.1 	"/>
	<polygon class="st1" points="487.5,219.3 479,227.2 479.4,232.1 489.8,224 	"/>
	<path class="st1" d="M477.5,186.3c-0.5,3.4,3.6,13.4,3.6,13.4l18.4-11.6l-4.3-8.9l-13.6,0.7C481.6,179.9,477.8,184.4,477.5,186.3z"
		/>
	<path class="st1" d="M458.2,213.8l18.9-11.9c0,0-4.6-11.7-4.2-15.7c0.2-1.7,3.2-6.2,3.2-6.2c-0.3-1.6-1.2-6.7-2.8-6.4
		c-4.7,0.6-16.9,4.6-23.2,6.7L458.2,213.8z"/>
	<polygon class="st1" points="424.7,191.9 444.5,180.7 426,140.4 405.7,154.4 	"/>
	<polygon class="st1" points="439.2,216.8 452,212.4 446.2,186.1 427.3,196.9 	"/>
	<polygon class="st1" points="461.2,246.4 475.5,235.4 474.4,225.8 485.7,215.8 482.1,208.4 460,221.8 	"/>
	<polygon class="st1" points="584.9,315.1 574.1,316.4 571.5,331.8 604.5,344.3 604.4,344.2 603.7,331.1 592.5,334.5 	"/>
	<polygon class="st1" points="542.5,298.1 543.5,298.5 543.5,298.6 572.9,310.7 587.3,309.3 594.7,328.6 603.4,325.7 601.9,298.4 
		557.2,267.4 534.5,290.5 	"/>
	<polygon class="st1" points="496.9,227.6 477.1,242.2 493.6,311.5 496.8,311.9 528.3,290.2 528.5,290 	"/>
	<g>
		<polygon class="st1" points="528.5,224.2 520.9,209.9 500.4,225 505,233.6 520.5,224.3 522.5,227.6 507.2,236.8 515.5,253.6 
			530.6,243 		"/>
		<polygon class="st1" points="532.9,222.4 534.5,241.4 548.5,269.1 554.4,262.9 530,203.1 524.7,207.1 		"/>
		<polygon class="st1" points="532.4,247.7 517.8,257.5 532.4,285.9 545.1,272.6 		"/>
	</g>
	<g>
		<path class="st1" d="M396.9,193.6c2.6,4.7,9.4,13,13,16.9c2.1,2.2,6.6,6.3,8.4,8.8c2.7,3.7,8.9,16.3,8.9,16.3l29.4,6.6l-0.8-22.9
			l-1.7-2.6l-12.2,4.1l5.2,7.7l-3.4,2.4l-5.8-8.8l-2.6-4l-12.9-19.5l-2.5-4.1l-17.7-37.9l-15.3,10.6
			C387.1,167.3,393.5,187.5,396.9,193.6z"/>
		<path class="st1" d="M414.4,221.6c-1.6-2.2-5.8-5.8-7.7-7.7c-3.9-4-11.1-12.8-13.9-17.7c-3.5-6.1-10-26.1-10-26.1l-22.3,11.8
			c3.1,9.1,18,52.4,23.6,70.7l38.4-15.6C422.4,237,417,225.1,414.4,221.6z"/>
	</g>
	<g>
		<path class="st1" d="M428.5,241.3l2.5,14.3c8.3-2.3,25.8-5.8,25.8-5.8L428.5,241.3z"/>
		<path class="st1" d="M421.9,243.4L358,270.1c0,0,0.2,9.7,3.2,9.4c10.2-0.9,44.6-16.7,62.7-23.1L421.9,243.4z"/>
	</g>
	<g>
		<polygon class="st1" points="463.6,279.9 479.4,276.1 471.9,246.1 462.9,252.7 		"/>
		<path class="st1" d="M457.8,255.4c-4.9,0.8-17.9,3.1-25.8,5l2.5,26.4l23.4-5.6V255.4z"/>
	</g>
	<path class="st1" d="M392.2,292.4l34.4-4.2l-2.4-25.5c-18.7,6-54.7,22.8-66.5,24.8c-4,0.7-4.4-15.6-4.4-15.6l-2.8,0.5l-2,21.6
		L392.2,292.4z"/>
	<g>
		<polygon class="st1" points="489.3,315.6 480.7,281.2 463.8,285.2 465.2,322.1 		"/>
		<polygon class="st1" points="458.8,322.9 457.9,286.6 435.5,291.9 436.5,323.6 		"/>
	</g>
	<g>
		<polygon class="st1" points="422.4,340.2 431.9,357.9 430.1,336.3 		"/>
		<polygon class="st1" points="429.8,330.6 427.7,294.6 397.3,299.1 419.4,335.3 		"/>
	</g>
	<polygon class="st1" points="390.1,299.5 378.5,299.8 394.1,333.5 425,372.9 430.1,365.3 	"/>
	<polygon class="st1" points="389.1,336.5 372.7,299.9 348.8,300.4 353.2,364.5 365.6,401 382.5,390.5 384.3,390.4 375.8,364.2 
		381.3,362 394.2,389.9 414.4,389 421.3,378.6 	"/>
	<polygon class="st1" points="433.8,473.7 408.3,491.2 411.7,529.9 440.3,523.5 435.9,495.8 	"/>
	<g>
		<polygon class="st1" points="495,471 497,510.8 447.8,521.8 443.4,493.9 442.9,487 		"/>
		<path class="st1" d="M500.8,469.2"/>
	</g>
	<g>
		<polygon class="st1" points="488.2,452.1 483.1,440.8 469.6,449.1 		"/>
		<polygon class="st1" points="464.1,452.8 438.9,470.1 440.7,482.4 494,465 490.9,458.2 		"/>
	</g>
	<path class="st1" d="M537.2,431.5l-38.7,27.7l1.3,3.8l1,6.1l1.9,40.4l54.1-12.1c0,0-2.2-14.8-3.8-21.2
		C550.1,464.8,537.2,431.5,537.2,431.5z"/>
	<path class="st1" d="M538.7,410.5c-0.4,0.1-0.9,0.2-1.2,0.3c-5.5,1.4-20.8,9.4-20.8,9.4l-26.2,16l6.1,17.6l36-25.9l5.6-6.2l2.2-2.3
		L538.7,410.5z"/>
	<path class="st1" d="M583.1,461.1c-2.2-4.2-8.5-11.5-11.7-15.1c-3.9-4.3-10.6-14.3-15.6-17.2c-2.5-1.5-8.5-3.1-11.3-2.6
		c-1,0.2-3.5,1.9-3.5,1.9l0,0c1.8,5.5,15.1,37,17.9,48.3c1.5,6.1,2.9,20,2.9,20l20.3-4.5c0,0,1.9-4.2,2.7-5.2c2-2.6,4.8-3.5,6.9-4.2
		C591.8,482.4,586.6,467.8,583.1,461.1z"/>
	<path class="st1" d="M577,410.1c-2.8-0.9-5.3-1.7-7-2c-6.5-1.1-16.9-0.3-25.5,1.2l2.4,10.1c0,0,9.1,2.5,12.1,3.9
		c4.2,2.1,9.9,8,14.4,13.2L577,410.1z"/>
	<g>
		<path class="st1" d="M591.8,431.5c1.2,1.6,7.1,3.8,7.1,3.8l0.2-14.1c-1-1-1.7-2.1-2.3-3.3c0,0-3.6-1.5-8.2-3.4
			C588.7,414.5,589.3,428,591.8,431.5z"/>
		<path class="st1" d="M588,436c-3.3-4.7-4.9-22.5-4.9-22.5l-5.2,28.6c0.1,0.1,0.1,0.2,0.2,0.2c3.1,4,9.7,11.7,11.8,16.3
			c3.2,7,7.2,22.9,7.4,22.9l1.5-38.6C598.8,442.8,589.8,438.6,588,436z"/>
	</g>
	<g>
		<path class="st1" d="M615.6,443.8c1.3,1.9,2.8,6.3,4.4,7.9c3.3,3.2,15.8,2,15.8,2l-20.3-45.7c0,0-3,13.7-8.4,15.2
			c-1,0.3-1.9,0.4-2.7,0.4l-0.2,13C604.2,436.6,613.7,441.1,615.6,443.8z"/>
		<path class="st1" d="M618.4,457.5c-2.3-1.8-5.2-7.9-7.3-10c-1.3-1.3-7-2.7-7-2.7l-0.6,35.9c8.2-1.5,14.9,3.6,16.7,3.6
			c0,0,4.6-9.6,7.3-12.3c2.7-2.6,13.5-6.8,13.5-6.8l-3.1-6.9C637.9,458.3,622.8,460.9,618.4,457.5z"/>
	</g>
	<path class="st1" d="M399.3,447.5c-0.3-0.6-0.6-1.1-0.9-1.5c-1.6-2.5-3.6-6.8-4.8-9.5c-4.1-8.8-21.7-32.3-21.7-32.3l-4.4,2.5
		l0.9,2.6l11.2,36.2L399.3,447.5z"/>
	<g>
		<path class="st1" d="M404.3,466c1.1,4.2,8.2,15.1,8.2,15.1l2.7-1.8c0,0-5.3-16.7-8.2-21.8c-0.5-0.9-1.6-2.1-2.6-3.2
			C404.3,454.3,403.6,463.2,404.3,466z"/>
		<path class="st1" d="M399.3,467.9c-0.9-3.8,0-15.6,0-15.6l-18.2-1.9l13.3,42.9l13.5-9.1C407.9,484.2,400.4,472.3,399.3,467.9z"/>
	</g>
	<g>
		<polygon class="st1" points="441.4,407.1 446.6,387.6 441.4,384 432.6,369.5 419.5,392.1 430.1,403 		"/>
		<path class="st1" d="M436.1,447.5l4.1-34.6l-10.1-2.4l-15-14.9l-30.8,1.7l-8,4.5c0,0,18.1,24.2,22.2,33.3c1.4,3.2,4.8,8.7,6.4,12
			c0.7,1.6,2.5,3.9,3.6,5.3c4,5.2,11.4,23.8,11.4,23.8l22.3-15.1L436.1,447.5z"/>
	</g>
	<path class="st1" d="M514.6,374.9c-4.2,0.3-12.1,3.1-16,4.5c-5.8,2-22.8,9.6-22.8,9.6l23.9,34.2c12.5-7.4,28.1-16.2,36.7-18.8
		c0,0-4.6-23.9-4.6-27.9C531.7,372.3,518.9,374.6,514.6,374.9z"/>
	<path class="st1" d="M466.5,388.3c0,0,0.9-0.4,2.3-1.1l-6.7-14c-1.9,1.9-3.7,4-4.7,5.4c-2.9,4.5-7.7,20-7.7,20l-4.1,19.3l-2.7,26.9
		l4.9,12.4l33-22.3c0,0,5.3-3.4,12.8-8l-23.9-34.3L466.5,388.3z"/>
	<path class="st1" d="M504,354.3c-11.1,2.6-27.9,9.6-36.7,14.7l7.9,15c6.8-3.3,15.7-7.5,20-9.1c3.5-1.3,9.7-3.4,14.6-4.6L504,354.3z
		"/>
	<path class="st1" d="M458,327.1l-21.4,1.2l1.2,40.9l6,9.8l4.7,2.6c0,0,1.5-5.3,2.5-6.8c1.8-2.7,7.1-6.6,9.9-8.7L458,327.1z"/>
	<g>
		<path class="st1" d="M475.8,323.9l-9.3,2.4l0.8,36.1c3.2-1.8,6.9-3.7,9.7-5L475.8,323.9z"/>
		<path class="st1" d="M530.9,293.2l-32.7,23.1l6.2,19.7l-5.8,2.3l-5.1-18.9l-11.4,2.9l2,32.1c6-2.2,14-4.5,18.6-5.3
			c3.5-0.6,10.8-0.4,14.2-1.2c2-0.5,7.4-3.1,7.4-3.1l12.8-45.5L530.9,293.2z"/>
	</g>
	<g>
		<path class="st1" d="M535.9,369.6l22-8.1c0.3-1.3,0.5-2.5,0.8-3.8L530,347.5c0,0-6.9,5.6-9.7,6.3c-2.4,0.6-6.9-0.2-10.2-0.3
			l6,15.7c6.2-0.7,17.9-1.5,19.7,0.3C535.8,369.6,535.9,369.6,535.9,369.6z"/>
		<path class="st1" d="M553.9,387c-0.9-0.4,0.7-9.5,2.8-19.8l-19.2,8.1c2.1,9.6,5,27.8,5,27.8c9.3-1.4,22.6-1.6,29.7-0.3
			c5.9,1.1,22.6,7.6,22.6,7.6c0-2.8,0.5-6.1,0.5-6.1C595.3,404.3,563.1,391.5,553.9,387z"/>
	</g>
	<polygon class="st1" points="609.2,236.9 605.6,209.1 605.6,121.7 613.6,121.5 622.9,156.6 645.5,236.1 	"/>
	<path class="st1" d="M679.4,251.1l-15,57.5c17.1-4,33.9-7.9,42.8-10L682,251.1H679.4z"/>
	<g>
		<path class="st1" d="M652.1,243.4l-39.9,0.7c0,0-0.1,21.9,1,32.8c0.3,3,4.1,8.1,4.4,11.1c0.7,6.6,0.7,24.9,0.7,24.9
			c0,0,4.2,5.1,6,4.7c7.9-1.9,17.1-3.7,29.9-6.7l16.2-63.2L652.1,243.4z"/>
		<path class="st1" d="M692.9,246.4L657,180.8c0,0-39.9-81.5-40.7-86.6l-10.7,5.8v14.2h13l13.2,40.2l21.4,81.4l24.3,6.3v0l8.4,1
			l29.6,52.6l4.3-3.1L692.9,246.4z"/>
	</g>
	<path class="st1" d="M370,539.2l35.8-8l-1.6-37.2l-7.9,5.4l-24.6,23.4l-5.7,12.2C367.6,536.3,368.9,537.7,370,539.2z"/>
	<path class="st1" d="M333.2,570.3c-3.5-2-5.1-3.8-6.3-6.2c-2.2-3.4-3.5-7.5-3.5-12.3c0-2.9,0.5-5.6,1.4-8.1
		c-7.2-7.1-70.5-58.5-70.5-58.5l-4.4,8.4c0,0-41.1,91.6-40.8,91.8c3.1,1.7,5.4,3.6,10.2,6.8c5.2,3.5,20.8,12.6,20.8,12.6l12.1,4.2
		c0,0,20.9,4.8,27.7,7.1c4.9,1.6,14.3,6,19,8c2.5,1.1,21.2-28.1,26.6-39.3c1.7-3.6,8.3-13.2,8.8-13.9
		C333.9,570.8,333.6,570.6,333.2,570.3z"/>
	<path class="st1" d="M442.6,538.8l-68.5,14.4c-0.1,2.3-0.5,4.4-1.1,6.4c3,1.1,10.6,4,11.1,6.9c1,5.5,2.3,12.8,3.8,21.2l59.2-12.9
		L442.6,538.8z"/>
	<path class="st1" d="M350.4,562.6h-2c-6.1,0-11.1-5-11.1-11.1l0,0c0-6.1,5-11.1,11.1-11.1h2c6.1,0,11.1,5,11.1,11.1l0,0
		C361.5,557.6,356.5,562.6,350.4,562.6z"/>
</g>
<g id="Aix">
	<g>
		<path class="st2" d="M134.1,743.8v-93.3h18v93.3H134.1z"/>
		<path class="st2" d="M230.2,743.8h-19L196,711l-13.9,32.8h-18.7l22.8-48.4l-21.4-44.9h19l13.3,29.7l13.1-29.7h18.7L207.4,696
			L230.2,743.8z"/>
	</g>
	<g>
		<path class="st2" d="M66,761.1v12.7h12.4v6.3H66v13.3h15.4v6.3H57.5v-44.8h23.9v6.3H66z"/>
		<path class="st2" d="M108,799.6l-11.3-29.7v29.7h-8v-44.8h9.5l10.2,26.7v-26.7h8v44.8H108z"/>
		<path class="st2" d="M199.3,764.9v4l-8.2,0.3v-3.6c0-3.6-1.7-5.2-4.8-5.2s-4.8,1.6-4.8,4.5v24.4c0,2.9,1.7,4.5,4.8,4.5
			s4.8-1.6,4.8-5.2v-5l8.2,0.3v5.4c0,6.8-4.9,10.7-13.2,10.7c-8.3,0-13.1-4-13.1-10.7v-24.6c0-6.8,4.8-10.7,13.1-10.7
			C194.4,754.2,199.3,758.1,199.3,764.9z"/>
		<path class="st2" d="M215,761.1v12.7h12.4v6.3H215v13.3h15.4v6.3h-23.9v-44.8h23.9v6.3H215z"/>
	</g>
	<polygon class="st2" points="100.6,650.5 77.7,650.5 57.1,743.8 75.1,743.8 79,722.6 86.2,722.6 86.2,709.8 81.4,709.8 89.2,670.5 
		96.6,709.8 91.4,709.8 91.4,722.6 98.9,722.6 102.9,743.8 121.2,743.8 	"/>
	<path class="st2" d="M153,754.8h-12.3v11.1h8.5v-4.8h3.5c4.1,0,5.9,1.7,5.9,5.5v2.7c0,3.8-1.8,5.5-5.9,5.5h-3.5v-5.1h-8.5v29.9h8.5
		V781h3.8c9.2,0,14.1-4,14.1-11.3v-3.6C167.2,758.8,162.2,754.8,153,754.8z"/>
</g>
</svg>
