<?xml version="1.0" encoding="utf-8"?>
<!-- Generator: Adobe Illustrator 19.0.0, SVG Export Plug-In . SVG Version: 6.00 Build 0)  -->
<svg version="1.1" xmlns="http://www.w3.org/2000/svg" xmlns:xlink="http://www.w3.org/1999/xlink" x="0px" y="0px"
	 viewBox="0 0 850.4 850.4" style="enable-background:new 0 0 850.4 850.4;" xml:space="preserve">
<style type="text/css">
	.st0{stroke:#000000;stroke-miterlimit:10;}
	.st1{fill:#FFFFFF;stroke:#000000;stroke-width:0.25;stroke-miterlimit:10;}
</style>
<g id="cadre_exterieur">
	<rect class="st0" width="850.4" height="850.4"/>
</g>
<g id="tres_petites_routes">
	<g>
		<path class="st1" d="M223.1,514.8l14.6,20.3l-11.7,7.3l-16.6-18.5L223.1,514.8z M203.6,527.8l16.4,18.3l-8.2,5.1l-16.1-18.2
			L203.6,527.8z M181.5,542.6l8.3-5.6l15.9,18l-10.3,6.4L181.5,542.6z M114.6,644l36.1-18.3l2.6,4.2l-37.1,19.5
			C115.6,647.3,115.1,645.4,114.6,644z M118.8,660.9c-0.3-1.3-0.6-2.9-0.9-4.5l39.1-20.6l2,3.3L118.8,660.9z M201.7,643.5
			l-19.5,11.3l-10.6-8.2l-28.3-46.5l33.3-17.2c0.1,1,0.2,1.9,0.3,2.8c0.4,4.3,0.9,8.5,2.4,11.4c5.1,9.6,24.9,26.9,33.1,33.9
			L201.7,643.5z M231,730.6l-7.1-3.2l17.6-30.9l4.7,1.3L231,730.6z M243.4,674.4l-31.6-27.7l4.6-6c5.1,1.3,11.4,2.7,16.5,2.7
			c2.9,0,5.4-0.5,6.9-1.6c1.4-1.1,2.2-2.6,2.2-4.3c0-4.6-2.5-20.9-2.8-22.8l-6.9,1.1c0.7,4.4,2.4,16,2.7,20.6
			c-2.3,0.4-7.8-0.3-13.9-1.7l3.8-5l-3.3-2.8c-8-6.6-29.8-25.6-34.2-34c-0.8-1.4-1.1-5.1-1.4-8.1c-0.2-2.2-0.4-4.3-0.8-6.2l67.3-42
			l15.2-3.3l4.8,57.3l-25.1,1.4l0.4,7l25.2-1.4l0.9,11.3L243.4,674.4z M295.5,777.4l-16-8.7l4.6-10.4l16.7,8.8L295.5,777.4z
			 M523,88.2c-6.4,1.7-14.3,3.8-17.8,2.8c-5.7-1.6-18.6-11.9-27.6-19.8l9.9-13.8l35.8,30.7C523.2,88.1,523.1,88.2,523,88.2z
			 M547.1,85.5c-4.5-1.3-9.8-0.7-15.5,0.6l-22.8-19.5l9.3-12l54.3,40.6l0.3,10.1C564.6,97,554.2,87.5,547.1,85.5z M574.3,87.8
			l-26.2-19.6l6.3-8l26.1,20.3L574.3,87.8z M558.8,54.8l9.2-11.6l26.6,21l-9.5,11L558.8,54.8z M580.5,113.5
			c-0.2-0.2-0.3-0.4-0.5-0.5l-0.7-20.2l6.8-7.9l16.1,12.5L580.5,113.5z M607.9,93l-17.3-13.5l9.5-11l19.8,15.6L607.9,93z
			 M604.6,63.2l7.8-9.1l24.3,17.4l-11.1,8.2L604.6,63.2z M678.7,73.4c-1.4,1.8-3,3.9-4.7,6.1c-10.5,13.5-25.3,32.5-32.7,48.7
			L618.7,100l36.3-27l11.7-15.5l15.8,11.3C681,70.5,679.8,72.1,678.7,73.4z M719.1,28.3c-10.2,10.8-23,24.5-32.1,35.1l-16.1-11.6
			l17.8-23.5H719.1z M673.7,28.3l-27.3,36l-3.8,2.8l-9.9-7.1l26.5-31.7H673.7z M650.1,28.3L627,56l-10-7.2l17.6-20.5H650.1z
			 M625.3,28.3l-14.1,16.4l-11.6-8.3l-0.4-8H625.3z M592.3,28.3l0.5,11.8l13.9,9.9l-7.6,8.8l-38.8-30.5H592.3z M538.3,28.3h10.7
			l13.4,10.5l-9.2,11.6l-20-15.5L538.3,28.3z M548.9,56l-6.4,8.1L522.4,49l6.6-8.5L548.9,56z M508.5,28.3h4.9l10.1,7.8l-6.7,8.6
			L503.7,35L508.5,28.3z M512.5,50.3l-9,11.6l-11.9-10.3l8-11L512.5,50.3z M280,293.7l23.8,1.9l-5.7,23.5l-15.2-1.8
			C282,308.6,281,300.4,280,293.7z M283.6,324.5l45.7,5.5c-6.6,3.3-12.3,6.6-16.9,9.9c-6.3,4.6-17.6,16.4-25.9,25.4
			C286,354.1,285,339,283.6,324.5z M458.5,367.7l2.1,3l-17.7,12.2l-3.8-5.3l14.1-10L458.5,367.7z M501.6,534l36.1-2.7l0.8,13.2
			l-0.4,1.2l-36.1,1.2C502.2,543.1,502,538.5,501.6,534z M447.2,556.9l3.2,4L433,573.2l-18.3,1.4c-0.8-2.2-1.5-4.3-2.2-6.4
			L447.2,556.9z M410.2,561.5c-1-3-2-5.8-2.8-8.5l29.9-8.6l5.2,6.5L410.2,561.5z M415.1,410.5l5.6,7.9l-18.2,12.4L397,423
			L415.1,410.5z M393,417.3l-3.3-4.6l17.9-12.6l3.5,4.9L393,417.3z M518.1,399.6l11.7-5.6l3.9,68.3l-23.9-34l10.7-7.2L518.1,399.6z
			 M534.3,472.5l2,35.2l-35.6,1.2l5.1-19.3L534.3,472.5z M498.2,461l17.5-12.2l12.1,17.1l-18.2,11L498.2,461z M511.6,443.1
			l-17.5,12.2l-7.9-11.1l17.7-11.9L511.6,443.1z M481.1,436.8l-7.1-10l17.8-11.9l7,10L481.1,436.8z M478.8,449.2l8,11.3L470,472.1
			l-8.2-11.5L478.8,449.2z M456.6,453.2l-7.2-10l17.1-11.4l7.1,10L456.6,453.2z M445.4,437.5l-10.3-14.4l17-11.6l10.3,14.6
			L445.4,437.5z M428.1,413.3l-5.6-7.9l17-11.7l5.6,8L428.1,413.3z M418.4,399.7l-3.5-5l16.9-12l3.7,5.2L418.4,399.7z M427.7,428.2
			l10.2,14.3l-18.5,12.3l-10-14.2L427.7,428.2z M441.9,448.2l7.2,10.1l-18.5,12.4l-7.1-10.2L441.9,448.2z M454.3,465.6l8.3,11.7
			l-18.4,12.9l-8.5-12.1L454.3,465.6z M466.7,483l4.3,6L452.6,502l-4.3-6.2L466.7,483z M476.2,496.2l5.3,7.5l-18,13.9l-5.8-8.2
			L476.2,496.2z M471.9,529.4l-4.3-6l18-13.9l4.1,5.8L471.9,529.4z M491.4,522.8c0.3,2.6,0.7,5.3,0.9,8.1l-12.9,9.2l-3.5-5
			L491.4,522.8z M473.7,544.2L456,556.8l-2.9-3.6l17.2-13.7L473.7,544.2z M466.4,533.7l-17.6,14l-4.9-6.1l18.1-14L466.4,533.7z
			 M492.9,539c0.2,4.6,0.2,8.4-0.3,10.6c-0.4,1.5-2.8,4.5-4.7,6.9c-3.4,4.2-6.8,8.6-7.1,13.1l-34.4,2.6L492.9,539z M492.8,504
			l-18.7-26.2l16.7-11.7l10.9,15.4l-3.6,2.2L492.8,504z M536.7,514.6l0.6,9.7l-36.4,2.7c-0.5-4.6-1.1-8.6-1.5-11.1L536.7,514.6z
			 M539.6,571.1l27.3-1.6l2.9,12l-35.8,8L539.6,571.1z M545.3,507.3l-1.8-31.8l12.9-1l1.6,32.4L545.3,507.3z M558.3,513.9l1.2,24.7
			l0,0.4l0,0.2l-12.2,4.2l-1.7-29.1L558.3,513.9z M543.1,468.5l-1.3-21.6l13.1-0.3l1,20.9L543.1,468.5z M541.4,439.9l-2.8-47.6
			l13.6,0.2l2.3,47.1L541.4,439.9z M541.8,563.9l3.9-12.5l15.5-5.4l4,16.5L541.8,563.9z M561.3,392.7l22.6,0.4l0.9,16.7l-22.7,1
			L561.3,392.7z M531.7,383.1l-14.7,7c0,0-4.9-6.3-9.5-12.6l75.4-4.3l0.6,10.8L531.7,383.1z M499,366c-2.5-3.4-5.1-7-7.8-10.5
			l15.5-7l60.1-1.5l0.9,15.2L499,366z M493.2,383.5c5.8,7.9,14.4,20.4,14.5,20.5l3.1,12.8l-6.3,4.2L483,390.4L493.2,383.5z
			 M487.7,409.2l-17.8,11.9l-10.4-14.7l17.7-12.1L487.7,409.2z M452.6,396.6l-5.7-8l17.7-12.2l5.7,8.1L452.6,396.6z M435.1,371.9
			l-12.6-17.8l10.4-7.7l13.3,17.5L435.1,371.9z M427.7,377.1l-16.9,12l-12.3-17.2l16.7-12.4L427.7,377.1z M403.5,394.3l-17.8,12.6
			l-2.3-3.3l2.3-1.4l2-22.4l3.6-2.7L403.5,394.3z M382.7,368.7c-7-7.5-22.6-24.2-32.1-35.5c2.7-1.2,5.4-2.4,8.1-3.6
			c1.8-0.8,3.6-1.6,5.4-2.4l27.6,34.9L382.7,368.7z M374.5,377.4c0.5,0.5,0.9,1,1.3,1.4l-1.3,13.9l-77-21.6
			c4.2-4.5,8.6-9.1,12.7-13.1L374.5,377.4z M316,352.4c1.3-1.2,2.5-2.2,3.5-2.9c4.8-3.6,11.9-7.3,19.8-11.1
			c6.7,8.2,17.3,19.8,25.6,28.9L316,352.4z M345.1,391.7l23.6,6.6l-30.5,18L345.1,391.7z M333.2,408.4l-9.3-2.5l5.6-18.6l9,2.5
			L333.2,408.4z M322.6,385.4l-5.6,18.7l-8.5-2.2l6.4-18.7L322.6,385.4z M308.2,381.3l-8.7,25.4l31.8,8.4l-1.8,6.4l-6.6,3.9l-37.2,2
			c0.4-11.7,1-30.4,1.1-44.6c1.5-1.7,3.3-3.7,5.4-6L308.2,381.3z M326.5,437.2l50.9-30l2.6,3.7l-63.2,44.7l-12.6-17.2L326.5,437.2z
			 M353.8,318.6c-3.6,1.6-7.2,3.2-10.7,4.8c-5.1-7.2-10.7-16.1-16.3-25.9l60.5,4.9C378.3,307.6,365.9,313.2,353.8,318.6z
			 M360.2,293.1l1.2-7.5c3.3-0.5,8.5-1.3,13.8-2.5c3.5,4.1,7.2,8.5,10.2,12.1L360.2,293.1z M357.8,279l-2.6,0.3l-2,13.2l-30.6-2.5
			c-1.6-3-3.3-6-4.8-9.1c6.9-2.4,19.4-7.2,22.9-12.3c2.3-3.3,2.6-11.1,2.5-16.1c2,0.5,3.6,1.1,4.8,1.7c4.1,2.1,10.2,9.2,14.6,14.3
			c1.4,1.7,2.8,3.2,3.9,4.5c0.9,1,2.1,2.4,3.5,3.9C365.6,277.9,361.2,278.6,357.8,279z M362.7,258.3c-3.9-4.2-8-8.3-11.6-10.1
			c-6-3.1-20.6-5-29.8-5.9l-9.1-26c20,3.5,46.4,8.6,57.8,12.8c2.5,0.9,6.4,2.9,10.6,5.2l-2.8,11.8L362.7,258.3z M313.7,241.5
			c-0.1,0-0.1,0-0.2,0l-9.9,9.5c-5.9-14.2-10.3-27.6-11.9-38.3c3.1,0.5,7.5,1.2,12.6,2.1L313.7,241.5z M316.3,248.9
			c5.2,0.4,12.4,1.1,19.8,2.3c0.2,6.1-0.3,12.2-1.2,13.5c-2,2.9-12.3,7.3-20.4,10c-2.7-5.5-5.4-11-7.8-16.5L316.3,248.9z
			 M312.4,296.3c5.4,9.8,10.9,18.9,15.8,26.4l-23.1-2.8l5.8-23.8L312.4,296.3z M287.3,460.5c-1.3-2.4-2-12.5-2-21l10.5-0.6
			l19.4,26.4l68.8-48.7l3.2,4.6l-82.3,56.6C296.7,471.2,289.5,464.6,287.3,460.5z M349.9,476.7l-26.3,14.9c-4-2.7-8.5-5.9-12.9-9.3
			l80.5-55.3l5.5,7.8l-51.8,35.3L349.9,476.7z M362.1,472.9l41.6-28.3l9.9,14.1l-41.4,27.6L362.1,472.9z M376.4,511.3l-0.5-19.1
			l41.6-27.8l7.2,10.2l-8.9,6l-9.3,18.3l-26,16.3L376.4,511.3z M387.4,521.4l26-16.3l9.4-18.4l7.1-4.8l17,24.1l-19,13.5l-31,10.6
			L387.4,521.4z M402.4,537.9l29.7-10.2l20-14.3l5.9,8.4l-19.4,14.9l-33.5,9.6C404,542.7,403,539.7,402.4,537.9z M323.6,771.5
			l-13.4-7.2l55.5-104.9l-0.2-0.1l17.7-6.9l1.6,4.8L323.6,771.5z M387.4,643.1l-14.8-44.3L406,586c4.8,13.2,9.8,26.4,14.1,35.3
			c1.1,2.3,2.8,4.6,5,7L387.4,643.1z M490.6,634.4c-2.2,2.3-6.2,6.6-7.8,7c-12.1,2.6-46.5-14.2-51.8-25.2
			c-4.1-8.6-9.1-21.6-13.8-34.7l64.3-4.8c2.2,16,10.4,43.3,13.5,53.3C493.5,631.3,492,632.8,490.6,634.4z M502.7,624.8
			c-1.5-4.9-3.6-12.2-5.8-20l27.3-6.1l5.4,19.3C519.3,619.7,509.9,621.7,502.7,624.8z M523.8,591.7l-28.6,6.4
			c-2.1-8-3.9-16.1-4.8-22.2l39.6-4L523.8,591.7z M490.3,568.9c1-2,3.3-4.9,4.7-6.7c2.3-2.8,4.4-5.6,5.6-8.3l35.3-1.2l-3.7,11.9
			L490.3,568.9z M543.9,616c-1.8,0.2-3.6,0.5-5.3,0.7l-5.5-19.9l38.2-8.5l4.7,22.1C566.6,612.8,555.1,614.4,543.9,616z M574,560.5
			l-4.2-17.5l66-23.3c-1.3,5.8-2.7,11.9-4.1,17.1L574,560.5z M628.9,545.5c-0.4,1.2-0.9,2.2-1.3,3c-5.9,12-11.7,22.4-17,31l-8.6-23
			L628.9,545.5z M575.6,567.4l19.9-8.2l3.4,9.1l-20.7,10.1L575.6,567.4z M584.5,607.5l-4.6-22l21.6-10.6l4.5,11.9
			c-5.8,8.5-11,14.4-15.3,17.5C588.9,605.5,586.8,606.6,584.5,607.5z M693.7,623.4c-2.5,1.7-8.9,1.5-14.6,1.3
			c-7.7-0.3-14.9-0.6-19.3,2.8c-3.6,2.8-4.7,8.5-5.9,14.6c-0.6,3.3-1.9,10.1-3.5,10.6c-2.4,0.7-8.4-5-11.9-8.3
			c-3.6-3.4-7-6.6-10.1-8c-2.3-1-5.4-1.5-8.7-2.1c-2.7-0.5-5.8-1-7.2-1.6c-4.5-2-14.7-9.7-21.4-14.8c2.3-1.1,4.5-2.2,6.4-3.5
			c11.2-7.8,25-28.1,40.9-60.3c0.2-0.5,0.5-1,0.7-1.6c6.3,4.5,23.4,16.9,28.5,22.7c1.9,2.3,4.2,6.8,6.4,11.1
			c2.2,4.5,4.4,8.8,6.5,11.5c3.5,4.4,13.9,13.5,18.7,17.6C697.5,618.9,695.5,622.2,693.7,623.4z M648.3,518.6
			c4.1,5.4,10.2,12.8,13.8,15.6c2.5,2,6.5,3.4,10.6,5c4.1,1.5,8.8,3.3,10.5,5.1c4.2,4.6,11.2,29.7,11.7,31.4c0.4,1.5,1,3.2,1.7,5.1
			c2.5,7.6,6.4,19.2,5.7,25c-0.1,0.7-0.3,1.5-0.5,2.4c-5.5-4.8-13.2-11.7-15.8-14.9c-1.7-2.2-3.8-6.3-5.8-10.3
			c-2.4-4.8-4.8-9.7-7.3-12.6c-6.1-7.1-26.8-21.8-31.3-25C644.1,537.5,646.5,527.2,648.3,518.6z M639.2,502.7c-0.5,2.5-1,5.6-1.7,9
			l-69.1,24.4l-0.5-9.6l70.7-24.7L639.2,502.7z M635,495.7l-67.4,23.5l-2.3-46l16.6-1l-0.5-11.5l31.3-1.9L635,495.7z M599.7,436.5
			l8.9,15.6l-34.5,2.1l0.5,11.5l-9.7,0.6l-2.4-48.5l22.7-1l1,17.8L599.7,436.5z M591,320.7l-0.7-10.9l20.2-0.2l0.6,10.6L591,320.7z
			 M611.5,327.2l0.5,9.6l-20,0.5l-0.6-9.6L611.5,327.2z M629,358.7l-35.4,2l-0.9-14.4l46.7-1.2C635.1,350.8,631.1,355.9,629,358.7z
			 M617.1,302.5l-1.4-24l25.8-1.3l1,25.1L617.1,302.5z M642.8,309.3l0.4,10.1l-25.1,0.6l-0.6-10.5L642.8,309.3z M615.3,271.5
			l-1.6-28.6l26.4-1.3l1.1,28.6L615.3,271.5z M619,336.6l-0.5-9.6l24.9-0.6l0.4,9.6L619,336.6z M677.5,241.9l-0.2,1.3
			c-1.2,10.1-4.6,26.3-8.9,42.1l-3.3-45l12.6-0.6C677.6,240.6,677.5,241.3,677.5,241.9z M677.2,213.2c1.9,3,1.9,10.5,1.4,17.4
			l-14.2,0.7l-2-27.8C669.2,206.8,675.4,210.5,677.2,213.2z M662.8,303.9c-2.4,6.9-4.9,13.1-7.3,17.8c-1.1,2.1-2.8,4.8-4.9,7.9
			l-2.1-52.8l12.2-0.6L662.8,303.9z M660.2,269.2l-12,0.6l-1.1-28.5l11-0.6L660.2,269.2z M616.9,198.1c6.2-1.6,24-0.6,33.2,0.1
			c1.6,0.6,3.3,1.3,5.1,2l2.3,31.5l-70.3,3.5l-0.7-19.7C594.8,209.9,610.4,199.9,616.9,198.1z M606.7,243.3l3.4,59.3l-20.3,0.2
			l-3.8-58.5L606.7,243.3z M586.6,361.1l-11.9,0.7l-0.9-15l11.9-0.3L586.6,361.1z M585.1,337.5l-11.8,0.3l-0.6-9.6l11.7-0.3
			L585.1,337.5z M583.3,309.9l0.7,11l-11.7,0.3l-0.7-11.2L583.3,309.9z M582.8,302.9l-11.6,0.1l-1.6-27.1l10.1-20.1L582.8,302.9z
			 M502.6,222.3c-0.5-1.7-0.6-5-0.7-7.9c-0.1-3.1-0.3-6-0.7-8.2c-0.5-2.4-2.1-5.2-3.8-8.2c-1.4-2.5-4.2-7.5-4-9.2
			c1.4-0.6,6-0.3,8.9,0.5c2.2,0.6,5.8,3.7,8.9,6.4c3.2,2.8,6.3,5.4,9.1,6.7c7.9,3.5,24.2,5.9,29.8,6.5c5.2,0.6,17.3,0.5,24.2,0.4
			l1,28.7l-15.4,30.4l-43.6,2.3l0.4,7.8h-5.4c0.7-7.9,2.2-28.8,0.4-37c-0.7-3.2-2.8-7-5.1-11C504.9,227.5,503.2,224.3,502.6,222.3z
			 M556.5,301.8l6.8-13.5l2,33.1l-31.6,0.8l-0.8-8.1L556.5,301.8z M526.8,303.7l-1.1-24.4l29.5-1.6l-7.7,15.2L526.8,303.7z
			 M517,285.5l1.1,22.6l-16.3,0.6l-1.1-23.1H517z M521.6,319.9l4.6-2.4l1.1,11.8l38.4-1l0.6,9.6l-61.6,1.6l-18.9,8.5
			c-7.1-9.6-13.7-18.5-17.7-23.9c-0.5-0.7-1.1-1.5-1.7-2.3L521.6,319.9z M456,333.2c6.3,8.4,19.3,26,30.1,40.6l-10,6.8l-13.6-19.3
			l-10.8-1.8l-13.1-17.2l15.6-11.5C454.8,331.6,455.4,332.4,456,333.2z M443.9,317.8c1,1.2,1.9,2.4,2.8,3.5l-49.4,36.6l-26.6-33.7
			c11.5-5.3,22.4-10.7,29.6-16c5.1-3.8,14.4-13.6,20.6-20.5C427.2,296.8,435.9,307.8,443.9,317.8z M432.6,231.5h20.9l8.7,43.3
			l-29,4.2c-1.5-2.2-2.9-4.3-4-6.2c-3.8-6.5-8.4-17.3-12.9-28.2L432.6,231.5z M403.7,253.6c3.6,8.6,7.2,17,10.6,23.4
			c-5.3,5.9-13.1,14.3-18.2,19l-0.9-0.1c-2.5-2.9-7.5-9-12.5-14.9c4.2-1.3,7.8-2.9,9.9-4.7C396.9,272.6,401,262,403.7,253.6z
			 M387.9,271.1c-1.7,1.5-5.6,2.9-10.3,4.1c-2.4-2.8-4.6-5.2-6.1-6.9c-1-1.1-2.4-2.7-3.8-4.3c-0.2-0.2-0.3-0.4-0.5-0.6l16.8-13.6
			l2.9-12.2c5.4,3.1,10.3,6,12,7.1C396.2,254.7,391.6,267.9,387.9,271.1z M378.6,204.1c4.4,6.4,8.5,12.4,10.8,16.7
			c1.9,3.6,4.1,8.5,6.5,13.9c-7.3-4.3-18.1-10.4-23.4-12.3c-17.8-6.5-67.5-14.7-81.2-16.9c0.5-16.5,24.4-91,24.4-91
			c3.2,7.4,7.6,17.2,10.4,21.5c2.4,3.8,7,8.8,11.4,13.6c2.8,3,5.4,5.9,7,8c5.2,6.6,19.7,27.4,19.9,27.6
			C364.4,185.3,373.9,197.3,378.6,204.1z M279.2,207.8l-22.2,3.8c-1.2-4.3-2.3-8.3-3.2-11.7c-1.1-4.4-2.4-9.5-3.8-14.9l33.4-6.6
			C280.9,189.6,279.1,200.3,279.2,207.8z M281.2,221.8l-15.1,19.9c-0.6-2.1-1.3-4.1-1.9-6.2c-1.8-5.9-3.6-11.7-5.2-17.1l20.9-3.6
			C280.2,217,280.7,219.4,281.2,221.8z M248.3,178.2c-5-19.4-11.2-44-15.2-65.1l21.2-13.9l16.3,42L280,172L248.3,178.2z M277.4,139
			l-17-43.8l9.8-6.4l26.6,42c-2,6-6.7,21-10.7,36.8L277.4,139z M308.4,100.6l-6.1,16.5l-22.1-34.8l10.6-7L308.4,100.6z M296.6,71.4
			l19.6-12.9c7,8.7,13.7,17.3,18.3,24.4l-20.5,13.8L296.6,71.4z M276.4,76.3l-18.9-29.9l13-0.5l16.3,23.6L276.4,76.3z M358.2,164.4
			c-3.2-4.4-6.3-8.7-8.2-11.1c-1.8-2.3-4.5-5.2-7.4-8.4c-4-4.4-8.6-9.3-10.7-12.6c-3.1-4.8-8.9-18.2-11.9-25.2l20.4-13.7
			c4.4,10.3,7.8,26.6,11.1,42.5C353.8,146.1,355.9,155.9,358.2,164.4z M371.4,28.3l-4.9,33.2l-19.4,13
			c-9.2-13.8-24.6-32.4-36.4-46.2H371.4z M311.8,53.1l-19.2,12.6l-13.9-20l26-1C307.1,47.3,309.5,50.2,311.8,53.1z M290.8,28.3
			c2.4,2.7,5.2,5.9,8.2,9.5l-45.8,1.8L246,28.3H290.8z M235,33.4l31.3,49.5l-34.6,22.7c-1.3-8-2.2-15.2-2.5-21.2
			C228.9,73.9,232.6,48.9,235,33.4z M177.9,52.4l-12-24h57.8c-0.7,4.2-1.5,9.4-2.4,15L177.9,52.4z M201.4,117.2
			c3.7-10.4,7.1-20.3,5.3-27.7c-2.1-8.6-16-23.4-23.6-31.1l37.2-7.7c-1.8,13-3.3,26.6-3,34.2c0.5,11,2.9,25.4,6.1,40.8l-26.7,6.4
			C197.8,127.6,199.6,122.3,201.4,117.2z M207.3,152.2c-1.2-2-3.5-3.8-5.9-5.7c-1.8-1.4-4.7-3.7-5-4.8c-0.2-0.6-0.3-1.3-0.4-2.1
			l28.9-7c3.6,16.2,7.8,33.1,11.6,47.9l-18.5,3.7C216.1,176.8,211.3,158.7,207.3,152.2z M230.4,292.6c-4.4-10.5-14.5-36.4-14.3-45.8
			c0.1-3.4,3.1-8.8,6-14.1c4.3-7.8,8.7-15.9,6.9-22.3c-1.7-6-11.9-13-19.4-17.4l28.6-5.6c1.4,5.6,2.8,11,3.9,15.5
			c2.3,9.5,6.3,22.5,10.6,36.2c6,19.5,12.2,39.7,14.7,52.8c1.3,6.8,2.5,16.2,3.5,26.4C262.2,312.4,247.3,302.9,230.4,292.6z
			 M268.7,249.9l14.8-19.5c5.3,18.3,14.8,39.5,25,58.6l-29.8-2.4C276.5,276.5,272.8,263.5,268.7,249.9z M274.7,390.8
			c-0.2,12.5-0.6,26.7-1,36.2c-6.9-0.2-20.6-0.6-37.1-0.7l-1.9-32.1L274.7,390.8z M228.6,409.3l1,17c-11.7,0-24.4,0.2-36.9,0.8
			c-3.5-5.9-8.3-11.6-12.8-16L228.6,409.3z M145.8,446.8c35.5-7.3,108.9-5.4,127.5-4.8c0,3.7,0.2,8.8,0.8,13.5l-128.3,8.1V446.8z
			 M145.8,485.2v-12.7l39-2.5l1.4,15.6L139,498.1l-2-4.4L145.8,485.2z"/>
		<path class="st1" d="M721,352.1c7.2,0.5,31.8,2.2,42.4,4.8l-0.2,10.7l-51-2.4L721,352.1z M701.8,380.9l6-8.9l55.4,2.6l-0.1,7.6
			l-36.8-0.5l-9.1,9.6C711.9,387.8,706.8,384.4,701.8,380.9z M723.1,395.2l6.2-6.4l33.7,0.4l-0.1,9.1l-13.4-1.2l-9,9.2
			C734.7,402.7,728.9,399,723.1,395.2z M822,412.7c-14.2,11.1-29,19.3-33.2,18.2c-10-2.6-25.4-10.6-42.3-20.8l5.5-5.6l19.4,1.7
			l50.5-19.8V412.7z M822,378.7l-51.6,20.2l-0.7-0.1l0.6-38.9c1.2,0.7,2.5,1.5,3.7,2.3c5.5,3.5,11.2,7.2,16.1,7.2c0,0,0,0,0,0
			c7.8,0,22.4-8.1,31.8-14V378.7z"/>
		<path class="st1" d="M106.5,453.2c7.9-7.2,16-14.7,23.6-17.5c10.2-3.8,26.7-6.1,45-7.5c-3.9-4.9-8.7-9.6-12.6-12.2
			c-13.2-8.9-49-16.2-66.7-16.7c-11.1-0.3-37,5.1-57.1,9.9c1.8,2.1,3.3,4.4,4.9,6.6c2.3,3.2,2.3,3.2,6.4,1.9
			c5.7-1.9,6.4-1.5,10.3,3.2c3.8,4.6,6.2,10.6,12.6,12.9c1.1,0.4,2.4,2.8,2.1,3.7c-0.6,1.5-1.7,3.4-4.3,2.8
			c-1.1-0.3-2.8,0.5-3.9,1.3c-4.8,3.7-9.4,7.7-14.1,11.5c-1.6,1.3-1.7,2.5-0.5,4c2.2,2.8,4.3,5.6,6.4,8.4c2.3,3.1,4.8,6.1,6.8,9.3
			c10.7-3,20.1-6,25.3-8.6C94.7,463.9,100.7,458.4,106.5,453.2z"/>
		<path class="st1" d="M823,200.9c-4.7-1-9.4-1.9-14.1-2.8c-2.9-0.6-2-2.4-1.7-4c1.2-5.6,2.6-11.2,3.9-16.8c0.4-1.5,0.6-3.1,0.9-4.6
			c-1.5-0.5-3-0.7-4.2-1.4c-3.1-1.7-3.7-3.6-2.6-7c0.9-2.5,0.7-2.7-2.1-3.1c-0.7-0.1-1.7-0.6-2.1-1.2c-1.5-2.3-3.4-2.7-6.1-3.4
			c-3.8-1-7.3-3.8-10.8-5.9c-0.3-0.2-0.2-1.5,0.1-2.1c0.8-1.6,1.8-3,2.7-4.5c0.6,0.3,1.1,0.4,1.5,0.7c3.7,2.1,3.6,2,5.6-1.4
			c4.7-8.2,9.5-16.3,14.1-24.5c4.9-8.6,9.8-17.2,14.6-25.8V200.9z"/>
		<path class="st1" d="M739.9,28.3c-12.8,13.4-39.9,42-49.2,54.2c-1.4,1.9-3,3.9-4.8,6.2c-11.5,14.9-30.9,39.7-33.8,54.1
			c-0.8,3.9,0.1,12,1.8,21.2c2.9-0.1,5.8-0.3,8.7-0.5c3.7-0.2,6.9-1.1,8.7-4.9c0.8-1.7,2.2-2.8,4.5-2.8c8.5-0.1,17-0.5,25.5-0.8
			c1.4-0.1,2.6,0.2,2.5,2c-0.1,2.5,1.5,2.8,3.5,2.8c1.3,0,2.6,0,3.9,0c4.2-0.1,4.6-0.6,4.5-4.7c-0.6-14.1-1.1-28.2-1.6-42.3
			c-0.2-6.4,0-6.4-6.2-6.5c-3.4-0.1-3.6-0.1-3.4-3.5c0.3-7.3-0.2-14.5,2.5-21.7c1.1-2.9,1.7-4.9,5-5.2c1.9-0.2,1.8-1.8,2.1-3.2
			c0.5-2.3,1-4.8,2.3-6.6c5.6-7.8,11.7-15.2,18.9-21.6c1.2-1,2-1.2,3.2-0.1c3,2.7,6.1,5.3,8.9,7.7c-3.1,4.2-6.3,7.9-8.7,12
			c-2,3.6-3.1,7.7-4.6,11.6c-3.3,8.3-7.4,16.4-3.4,25.7c0.6,1.3,0.7,2.8,1,4.2c0.6,2.7,1.2,5.3,3.4,7.2c4.3,3.8,8.5,7.7,12.8,11.5
			c0.4,0.3,1.5,0.2,2-0.1c1-0.7,1.9-1.7,2.8-2.7c6-6.9,11.8-13.9,17.8-20.7c9.9-11.3,20-22.5,30-33.8c7.1-8,14.3-15.9,21.5-23.9
			V28.3H739.9z"/>
		<path class="st1" d="M666.8,341.4c0.4-6.6,1.9-9,8.2-9.1c2.5-0.1,3.7-1.4,4.2-3.7c0.9-4.1,1.9-8.1,2.9-12.1
			c5.8-23.7,11.5-47.5,17.3-71.2c0.9-3.6,0.9-0.3,4.4-0.1c0.8,0,1.5-0.4,2.3-0.6c2.2-0.7,4.5-2.3,6.4-2c11.4,2.2,22.8,4.7,34.2,7.3
			c3.5,0.8,5,2.7,5.2,5.8c0.3,5.2,4.2,6.8,9.3,8c5,1.2,9.9,2.4,15,3.3c1.8,0.3,3.7-0.2,5.5-0.5c0.5-0.1,1.2-1.1,1.1-1.3
			c-0.6-1.5-1.3-3-2.4-4.1c-0.5-0.5-2-0.3-2.9,0c-3.1,0.9-3.8,0.7-5.5-2c-1.6-2.5-1.2-8.4,0.8-10.4c0.4-0.4,1.5-0.4,2.1-0.2
			c0.8,0.3,1.6,0.9,1.9,1.7c0.3,0.8,0.1,1.9,0.1,2.9c0.1,3.1,1.7,5,4,5c2.1,0,4.2-2.3,4.2-4.8c0.1-4.2-0.1-8.4,0-12.5
			c0.1-2.9-1.4-4.7-3.8-5.5c-6.9-2.5-13.8-5.2-21.4-4.4c-2.4,0.2-3.8,1-4.8,3.2c-1.3,2.8-2.8,5.4-4.3,8.1c-0.9,1.8-2.2,2.5-4.3,2.1
			c-13.6-2.9-27.2-5.7-40.8-8.5c-1.6-0.3-2.5-1.1-2.6-2.9c-0.6-9.1-1.2-18.2-2-27.3c-0.1-1.5-0.2-3.3-1-4.5
			c-1.7-2.5-3.8-4.7-5.7-7.1c-1.3-1.7-2.8-2.7-4.9-1.2c-1.5,1.1-2.7,0.4-4-0.3c-1.7-0.9-3.4-1.9-5-2.8c-3.6-2.1-7.2-3.9-11.6-4.1
			c-4.5-0.2-8.5-2.1-11.9-5.2c-0.1-0.1-0.2-0.1-0.3-0.2c0.8,3.3,1.6,6.4,2.3,9.4c9,3.7,23.3,10.5,27.9,17.7c5.1,8,3.8,23.1,2.1,36.7
			l-0.2,1.3c-2.5,20.5-12.8,62.9-23.1,82.6c-2.5,4.7-7.5,12-12.7,19.1c2,1.5,4.8,3.5,8.1,5.9c1.1-1.6,2.2-3.1,3.3-4.7
			C666.1,345.7,666.6,343.8,666.8,341.4z"/>
		<path class="st1" d="M788.1,351.8c-4.2-1-8.3-2.5-12.4-4c-3.3-1.2-4.4-4.4-6-7.2c-1.4-2.3-4.2-3.5-5.5-1.8
			c-3,3.8-6.3,4.3-10.6,2.6c-2.1-0.8-5.4,0.2-6.7-1.1c-1.3-1.4-0.9-4.5-1-6.9c-0.1-2.1-1.1-2.8-3.1-2.6c-3,0.3-6.1,0.7-9.1,0.7
			c-2.2,0-2.8,0.7-3,3c-0.4,4.7-4.7,6.6-9,4.5c-1-0.5-2.1-0.8-3.2-0.7c-8.4,0.6-16.9,1.3-25.3,2c-4.6,0.4-9.2,1.2-13.8,1.6
			c-2,0.2-3.3,1.1-4.3,2.7c-2.4,4-4.9,8-7.3,12c7.8,5.7,17.6,12.7,28.3,20.1l21.4-32.1l2,0.1c1.5,0.1,36.2,2.2,47.8,5.6
			c3.2,0.9,6.8,3.3,10.6,5.8c4.2,2.7,9.5,6.1,12.4,6.1c0,0,0,0,0,0c6.1,0,21.1-8.4,31.8-15.3V335c-9.5,5.2-19,10.3-28.6,15.4
			C791.8,351.3,789.7,352.2,788.1,351.8z"/>
		<path class="st1" d="M245.6,497.9c-4.8,0.3-11.9,0.9-18.7,1.5l0.5,9.9l16.3,22.6l5.3-3.3l17.8-3.8l-1.5-18.2l10.9-9.9
			c-3.6,0-7.2,0.1-10.8,0.3C258.8,497.2,252.2,497.5,245.6,497.9z"/>
		<path class="st1" d="M280.7,490.7l10.8-8.5c-6.5-5.6-12.3-11.4-14.7-16.1c-0.3-0.5-0.5-1.1-0.7-1.7l-50.7,3.2l1.4,26.4
			c4.5-0.1,9-0.3,13.4-0.9C252.4,491.3,280.7,490.7,280.7,490.7z"/>
		<path class="st1" d="M179.3,517.9c-2.5-2.7-4.2-0.1-5.7,0.9c-6.6,4.5-13.1,9-19.6,13.6l6.5,14.4c3.1,3.2,15,15.4,20.7,23.8l8.1-5
			l-18-24.3l48.9-32.7l-0.5-8.7c-7.7,0.7-13.8,1.3-14.2,1.6C197.7,507.2,179.6,518.2,179.3,517.9z"/>
		<path class="st1" d="M176,502c4.9-0.9,9.9-1.3,14.9-2c2.1-0.3,3.6-1.2,3.6-3.7c0-0.6,0.6-1.8,1-1.8c3.2-0.4,6.8-1.6,9.4-0.4
			c2.9,1.3,5.5,1,8.3,0.9c2.2-0.1,4.3-0.5,6.5-0.7l-1.4-26.2l-26.4,1.7l1.9,21.3l-51.8,13.6l3.9,8.7c3.6-2.5,7.2-5.8,11-7
			C163.1,504.3,169.5,503.2,176,502z"/>
		<path class="st1" d="M550.5,194.6c-7.7-2-15.6-2.8-23.3-4.7c-2.9-0.7-6-4.2-8.7-5.5c-6.3-3-11.1-5.8-16.3-10.3
			c-1-0.9-1.7-4.4-2.1-4.8l-0.4,12.4c2.6,0.3,4.6,0.9,4.6,0.9c3.7,1.1,7.7,4.5,11.6,7.8c2.7,2.3,5.5,4.7,7.4,5.6
			c6,2.6,19.8,5.1,27.7,6c4.7,0.5,16.4,0.4,23.2,0.3l-0.4-6.5c-2.2,0.1-4.2,0.2-6.4,0.3C561.6,196.5,556,196,550.5,194.6z"/>
		<path class="st1" d="M443.9,128.7c-0.7-2-2.3-1.1-2.7,0.1c-1.1,2.7-1.8,5.4-2.5,8.2c-0.2,0.7,0.4,1.8,0.9,2.5
			c0.3,0.4,1.1,0.8,1.6,0.8c0.4,0,2.5-2.2,2.6-1.4c0.2,2.4-0.6,5.8-4.2,10.9c-2.4,3.3-4.5,6.8-6.9,10.1c-0.3-0.2-0.7-0.3-1.1-0.5
			c1-3.8,2.1-7.6,3-11.5c0.2-0.7-0.2-1.6-0.4-2.4c-0.7,0.5-1.8,1-2,1.6c-1.1,5.5-4.4,9.5-8.4,13c-1.5,1.3-2.1,2.7-1.6,4.7
			c0.9,3.7-1.6,6.4-3.1,9.3c-0.3,0.7-1.6,1.1-2.4,1.2c-0.5,0-0.9,0-1.4,0.1l19.3,49h18.1l-3.5-95.1c-0.8,0.1-1.5,0.3-2.3,0.4
			C445.6,130.1,444.6,130.6,443.9,128.7z"/>
		<path class="st1" d="M481.7,156.7c-0.6-0.7-0.8-1.7-1-2.6c-1.3-6.4-2.3-12.9-4-19.2c-1.4-5.3-1.1-11.2-4.7-15.9
			c-0.9-1.1-0.2-1.8,0.9-1.9c1-0.1,2.2-0.2,3.1,0.1c3.9,1.3,7.8,1.5,11.8,0.2c5.1-1.7,10.2-3.4,15.3-5c5.2-1.6,10.4-3.3,15.7-4.4
			c4.2-0.9,8.6-1.3,12.9-1.3c5.1,0.1,9.8,1.7,12.9,6.3c0.9,1.3,1.9,2.5,2.9,3.8c4.4,5.2,2.9,13.4-3.1,16.7
			c-6.3,3.4-12.6,7-18.9,10.4c-2.1,1.1-3,2.5-3,4.9c0,2.4-0.3,4.8-0.7,7.1c-0.7,4,0.8,7.3,4.5,9.2c1.3,0.7,2.7,1.1,4,1.6
			c9.2,3.2,18.4,6.4,27.6,9.6c2.3,0.8,4.7,1.4,4.3,4.8c-0.2,1.7,1,2.3,2.5,3c2.9,1.3,5.8,1.7,8.8,1.9l-2.2-64.7
			c-9.3-10.3-22.1-22.7-27.4-24.2c-3.5-1-11.5,1.1-17.8,2.8c-9,2.4-17.5,4.6-24.2,2.7c-11.3-3.2-32.4-22.3-36.5-26.1l-3.9-3.6
			l32.1-44.4h-65.8c1.8,7.4,2.5,14.9,2.2,22.5c-0.2,4,0.3,8-0.1,12c-0.7,7.6,1.6,14.4,4.6,21.2c2.9,6.4,7.3,11.6,11.6,16.9
			c2.2,2.7,4.6,5.3,6.9,8c0.8,1,1.7,2.1,1.9,3.3c1.2,5.4,1.4,16,1.1,16l3.6,99.1l10.7,53.3l-32.7,4.7c5.5,7.4,12.1,15.8,17.9,23
			c1.1,1.3,2.1,2.7,3.2,4l3.1-2.3l32.8-1.2l-1.4-30.4h10.9c0.8-9.4,2-28.8,0.6-35.5c-0.5-2.2-2.5-5.8-4.3-9.1
			c-2-3.6-3.9-6.9-4.6-9.7c-0.7-2.5-0.8-6-1-9.4c-0.1-2.7-0.2-5.4-0.6-7c-0.3-1.4-1.7-3.9-3.1-6.3c-3.3-5.9-6.7-12-3.7-16.6
			c1.1-1.7,2.9-2.5,5-3l0.5-12.9c-0.4-0.2-0.7-0.5-1-0.8C488.5,164.4,485.1,160.6,481.7,156.7z"/>
		<path class="st1" d="M390,158.3c-0.4-1.9-1.5-3.9-2.9-5.3c-3.9-3.9-3.7-9.4-5.5-14.1c-0.3-0.8,0.6-2.1,1.1-3.1
			c1.8-3.4,3.6-6.8,5.5-10.1c1.2-2.1,1.5-4.1,0.2-6.3c-4.8-8.2-4.6-17.2-3.9-26.1c0.3-3.7,1.8-7.5,3.1-11c2.7-7.1,4.4-14.3,3.5-22
			c-1.2-10.7,2.2-20.9,4.2-31.2c0.1-0.3,0.1-0.5,0.2-0.8h-12.1l-6,40.2l-24.4,16.4c5.6,11.8,9.5,30.1,13.2,47.9
			c3.2,15.2,6.5,31,10.5,40.2c2.5,5.7,8.7,14.7,14.1,22.7c4.6,6.7,9,13.1,11.6,18.1c3.3,6.1,6.9,14.8,10.8,24.1l14.3-11.5
			l-20.2-51.1c-2.4-0.4-4.9-1.1-7.2-2.6C392,167.7,392,167.9,390,158.3z"/>
		<path class="st1" d="M164.8,104.1c0.9-1.8,2-2.1,3.1-0.5c0.9,1.3,1.6,2.7,2.3,4.1c0.7,1.3,0.8,1.7,2.6,0.6
			c2.5-1.6,0.2,1.8,1.4,1.7c0,4.5-1.4,7.3-3.9,7.7c-1.8,0.3-4.4-2.9-5.5-6.3C164,109,163.6,106.6,164.8,104.1z M86.5,73.4
			c2.9-0.1,4.3-1.7,3.1-4.3c-1.4-3-0.7-5.5-0.2-8.6c0.7-3.9,0-8.1-0.4-12.1c-0.4-3.7,1.1-7,4.1-7.6c1.7-0.4,3.4-0.3,4.6,1.6
			c1.1,1.7,2.6,3.1,4.1,4.5c6.6,6.5,13.2,13,17,21.8c2.1,4.9,5.1,9,8.8,13c3.1,3.3,5.5,7.5,7.2,11.7c0.9,2.2-0.1,5.2-0.5,7.9
			c-0.4,3.5-1.2,6.9-1.6,10.4c-0.2,1.9-0.1,4.3-2.2,4.8c-1.4,0.3-3.4-0.6-4.7-1.5c-6-4.2-12-8.4-17.9-12.9c-2.8-2.1-5.4-2.4-8.2-0.4
			c-8.4,6.1-19.9-2.5-18.6-11.7c0.3-2.2,1-4.3,1.3-6.4c0.2-1.2,0.2-2.5-0.2-3.6c-0.7-2.1-1.8-4-3-6.7C82.1,73.4,84.3,73.5,86.5,73.4
			z M71.7,207.5c0.1-0.2,1.3-0.2,2-0.1c2.7,0.5,5.1,2.8,8.2,1.4c0.3-0.1,1.1,0.5,1.5,1c3.3,3.9,6.5,7.9,9.7,11.9
			c0.9,1.1,0.2,1.7-0.8,2.1c-0.7,0.3-1.5,0.4-2.2,0.6c-2.9-0.5-5.9-0.8-7-4.2c-0.9-2.6-2.6-4.6-5.3-5c-3.3-0.4-3.9-3.7-6.2-5.2
			C71.3,209.8,71.5,208.3,71.7,207.5z M48.8,316c1.7-1.5,2.9-1,4.6,0c2.7,1.6,4.5,3.5,4.5,7.8c-0.2,0.3-0.9,1.7-1.9,2.4
			c-0.5,0.3-2-0.4-2.8-1c-1.6-1-2.8-2.7-4.5-3.4c-1.9-0.8-2.1-2.1-2.3-3.7C46.1,316,48.1,316.8,48.8,316z"/>
		<path class="st1" d="M204.4,201.3c-2.8,1.9-5.4,4-8.2,5.8c-4.8,2.9-9.7,3.7-14.8,0.5c-4.5-2.8-9.2-5.2-13.7-7.9
			c-1.5-0.9-3.2-2-3.9-3.4c-2.8-6-6.8-11.2-11.3-16c-3.5-3.8-7.7-6.1-12.5-7.5c-2.2-0.7-3.6,0.2-4.6,2.3c-2.2,4.6-1.1,10.7,2.1,14.7
			c6.2,7.5,7.7,6.7,2.7,17.2c-0.3,0.6-0.3,1.4-0.7,1.8c-3.5,3-2.8,6.9-2,10.6c0.5,2.5,0.2,4.7-0.8,7c-3,6.9-9.1,10.5-14.8,14.5
			c-0.6,0.4-1.5,0.4-2.3,0.5c-4.3,0.6-8.5,1.4-12.8,1.9c-3.2,0.3-5.4,2-7,4.5c-0.6,0.9-0.9,2.1-1.3,3.1c-1.3,3.6-2.8,6.7-7.7,6.1
			c-1.9-0.3-3.7,0.7-4,3.2c-0.5,4.9-3.8,7.3-8.1,9.1c9.7,1.8,21.1,3.2,25.3,1.9c3.8-1.2,9.3-5.2,14.6-9.2
			c9.7-7.2,19.8-14.7,28.1-12.3c17.2,4.9,46.8,21.1,73.7,37.2c-4.6-11.8-11.5-30.9-11.3-40c0.1-5,3.4-11,6.9-17.3
			c3.3-6,7.3-13.4,6.3-17c-0.8-2.9-8.1-8.4-16.1-13.2C205.9,199.9,205.4,200.6,204.4,201.3z"/>
		<path class="st1" d="M187,88.3c3.1,2.6,3.9,6.1,3.7,9.8c-0.1,3-0.6,6.1-0.7,9.1c-0.3,4-0.8,4.7-4.9,4.3c-1.7-0.2-2.3,0.5-2.8,1.8
			c-1.2,3.3,0.5,5.9,1.8,8.6c0.7,1.5,1.7,3.7,1.1,4.7c-1.2,2.1-3,4.4-5.1,5.3c-6.1,2.8-9.2,8.6-7.3,15c0.3,1,1.1,1.9,1.7,2.8
			c1.1,1.8,2.3,3.7,3.4,5.5c1,1.8,1.7,3.9,3,5.3c1.8,1.9,4.3,3.2,6.2,5c3.7,3.6,7.3,7.2,11.8,9.9c1.2,0.7,2.4,2.2,2.7,3.5
			c0.7,2.6,1.4,5.2,2.1,7.8l7.6-1.5c-2.2-8.7-6.6-24.6-9.8-29.7c-0.6-1-2.6-2.6-4.3-3.9c-3.2-2.5-6.4-5.1-7.4-8.3
			c-2.3-7.6,1.3-17.9,5.2-28.9c3.2-9,6.4-18.3,5.1-23.7c-1.6-6.4-14.4-20.6-23.7-29.8l-4,3.7c4,6.6,8.2,13.2,12.3,19.7
			C185.2,86.1,186,87.4,187,88.3z"/>
		<path class="st1" d="M164.6,52c-4.1,1.1-7.9,3.5-11.8,1.3c-2.5-1.4-4.5-0.9-6.9-0.3c-1.8,0.4-2.4,1.4-2,3.1c0.8,3,1.2,6.2,3.6,8.7
			c1.6,1.6,3.6,3.6,2.8,6.3c-1.3,4.5-1.2,9.6-5.5,12.9c-1.4,1.1-2.8,3-1.7,5.1c1.9,3.7,4,7.3,6.3,10.8c1.3,1.9,3.3,1.7,4.8-0.1
			c1.7-2.2,3.3-4.4,1.5-7.4c-0.4-0.7-0.1-2.7,0-2.7c2.8-0.3,1.6-2.4,1.6-3.7c-0.1-4-0.6-8-0.6-12c-0.1-8.6,0-8.6,7.4-12.9
			c0.4-0.2,2.9-1.5,3.6-1.4l4-3.8l-13.8-27.6h-6.2C152.1,28.7,160.5,44.3,164.6,52z"/>
		<path class="st1" d="M96.2,384.2c17.3,0.5,57.1,7.4,74.6,19.3c0.4,0.3,0.8,0.6,1.2,0.9l56.1-2l-0.9-14.5l47.5-4.1
			c0.1-5.7,0-10.7-0.1-14.2c-0.4-10.7-1.4-26.8-2.9-42.4c-17.5-11.5-95.6-62.1-127-71c-5.1-1.4-14.5,5.6-22.1,11.2
			c-6.1,4.5-11.8,8.8-16.7,10.3c-6.4,2-20.6-0.2-29.6-1.8c2,4.7-0.1,8.2-5.2,8.9c-2.3,0.3-4-0.2-5.7-1.4c-0.7-0.5-1.7-1.1-2.5-1
			c-3.4,0.4-6.9,0.9-10.3,1.6c-0.6,0.1-1.4,1.1-1.4,1.6c0.2,4.2-1.9,8.7,2.3,12.2c0.4,0.4,0.6,1.5,0.4,2c-0.8,1.9-0.3,4.4,1.6,5.6
			c1.9,1.2,3,2.7,4.2,4.6c0.9,1.4,4.2,1.3,6.5,1.9c0.1,0,0.3,0.1,0.4,0.2c1.6,1.2,2.7,0.7,3.3-1c0.4-1.2,0.8-2.4,0.9-3.7
			c0.2-4.1-0.7-7.9-3.4-11.2c-1.4-1.7-2.7-3.5-1.4-6.1c1-2.1,2.3-2.7,3.8-1.1c0.6,0.7,0.9,1.9,1.6,2.3c1.3,0.7,2.8,1.5,4.2,1.4
			c1.9-0.1,1.1-1.8,1.3-3c0.1-1,0.4-2.5,1.1-2.9c2.5-1.4,5.1-2.8,7.9-3.4c8.8-1.9,15.9,2,22.4,7.3c5.8,4.7,9.5,11.2,14,17
			c0.7,0.9,1.3,1.9,2.2,2.4c3.8,2.3,7.7,4.5,11.7,6.6c1.4,0.7,3.1,1,4.6,0.8c4.8-0.3,9.5-0.7,13.9-3.1c2.6-1.5,5.7-2.2,8.4-3.6
			c3.8-2,7.8-1.8,11.8-1.4c3.5,0.3,7,0.8,10.3,1.9c4.8,1.5,10.2,2.6,13.1,7.3c2.4,3.8,5.7,5.7,9.8,5.9c6.4,0.3,11.1,3.5,15.3,8
			c5.8,6.2,5.4,8.8-2,12.7c-0.3,0.1-7.2-0.5-4.4,6.5c0.8,2,0.8,4.4,0.8,6.6c0.1,3.3-1.2,4.8-4.3,5.2c-1.7,0.2-3.5-0.1-5.1-0.6
			c-3-1-6-2.3-9-3.3c-5.4-1.8-9.4-4.6-9.8-10.9c-0.1-1.3-1.2-2.4-2.7-1.3c-2.4,1.7-4.9,1.1-7.4,0.6c-5-1-6.5,0.1-5.8,4.9
			c0.4,2.9-0.3,5.1-1.7,7.6c-2.3,4.2-4.1,8.4-2,13.7c2.2,5.7-1.6,10-7.7,9.9c-3.5-0.1-10.8,2.2-10.8,2.2c-1.4-3.2-4.3-0.8-6.3-1.7
			c-4.1-1.8-8.3-2.6-12.7-2.6c-0.5,0-2.2-1.2-2.1-2.2c0.2-2-0.3-4.1-0.7-6.1c-0.1-0.5-0.7-1-1-1.4c-0.5,0.5-1,1-1.5,1.5
			c-0.2,0.2-3.1,6.7-9.6,6.4c-1,0-1.9-0.2-2.9-0.3c-4.6-0.9-9.2-1.5-13.6-2.7c-1.7-0.5-3.5-2.2-4.5-3.9c-2.3-3.8-6.6-5.5-10.7-3.7
			c-2.7,1.2-5.3,2.5-6.5,5.3c-1.2,2.8-3.5,3.6-6.1,4.1c-4.9,0.8-9.8,1.3-14.7,2.2c-4.8,1-9.7,2.1-14.4,3.6c-3.3,1.1-4.2,3.4-2.5,8.3
			C60.8,388.5,84.3,383.8,96.2,384.2z"/>
		<path class="st1" d="M95.7,515.2c2.6,3.3,2.6,3.4,6.7,2c6.5-2.2,13-4.5,19.5-6.8c1.9-0.7,3.3-1,4.2,1.3c0.9,2.3-1,2.7-2.3,3.4
			c-7.5,4-15,8-22.5,12c-1.4,0.7-2.2,0.8-3-0.8c-0.3-0.7-1.2-1.1-1.8-1.6c-0.1,0.8-0.5,1.7-0.4,2.5c0.2,1.1,0.7,2.2,1.3,3
			c0.5,0.6,1.7,3.8,2.1,3.6c4.1-1.9,8.8-2.6,12.5-5.8c1.8-1.6,4.1-3.2,7-1.8c1.5,0.7,1.9-0.5,2.6-1.4c1-1.4,2-3,3.4-3.9
			c3.3-2,6.8-3.6,10.3-5.2c0.4-0.2,1.1-0.4,1.7-0.3l-10.7-23.7l10.6-10.2v-32.3c-0.5,0.2-1,0.4-1.5,0.5c-4.8,1.8-12.2,8.6-18.7,14.5
			c-6.8,6.3-13.3,12.2-19.2,15.1c-5.2,2.6-13.7,5.5-23.1,8.2C74.4,487.7,88.6,506.1,95.7,515.2z"/>
		<path class="st1" d="M545.5,627.9c-15.3,2.1-31.1,4.3-39.8,8.7c-1.5,0.7-4.2,3.6-6.4,6c-4.3,4.6-8.8,9.4-14.1,10.5
			c-1.5,0.3-3.2,0.5-5,0.5c-14.1,0-35.8-9.3-49.3-20l-41.3,16.2l2.7,8L326.4,781L307,770.5l-8.5,16.5l-28-15.3L278,755l-3.7-2.2
			c-3.4,6.3-6.8,12.7-10.2,19c-1.1,2-1,3.2,1.1,4.3c2.5,1.3,5.1,2.8,7.5,4.3c0.5,0.3,0.8,1.2,0.9,1.9c0,0.2-0.9,0.6-1.4,0.8
			c-0.5,0.2-1.1,0.3-1.6,0.5c0.6,0.4,1.2,1.2,1.8,1.3c0.9,0.1,1.9-0.5,2.8-0.5c2,0.1,4.2,0,6,0.7c3.5,1.5,6.9,3.4,10.2,5.3
			c1,0.6,2.4,1.7,2.5,2.6c0.4,4.2,3.3,5.5,6.6,6.6c4.1,1.3,7,3.2,8.2,8c1.4,5.6,4.8,7,10.1,6.2c2.5-0.4,5.1-0.5,7.6-0.7
			c7.2-0.6,14.1-1.8,20.1-6.6c3.2-2.6,4.2-5.2,3.9-9.1c-0.5-5.7-1.2-11.6-0.6-17.2c0.7-6.2-1.2-12.1-1.5-18.1c0-0.5-1-1-1.5-1.5
			c-0.5,0.6-1.2,1.1-1.4,1.8c-0.2,0.5,0,1.3,0.2,1.8c1.2,3-0.6,5.4-1.9,7.6c-1.4,2.3-3.4,0.7-5.1,0.1c-2-0.8-1.3-2.1-0.6-3.5
			c1.3-2.6,2.6-5.2,3.9-7.7c1.1-2.1,2.1-3.9,4.5-5.2c1.8-1,3-3.6,4.1-5.6c1.2-2.2,1.8-4.8,2.9-7c2.9-5.7,5.9-11.4,8.9-17
			c9.5-17.8,19.1-35.6,28.7-53.3c1.5-2.7,3.3-5.2,5.1-7.8c0.1-0.1,0.7,0.2,1.1,0.4c0.5,0.2,1,0.9,1.3,0.8c5.3-2.5,10.6-5.1,15.9-7.5
			c1.6-0.7,2.1-1.7,1.9-3.4c-0.4-2.7-0.7-5.4-1-8.1c-0.2-2,0.1-3.5,2.7-3.4c0.9,0,1.9-0.4,2.8-0.6c6.7-1.3,12.7,0.2,18.1,4.3
			c0.7,0.6,1.2,1.9,1.9,2c6,1.3,8.8,5.8,11.4,10.7c1.9,3.4,5.5,4.9,8.8,6.4c2.3,1,4.7,0.4,6.8-1.3c0.4-0.3,1.2-0.2,1.9-0.3
			c6.6-1.1,13.3-2,19.8-3.3c1.8-0.3,2.3,0.2,2.7,1.6c0.4,1.7,0.3,4,1.4,4.9c1,0.8,3.2-0.1,4.9-0.1c0.6,0,1.3,0.5,1.8,0.4
			c2.6-0.4,5.2-1,7.8-1.4c-0.1-1.9-0.2-3.7-0.4-5.6c-0.1-0.6-0.2-1.3-0.3-1.9c-0.9-4-0.9-4,3.2-5.2c4.9-1.5,9.7-3.5,14.7-4.4
			c4.8-0.9,9-4.9,14.4-2.9c0.2,0.1,0.6-0.2,0.7-0.4c1.1-2.6,3.7-2.2,5.6-3c10.3-3.9,21.5-5.2,30.9-11.6c0.7-0.5,2.3-0.4,3,0
			c0,0,0.1,0,0.1,0.1l2.1-10.9C571.3,624.3,558.3,626.1,545.5,627.9z"/>
		<path class="st1" d="M286.1,611.1l-35.2,75.6l14.9,3.7c0,0,16.7-32.4,24-46.6c3-5.8,6.2-11.6,9.2-17.4c0.8-1.4,1.4-2.1,3.3-1.3
			c3.4,1.5,4.5,0.4,3.9-3.3c-0.2-1.1-0.4-2.2-0.7-3.3c-0.4-1.6-0.8-3.2-3.2-2.6c-1.8,0.5-2.1-0.8-2.1-2.3c-0.3-4.8-0.6-9.6-1-14.4
			c-0.1-1.1-0.2-2.1-0.3-3.2l-14.3,0.8L286.1,611.1z"/>
		<path class="st1" d="M636.7,368.2l-1.7,2.1l-40.2,2.3l2.9,53.5l9.9,1.3l44.2,72.9l-0.4,2.2c-0.2,0.9-0.6,3.4-1.3,6.9
			c3.7,5,12.4,16.3,16.3,19.3c1.7,1.3,5.3,2.7,8.7,4c5.1,1.9,10.4,3.9,13.2,6.9c5.3,5.8,12.8,32.5,13.3,34.1
			c0.4,1.4,8.5,25.6,7.6,32.9c-0.3,3-1.7,7.3-3.6,11.5l3.8,2.1c0.9-1.3,1.7-2.6,2.5-4c2-3.3,4.3-6.8,3.3-10.7
			c-1.6-6-3.6-12.1-3.2-18.5c0.1-1.7-1.7-3.5-2.1-5.1c-1.3-4.7-3.9-10-3.1-15.2c0.1-0.4-0.7-1.2-1.2-1.3c-3.3-0.7-4.5-3.4-2-5.6
			c1.5-1.4,0.5-2.3,0.2-3.3c-1.8-4.6-3.6-9.2-5.2-13.8c-0.6-1.7,0.1-2.9-2-2.8c-2,0.1-3.4-1.6-2.5-3c1.9-2.7-1.1-4.2-2.3-5.8
			c-3.7-5.2-9.4-10.3-13.1-15.4c-0.9-1.3-2.6-2.5-0.9-4.6c0.3-0.4-0.3-2.1-1-2.7c-0.8-0.7-2.1-0.8-3.1-1.3c-3.9-1.9-6.4-5.4-7.4-9.2
			c-0.5-1.7-1-3.1-2.1-4.3c-3.4-3.8-6.9-7.6-10.2-11.5c-1.3-1.5-2.4-3.2,0-4.8c1.6-1,1.4-2.4,0.4-3.7c-0.6-0.8-1.2-1.5-1.8-2.2
			c-3.6-4.3-7.2-8.5-10.7-12.9c-0.9-1.1-2.3-2.1-1.6-4.1c1.1-3-0.6-4.8-4-4.7c-0.7,0-1.6-0.2-2-0.6c-3.6-4.3-7-8.8-10.8-12.9
			c-3.3-3.6-4.3-7.7-4.1-12.3c0.1-1.6,0.1-3.2,0-4.8c-0.3-3.2-0.6-6.4-1.1-9.6c-0.1-0.4-0.8-0.8-1.2-1.2c-0.4,0.4-1,0.9-1,1.3
			c0,2.9,0.2,5.8,0.2,8.7c0,0.7-0.2,1.7-0.7,1.9c-3.2,1.5-5.9-0.3-5.8-3.8c0-2.7,0.3-5.4,0.4-8.2c0.1-2.4,0.7-4,3.6-3.7
			c2.2,0.2,2.7-1.2,2.7-3c0-3.1,0-6.1,0-9.2c0-2.1-0.1-3.9-3-3.8c-0.6,0-1.3-1-1.8-1.7c-0.5-0.5-0.9-1.1-1.3-1.6
			c-0.3,0.6-0.7,1.3-0.9,1.9c-0.1,0.4,0,1-0.1,1.4c0,1.8-1.3,1.9-2.6,2c-1.6,0-1.8-1-1.8-2.2c-0.2-3-0.4-6.1-0.7-9.1
			c-0.2-1.6,0.4-2.4,2-2.6c1.6-0.1,3-0.1,3,2.1c0,0.6,0,1.3,0.2,1.9c0.1,0.3,0.7,0.5,1,0.6c0.1,0,0.5-0.4,0.5-0.7
			c0.2-1.2,0-3.3,0.5-3.5c1.6-0.5,3.5-0.5,5.2-0.2c0.6,0.1,1,1.6,1.3,2.6c0.9,3.4,2.6,4.8,6.1,4.9c2.9,0,5.8-0.1,8.7,0
			c2.3,0.1,3.3-0.9,3.4-3c0-1-0.1-2.1-0.4-3.1c-0.6-1.9-0.2-2.5,1.9-2.6c4.5-0.2,8.9-0.6,13.4-1c0.6-0.1,1.2-0.7,1.8-1.1
			c-0.6-0.4-1.1-1.1-1.7-1.2c-2.7-0.1-5.5,0-8.2,0.1c-1.4,0-2.3-0.6-2.1-2c0.2-1,0.8-2.5,1.3-2.6c2.8-0.3,6.1-1.2,8.3-0.1
			c2.8,1.4,3.3-0.1,3.5-1.6c0.2-1.3,0.6-2.5,1.1-3.6c-3.7-2.7-6.7-4.9-8.8-6.5C641.1,362.6,637.1,367.7,636.7,368.2z"/>
		<path class="st1" d="M697.8,629.1c-4.4,3.1-11.4,2.8-18.8,2.5c-5.8-0.2-12.4-0.5-14.8,1.4c-1.5,1.1-2.5,6.5-3.3,10.4
			c-1.3,7-2.7,14.2-8.3,15.9c-0.8,0.2-1.6,0.4-2.4,0.4c-5.5,0-11-5.2-16.4-10.3c-3-2.8-6.1-5.8-8.1-6.7c-1.5-0.6-4.5-1.2-7.1-1.6
			c-3.4-0.6-6.6-1.1-8.9-2.2c-5-2.3-14.7-9.5-21.1-14.4l-1.3,6.9c1.3-0.2,2.5,0.3,3.8,1.2c9.1,6.1,18.2,12.2,27.3,18.3
			c0.4,0.3,1,0.7,0.9,1c-0.7,3.3,0.6,3.2,3,1.9c0.3-0.2,1.2,0.3,1.6,0.7c5.7,4,11.4,8,17,12.2c2.1,1.6,4.3,2.4,6.7,1.8
			c2.1-0.5,4.1-1.7,6.1-2.6c1-0.4,2-1.2,3-1.1c4.3,0.3,6.3-2.1,6.9-5.8c0.4-2.4,1.4-4.1,3.6-5.3c1.5-0.9,2.5-2.5,1.6-4.5
			c-0.5-1.4-0.2-2.4,1.3-3.1c1.3-0.6,1.8-1.4,1.1-3c-1.4-3.1-0.7-3.9,2.5-3.3c1.1,0.2,2,0.9,3.1,1.2c0.5,0.2,1.1,0.2,1.5,0
			c6.5-3.4,13-3.5,19.5-6.9c1.4-0.7,5-4,5.9-5.2c0.7-1,1.4-1.9,2.1-2.9l-3.5-1.7C700.8,626.3,699.3,628,697.8,629.1z"/>
		<path class="st1" d="M355.7,663.1l-7.6,3l-19.6,32.2l-6-3.6l20.9-34.3l1.1-0.4l36.4-14.3l-17-51l39.8-15.3
			c-6.1-17.4-11.3-33.5-12.9-38.6l-26.2-24.1l-0.5-21.1l-6.9-9.2l-34.1,19.3l-3.1-2c-1.8-1.2-10.2-6.8-19.2-13.8l-4.4,4
			c0.4,0.3,0.8,0.5,1.1,0.7c0.7,0.4,1.2,1.1,1.7,1.7c5.6,5.8,11.2,11.5,16.8,17.2c1.1,1.1,2.4,2.4,3.8,2.7c6,1.5,12.1,2.9,18.2,4.1
			c1,0.2,2.7-0.3,3.2-1c0.5-0.7,0.1-2.4-0.4-3.3c-1.7-3.3-3.3-7.4-0.2-9.6c4.4-3.1,12.8-10.4,12.8-10.3c1.6,2.5,6.1,6.2,6.3,8.9
			c0.3,4.2-0.8,8.5-1.4,12.8c-0.4,3.1-1.4,3.9-4.5,3.3c-2.8-0.6-1.4-0.7-4.1-1.5c-1.4-0.4-3-1.3-3.6,0.7c-0.2,0.6,1.7,1.8,2.6,2.7
			c0.2,0.2,14.6,4.5,21.9,8.1c2.3,1.1,3.8,2.6,4.5,5.2c1.8,6.1,3.9,12.2,5.8,18.3c0.3,1,1,2.5,0.6,3.2c-1.3,2.4-0.1,4.4,0.5,6.5
			c1,3.7,2.2,7.4,3.5,10.9c1.1,2.8-0.5,5.2-2.7,7.6c-2-6.2-3.9-12.5-6-18.6c-1.3-4-4.9-2.7-5.3-2.5c-2,1.1-2.4,0.7-3.8-1.3
			c-2.6-3.8-5.5-7.5-8.4-11.1c-0.4-0.5-3.1,0.7-2.9,1.4c0.1,0.6,0.5,1.2,0.9,1.7c2,2.7,3.9,5.5,6.1,8c3.5,4.2,2.7,4.2-2,5.4
			c-5.2,1.4-5.2,1.3-8.4-2.8c-5.4-7.1-10.9-14.2-16.4-21.3c-0.9-1.2-2.3-3.2-3.8-1.9c-1.6,1.4,0.4,2.7,1.3,3.9
			c5.2,7.1,10.5,14.1,15.8,21.1c1.4,1.9,1.3,3.3-0.7,4.8c-2,1.4-3.2,1.2-4.6-0.8c-3.3-4.7-6.8-9.3-10.3-13.9
			c-2.2-2.9-2.2-2.9-5.1-0.9c-2,1.4-4,2.7-5.8,4.2c-2.1,1.7-2.2,2.6-0.6,4.8c3.9,5.3,7.8,10.5,11.8,15.7c4,5.1,4,5.5-1.2,9.2
			c-2.5,1.7-4.6,3.9-6.9,5.9c1.7,2.4,3.5,4.8,5.2,7.2c0.6,0.8,1.3,1.5,1.7,2.4c0.4,1,0.8,2.1,0.8,3.1c-0.3,4.8-0.7,9.5-1.2,14.3
			c-0.3,2.8-0.1,5.7-2,8.3c-0.9,1.2-0.9,3-1.1,4.6c-1.3,9.2-2.7,18.3-3.9,27.5c-0.2,1.8-1,2.7-2.7,2.4c-1.7-0.3-2.1,0.9-2.7,2.1
			c-7.2,13.7-14.4,27.4-21.6,41.1l26.4,14.3L355.7,663.1z"/>
		<path class="st1" d="M284.3,589.9l14.2-0.8c-0.1-0.8-0.1-1.5-0.2-2.3c-0.9-9.1-1.9-18.1-2.7-27.2c-0.8-9.1-1.4-18.2-2.1-27.3
			c-0.3-3.8-0.7-7.7-1-11.5c-0.6-7.2-1.8-21.7-1.8-21.8l-13,11.9L284.3,589.9z"/>
		<path class="st1" d="M322,726.9l-26.4-14.3c-2.4,4.6-4.9,9.3-7.3,13.9c-3.6,6.7-7.1,13.5-10.7,20.2l26.4,14.2L322,726.9z"/>
		<path class="st1" d="M234.5,739.9l-20.4-9.3l25.3-47.7L214,660.6l-12.2,9.8l3.4,10.9c0.4-0.4,0.8-0.8,1.2-1.2
			c1.3-1.4,2.2-1.4,3.5,0c1.9,2.2,4,4.1,6.9,4.9c3.1,0.9,3.1,1.1,2.2,4.3c-3.4,11.5-6.8,23-10.2,34.5c-0.6,2-2,4.2,0.5,6.1
			c0.3,0.2,0,1.8-0.4,2.5c-2.2,4.3-4.6,8.5-6.9,12.7c-4.3,7.9-8.6,15.8-12.8,23.7c-1.9,3.6-1.5,4.4,2.4,6c1.5,0.6,3,1.2,4.5,1.7
			c2,0.6,3,1.7,2.7,3.8c-0.2,2.1,0.1,3.9,2.7,4.3c0.9,0.2,1.8,0.6,2.7,0.9c3.4,1,3.4,1,5.2-2.2c1.8-3.4,3.6-6.8,5.4-10.2
			c3.8-7.2,7.6-14.5,11.4-21.7c0.9-1.7,1.9-3.7,4.4-2.4c2.9,1.4,4-0.1,5.2-2.3c3.5-6.7,7.1-13.3,10.7-19.9c4.4-8.3,8.9-16.6,13.4-25
			l-6.7-1.9L234.5,739.9z"/>
		<path class="st1" d="M147.1,619.7l-12.9-21.2c-1.7,1-3.4,1.9-5,2.9c-9.7,5.5-19.3,10.9-29,16.4c3.1,5.1,8.2,13.5,11.5,19.9
			L147.1,619.7z"/>
		<path class="st1" d="M158.6,557.1l-38.7,25.3l-3.8-5.9l37.5-24.6l-0.4-0.4l-6.4-14.3c-2.4,1.7-4.8,3.4-7.1,5.1
			c-1.9,1.3-4.9,2-3.7,5.5c0.1,0.3-13.9,10.5-21.6,15.9c-0.9-3-3.5-4.5-4.4-7c-0.1-0.3-2.6,1.3-2.5,2.2c0.2,1.2,1,2.3,1.8,3.4
			c1.3,1.9,1.5,3.1-0.8,4.6c-3.3,2-6.2,4.6-9.4,6.6c-1.9,1.2-2.3,2.3-1.4,4.2c3.6,7.9,7,15.8,10.7,23.6c1.5,3.2,1.7,3.2,4.6,1.6
			c5.8-3.2,11.4-6.5,17.1-9.7c6-3.4,12-6.8,18-10.2c0.9-0.5,2.3-1,3-0.6c1.7,1,2,3.6,1.1,5.4l22.5-11.7
			C171.4,571.1,164,562.9,158.6,557.1z"/>
		<path class="st1" d="M208.7,656l-5.8-5.1l-21.2,12.3l-15.4-11.8l-3.8-6.3l-48.8,26.5l-0.9-4.7c-0.9-4.6-3.5-17.3-5.1-21.4
			c-2.1-5.4-9.7-17.9-13.7-24.4c-2.1,1.2-4.2,2.4-6.3,3.6c-1.6,0.9-3.8,1.6-1.6,4.2c0.5,0.6,0.1,2.1-0.3,3c-1.4,3-1.2,5.8-0.2,8.8
			c4.8,14.8,6.6,30.2,8.9,45.5c1.2,7.8,3.2,15.4,7.2,22.2c5.7,9.6,10.7,19.7,18.9,27.7c2.9,2.8,5.2,6.1,9.1,7.7
			c4.3,1.8,5.5,1.6,8.7-1.9c4.4-4.7,8.9-9.3,13.3-13.9c1.5-1.5,2-1.5,2.7,0.8c1.2,3.9,2.5,4,5.3,1c7.4-7.8,14.9-15.5,22.3-23.3
			c1.8-1.9,3.4-3.8,5.2-5.7c4.2-4.5,8.5-9.1,12.7-13.6l-6.1-19.2L208.7,656z"/>
		<path class="st1" d="M744.7,444.6c2.1,1.4,2.7,2.3,0.8,4.3c-1.6,1.6-0.9,2.8,1.2,3.3c0.8,0.2,1.5,0.4,2.3,0.7
			c10.3,3.1,20.5,6.2,30.8,9.2c1.7,0.5-3.2-6-2.5-10.8c0.4-3,3.2-6.3,6.6-9.3c-20.6-6.2-57.7-29.7-88.8-51l-9.5,14.1
			c0.3,0.2,0.5,0.3,0.8,0.5C705.8,418.6,725.2,431.7,744.7,444.6z"/>
		<path class="st1" d="M795.5,441.9c-6.1,4.2-11,8.5-11.2,10.3c0,1.6,3.6,6.8,7.8,11.5c0.6-0.4,1.3-0.9,1.9-1.3
			c9.4-6.4,18.7-12.9,28.1-19.4v-15.4C814,433.4,804,439.6,795.5,441.9z"/>
		<path class="st1" d="M662.3,391.6c0,0.8,0.2,1.6,0.7,2.2c0.6,0.9,1.6,2,2.7,0.6c1.7-2.2,3.1-0.8,4.5,0.1c3.3,2.2,6.5,4.4,9.7,6.6
			l9.5-14.2c-10.3-7.1-19.7-13.8-27.3-19.4c-0.4,1.4-0.6,2.9-0.6,4.3C661.5,378.5,662,385.1,662.3,391.6z"/>
		<path class="st1" d="M688.5,753.6c-0.3-1.8-0.3-3.1-2-3.6c-2.7-0.7-4.1-2.5-5.7-4.5c-2.6-3.3-2.6-3.2-0.8-6.9
			c0.7-1.3,1.3-3.1,1-4.4c-1.4-4.9-2.8-9.9-7.3-13.2c-0.8-0.6-2-1.6-2-2.4c0.1-2.9-1.8-3.8-3.8-4c-2.8-0.2-4.2-1.8-5.8-3.7
			c-4.4-5.1-8.9-10-13.5-14.9c-0.9-0.9-2.4-1.6-3.7-1.8c-3.5-0.4-7-0.4-10.5-0.6c-4-0.3-9.5,3-10.7,6.7c-0.4,1.2,0.1,2.7,0.4,4.1
			c0.4,1.7,1.4,3.3,1.6,5c0.5,7.4,2.6,14.4,5.1,21.4c1.5,4.4,3,8.8,4.5,13.1c0.6,1.7,1.3,3.5,3.5,3.2c2.8-0.5,4.4,1.1,6.1,2.8
			c0.5,0.6,1.6,1.4,2.1,1.2c3-1,4,1,5.2,3c0.7,1.2,1.7,3,2.6,3c4.1,0.3,6.2,3.8,9.3,5.5c1.6,0.9,2.8,3.1,3.6,4.9
			c0.4,0.8-0.7,2.2-1,3.3c-0.5,1.7,0.9,2.2,1.9,1.7c2-1.1,2.9,0,4.1,1.1c1.1,0.9,2.2,1.9,3.5,2.5c4.2,2.1,11-1,10.6-5.2
			C686.1,764.9,689.6,759.6,688.5,753.6z"/>
		<path class="st1" d="M517.9,687.9c-1.5-2.1-3.2-4-4.8-6c-2.1-2.6-4.6-3.9-8-2.9c-1,0.3-2.2,0.2-3.2-0.1c-3.3-0.9-6.2-0.7-8.9,1.6
			c-1.3,1.1-3.1,1.7-4.5,2.8c-0.8,0.6-1.7,1.5-2,2.5c-1.4,5.3-3.4,10.8-1,16c1.4,3,7.2,5.9,11.2,7.8c2.9,1.3,4.8,1,7.5,0.4
			c3.4-0.7,6.3-2.9,10-3.1c2.5-0.1,5.3-1.2,5.2-5c0-1.1,1.7-2.2,2.5-3.1c-0.5-1.3-1.6-2.9-1.5-4.4
			C520.5,691.7,519.3,689.8,517.9,687.9z"/>
		<path class="st1" d="M615.4,682.3c3.9-3.2,8.1-6.1,12.2-9.2c0.5-0.4,0.8-1.5,0.6-2.1c-0.2-0.5-1.2-0.9-1.9-1
			c-2.6-0.5-5-0.3-7.4,0.9c-3.6,1.8-4.2,1.4-5.8-2.1c-0.5-1-0.9-2.1-1.5-3c-3.1-4.8-9.7-5-13.1-0.2c-1.2,1.8-2.6,2.6-4.8,2.3
			c-3.4-0.5-3.3-0.4-3.7,2.8c-0.3,2.3,0.1,4.3,1.3,6.4c2.3,3.7,4.3,7.5,6.3,11.3c1.6,3.1,1.2,4.1-1.9,5.6c-0.8,0.4-1.8,0.8-2.7,0.9
			c-2.2,0.3-3.1,1.6-2.9,3.6c0.3,3.3-0.3,6-3.4,7.9c2.8,0.2,4.8-2.3,7.6-0.7c4.2,2.3,8.7,1.3,13.2,0.4c5.6-1.1,5.6-6.3,7.4-10.2
			c0.9-2,0.8-3.5-1.6-3.9c-2.7-0.5-3-2.7-2.2-4.4C612,685.7,613.6,683.8,615.4,682.3z"/>
		<path class="st1" d="M744.7,553.8c3.8-2.1,5.2-5.8,7-9.4c1.3-2.5,0.7-4.7-0.4-6.8c-2.9-5.8-8.2-8.3-14-7.9
			c-4.7,0.3-9.2,0-13.7-0.4c-2.9-0.3-3.9,0.4-4.2,3c-0.4,3.6-0.6,7.3-0.9,10.9c-0.3,4.5,3.5,10.3,8.6,13.4c1.3,0.8,2.4,1,4,0.4
			c2.1-0.7,4.3-1.1,6.5-1.1C740.1,556,742.4,555.1,744.7,553.8z"/>
		<path class="st1" d="M755.7,720c0.5-1.7-0.7-3.9-1.2-5.8c-3.3,0-4.1-3.5-6.4-4.8c-2.1-1.2-3.9-3.8-6.8-2.5
			c-2.9,1.3-2.1,4.4-2.5,6.8c-0.4,2.2,0.1,4.8-0.9,6.5c-2.2,3.4-1.6,6.4-0.7,9.9c1.3,4.9,2.3,9.9,3.2,14.9c0.3,2-0.9,4.8,0.1,5.9
			c1.3,1.4,4,1.4,6.2,2c1.1,0.3,2.2,0.5,3.2,0.9c1.7,0.7,2.8,0,3.7-1.2c2.6-3.4,1.8-6.4-3.1-8.3c5.5-0.8,5.8-0.8,6.2-5.5
			c0.3-2.9-0.4-6-0.7-8.9C755.5,726.6,754.7,723.4,755.7,720z"/>
		<path class="st1" d="M723.2,511.6c3.8,0.3,6.9-0.6,9.2-3.8c1.1-1.5,2.3-2,3.9-0.6c1.9,1.6,3.2,8.3,1.9,10.4
			c-1.3,2.3-1.1,3.5,1.1,4.2c2,0.6,4.1,0.9,6.6,1.4c1.4-0.7,3.2-1.4,4.8-2.3c0.4-0.2,0.6-1.3,0.4-1.6c-2.4-3-0.6-5.7,0.2-8.5
			c0.8-2.6,1.5-5.2-0.7-7.6c-0.5-0.6-0.7-2.2-0.2-2.9c2.5-3.6,1.6-6.4-1.7-8.9c-0.8-0.6-1.3-1.4-1.9-2.2c-3.3-4-5.8-4.3-9.8-1.2
			c-2,1.6-2.8,3.7-3.5,6.1c-0.6,2.1-1.5,4.1-2.5,6c-0.3,0.6-1.6,1.3-1.8,1.1c-2.5-1.9-5.5-0.8-8.1-1.7c-2.3-0.8-3.7,0.4-5,1.8
			c-1.3,1.4-0.8,3,0.1,4.4c0.7,1.1,1.4,2.1,2,3.2C719.5,510.9,721,511.5,723.2,511.6z"/>
		<path class="st1" d="M566.9,713.1c1.7,0,2.8,0.6,3.9,1.3c1.3,0.9,2.5,1,3.3-0.3c0.3-0.5,0-1.7-0.4-2.4c-0.6-1.3-1.4-2.5-2.3-3.7
			c-1.5-2.1-6.1-3.3-8.2-2.1c-2.2,1.3,0.1,3.2-0.3,4.8c-0.1,0.3-0.2,0.6-0.3,0.9c-6.4-0.7-6.6-0.8-9.2-6.1c-0.3-0.7-0.8-1.5-1.5-1.9
			c-4-2-6.8-5.2-9.5-8.6c-1.3-1.6-3.2-2.2-5.1-1.1c-2.3,1.3-3.4,4.3-2.3,6.4c0.7,1.4,1.8,2.5,2.7,3.8c4.1,5.6,8.3,11.2,12.4,16.8
			c0.2,0.3-0.1,1,0.1,1.4c0.3,0.7,0.7,1.6,1.2,1.8c5.9,2.2,11.3,6,18.2,5.3c2.5-0.3,5.5-0.3,6.1-2.7c0.5-1.6-1.2-4.1-2.4-5.8
			C571.5,718.2,569.1,715.7,566.9,713.1z"/>
		<path class="st1" d="M810,547c2.1,0.2,2.8-0.4,2.8-2.7c0-2.6-3.9-10.7-6.7-13.6c-1.4-1.4-2.7-3.6-5.1-1.3c-0.2,0.2-1-0.3-1.5-0.5
			c-3.1-1.1-5.2,0.7-4.7,3.9C795.9,539.3,802.1,546.3,810,547z"/>
		<path class="st1" d="M707.3,770.4c-0.9-0.2-2-0.3-2.9,0c-3.2,1.2-6.1,0.9-9.2-0.6c-2-1-5.1,0.5-5.7,2.2c-0.6,1.6,0.7,5.8,2.3,5.8
			c3.8,0,4,3.6,6.1,5.2c0.7,0.6,1.2,1.4,1.7,2c0.5-0.1,1.1-0.1,1.1-0.2c0.9-2.8,2.7-4.3,5.8-3.9c0.3,0,0.7-0.9,1.1-1.5
			c0.7-1.1,1.5-2.1,2.2-3.2C711.5,773.8,710.4,770.9,707.3,770.4z"/>
		<path class="st1" d="M622.8,181.8c-2.4-0.4-4.8-0.4-7.1-0.8c-2.2-0.4-4,0.2-5.9,1.3c-6,3.7-12.1,7.2-18.1,10.9
			c-1.6,1-3.1,2-4.7,1.9l0.3,8.7c8.3-5.5,21.8-14.1,28.9-15.9c6.2-1.7,19.9-1.2,29.2-0.6c-0.4-1.6-0.9-3.4-1.4-5.4
			C636.9,181.7,629.9,183.1,622.8,181.8z"/>
		<path class="st1" d="M599.2,171.7c-0.5-4-0.7-8-1-12c-0.2-1.9,0.5-3,2.7-3c5.9,0,11.9-0.5,17.2,3.1c1.3,0.9,2.9,1.4,4.4,2
			c0.7,0.3,1.8,0.7,2.2,0.4c3.8-2.6,8.1-1.1,12.2-1.5c0.4,0,0.7,0,1.1-0.1c-1.2-8.1-1.7-15.8-0.7-20.8c0.3-1.3,0.6-2.6,1.1-4
			l-25.3-31.6l-29.6,22.1l2,58.9c3-0.6,5.8-1.7,8.6-3.4C598.3,179.3,599.9,176.4,599.2,171.7z"/>
	</g>
</g>
<g id="titre">
	<g>
		<path class="st1" d="M398.8,802.5v-22h-9.1v22h-7.6v-50.4h7.6v21.2h9.1v-21.2h7.6v50.4H398.8z"/>
		<path class="st1" d="M423.4,759.2v14.3h11.2v7.1h-11.2v15h13.8v7.1h-21.5v-50.4h21.5v7.1H423.4z"/>
		<path class="st1" d="M465.1,795.3v7.2h-20.4v-50.4h7.6v43.2H465.1z"/>
		<path class="st1" d="M491.5,762.7v1.3l-7.3,0.7v-1.9c0-2.9-1.4-4.4-3.9-4.4s-3.9,1.5-3.9,4.4v0.6c0,3,1.3,5.5,6.4,9.8
			c7,5.9,9.6,10.1,9.6,16.1v2.5c0,7.2-4.2,11.3-11.8,11.3s-11.8-4.1-11.8-11.3v-3.4l7.3-0.7v3.6c0,3.2,1.4,4.8,4.3,4.8
			c2.9,0,4.3-1.6,4.3-4.8v-1.7c0-3.2-1.5-5.7-6.6-10c-7-5.9-9.4-10.1-9.4-16v-1.1c0-7.2,4.1-11.3,11.4-11.3
			C487.4,751.4,491.5,755.5,491.5,762.7z"/>
		<path class="st1" d="M498.1,802.5v-50.4h7.6v50.4H498.1z"/>
		<path class="st1" d="M532.4,802.5l-10-33.4l-0.1,33.4H515v-50.4h8.5l9.1,30v-30h7.2v50.4H532.4z"/>
		<path class="st1" d="M575,802.5h-8.1l-7.5-22l-3.3,6.5v15.6h-7.6v-50.4h7.6v21l10.7-21h8l-10.4,20L575,802.5z"/>
		<path class="st1" d="M580.6,802.5v-50.4h7.6v50.4H580.6z"/>
	</g>
</g>
</svg>
