<?xml version="1.0" encoding="utf-8"?>
<!-- Generator: Adobe Illustrator 19.0.0, SVG Export Plug-In . SVG Version: 6.00 Build 0)  -->
<svg version="1.1" xmlns="http://www.w3.org/2000/svg" xmlns:xlink="http://www.w3.org/1999/xlink" x="0px" y="0px"
	 viewBox="0 0 850.4 850.4" style="enable-background:new 0 0 850.4 850.4;" xml:space="preserve">
<style type="text/css">
	.st0{stroke:#000000;stroke-miterlimit:10;}
	.st1{fill:#FFFFFF;stroke:#000000;stroke-miterlimit:10;}
</style>
<g id="cadre_exterieur">
	<rect class="st0" width="850.4" height="850.4"/>
</g>
<g id="cotes">
	<g>
		<path class="st1" d="M324.2,513.3c7.1,2.8,15.6,10.2,23.7,17.3c5.8,5,11.7,10.2,16,12.6c6.8,3.8,16,8.2,26.7,12.9l14.7-51
			l-59.9-34.7C345.4,470.4,324.2,513.3,324.2,513.3z"/>
		<polygon class="st1" points="607.4,208.2 615.7,212.7 661,131.2 652.2,126.4 		"/>
		<polygon class="st1" points="369.7,426.3 381.4,432.8 409,384.7 396.4,378 		"/>
		<polygon class="st1" points="347.6,413.9 361.4,421.6 388,373.6 374.3,366.4 		"/>
		<polygon class="st1" points="458.7,317 474.4,325.5 499.4,280.9 484.2,272.6 		"/>
		<polygon class="st1" points="477.5,420.9 467.1,415.4 439.6,465.1 449.6,470.7 		"/>
		<polygon class="st1" points="530.8,367 521.4,361.9 490.5,417 500.4,422.2 		"/>
		<polygon class="st1" points="482.8,330.1 498.8,338.8 523.6,294.1 507.7,285.5 		"/>
		<polygon class="st1" points="495.8,430.6 485.9,425.3 457.9,475.3 468.1,480.9 		"/>
		<polygon class="st1" points="364.1,470.3 378.5,442 365.1,434.6 349.8,462 		"/>
		<polygon class="st1" points="587.6,197.5 599,203.7 599,203.6 599.1,203.6 643.9,121.9 632.8,115.9 		"/>
		<polygon class="st1" points="536.5,290.4 547.2,296.2 594.3,212 583.3,206 		"/>
		<polygon class="st1" points="637.5,107.6 648.4,113.6 669.1,75.9 658.4,69.9 		"/>
		<polygon class="st1" points="677.3,80.6 656.8,118.1 665.6,122.9 686.3,85.7 		"/>
		<polygon class="st1" points="513,357.3 502.5,351.6 471.7,407.1 482.1,412.6 		"/>
		<polygon class="st1" points="507.1,343.3 517.7,349 542.6,304.5 531.9,298.7 		"/>
		<polygon class="st1" points="389.7,437.4 406.5,446.7 433.9,397.9 417.4,389.1 		"/>
		<polygon class="st1" points="414.8,451.3 431.3,460.5 458.7,411 442.3,402.3 		"/>
		<polygon class="st1" points="446.9,394 463.3,402.7 494.2,347.1 478.1,338.4 		"/>
		<path class="st1" d="M445.1,479l-58.3-32.4l-14.5,28.4l44,25.5l-17,59.3c1.6,0.7,3.2,1.4,4.9,2.1L445.1,479z"/>
		<path class="st1" d="M298.9,557.6l0.7,0.2l0.4,0.2l84.5,37.7l21.1,8.1c4.4-10.6,8.5-20.2,11.1-26.4c-23.5-9.4-44.6-18.6-57.5-25.8
			c-5.2-2.9-11.2-8.2-17.6-13.8c-7.2-6.3-15.3-13.4-21-15.6c-3.5-1.4-9.5-2.6-16.9-3.6L298.9,557.6z"/>
		<polygon class="st1" points="356.8,429.9 326.7,413.2 343.9,453 		"/>
		<path class="st1" d="M305.5,509.2c3.4,0.5,6.5,1,9.3,1.6l23.3-47.2l-5.2-12l-10.3,18.3L305.5,509.2z"/>
		<path class="st1" d="M514.7,517.7l-43.2-24l-42.2,78.4c14.3,5.6,29.2,11.2,43.6,16.5L514.7,517.7z"/>
		<path class="st1" d="M463.2,489.1l-9.8-5.4l-40.3,81.9c2.4,1,4.9,2,7.3,3L463.2,489.1z"/>
		<path class="st1" d="M535.9,481.7c-2.8-8.4-5.9-21.9-5.9-29.2c0-0.9,0.2-2.2,0.4-3.7L504.2,435l-27.8,50.5l43.1,24L535.9,481.7z"
			/>
		<polygon class="st1" points="422.1,380.9 438.5,389.6 469.8,333.8 454,325.3 		"/>
		<path class="st1" d="M581.9,308.8l51.1-75.9l-13.6-7.4l-46.6,84.7l6.3,3.5C580.9,310.7,581.9,308.8,581.9,308.8z"/>
		<polygon class="st1" points="550.9,309.1 526,353.6 535.4,358.7 559.9,314 		"/>
		<polygon class="st1" points="611.1,221 602.7,216.5 555.5,300.8 564.5,305.7 		"/>
		<polygon class="st1" points="365.9,361.9 351.8,354.5 324.9,401.3 339.3,409.3 		"/>
		<polygon class="st1" points="356.6,346.3 370.6,353.7 402.3,297.2 389,290 		"/>
		<polygon class="st1" points="419.4,237.1 393.7,281.7 406.9,288.9 432.1,244 		"/>
		<polygon class="st1" points="401,369.7 413.7,376.4 445.6,320.7 432.1,313.4 		"/>
		<polygon class="st1" points="379,358.1 392.6,365.3 423.8,308.9 410.6,301.7 		"/>
		<polygon class="st1" points="335.1,335.1 348.2,341.8 380.6,285.4 367.6,278.5 		"/>
		<polygon class="st1" points="316.6,396.7 343.4,350.1 330.3,343.3 303.6,389.7 		"/>
		<polygon class="st1" points="311.3,322.4 326.4,330.6 359,274 341.2,264 		"/>
		<polygon class="st1" points="624,217.2 638.4,225 646,213.7 689.2,161.7 697.1,150.9 669.3,135.8 		"/>
		<path class="st1" d="M171.4,135.7c-8.8-4.9-17.5-9.8-26.2-14.6l-14.4,0L71.1,250.8l43,8.7l10.7-80.7L171.4,135.7z"/>
		<polygon class="st1" points="133.2,273 119.6,270.3 79.1,436.2 96.1,440.4 		"/>
		<polygon class="st1" points="28.3,206.6 28.3,276.2 45.4,284 120.3,121.1 74.7,121.2 		"/>
		<polygon class="st1" points="110.3,268.4 67,259.7 37,321.7 28.3,370.2 28.3,405.4 43.3,427.6 69.8,434 		"/>
		<path class="st1" d="M233.3,493.1l-1.5,10.9c13.9,0.5,33.3,1.3,51.1,2.8l10.8-111.9l-25.9-14.4l-2.1,12.4l-19.2-0.3l-1.3,11.1
			l7.1,1.3l0.7,7.1l7.4,1.3l-6.7,78.6L233.3,493.1z"/>
		<polygon class="st1" points="28.3,139 28.3,186.7 63.9,121.2 37.9,121.2 		"/>
		<polygon class="st1" points="76.6,471.8 51.3,464.4 47.5,490.6 72.3,494 		"/>
		<path class="st1" d="M214,134.3l8.3-13.4l-36.2,0.1c8.9,5,17.8,9.9,26.6,14.8L214,134.3z"/>
		<polygon class="st1" points="28.3,508.2 28.3,555.8 35.5,509.1 		"/>
		<path class="st1" d="M249.9,366.5l15.4,1.8l0.1-0.1l0.3,0.2l4.1,0.5l-0.3,1.6l5.1,2.8l24-47l-31.1-16.4c-0.2,13.4,2.6,39,2.6,39
			l0.7,11.8l-22.3-1L249.9,366.5z"/>
		<path class="st1" d="M117.2,559.1l0.4-6.3l-32.8-3.1l-2.7-11.2l31-2.2l1.3-16.1l-36.6-5L56.6,622.3l-27-11.7l-1.3,8.2v56.2
			l3.4,0.3L30.9,686l23.4,0.4l1.3-13.9c0,0,17.1,0.9,22.5,1.3c1.7,0.1,2,5.3,3.6,5.8c1.3,0.5,4.4-0.8,5.4-1.8
			c3-3.1,4.9-16.6,4.9-16.6l9,3.6l0.9-5.4l-9-4.9l2.2-17.1l9.9,0.4L97,624.3v-17.5l18,1.8l-0.4-5.4L98.3,600l-0.9-3.6h5.8l1.3-16.6
			l-17.5-2.2v-18.4H117.2z"/>
		<path class="st1" d="M142.4,231.5l4.9-10.3l19.3,7.2l18-37.3l17.1,12.1l5.4-5.8l-17.5-13.9l-5.4-16.2l14.6-16.2
			c-6.3-3.5-12.5-7-18.8-10.5l-46.3,42.9l-10.3,77.9l21.1,4.3l-41.2,186.3l-48.4-11.8l-2.2,14.8l34.9,10.2l-6,30.2l38,5.2l8.8-2.2
			l0.4-10.3l-18.4-3.6l1.3-18c0,0,16.6-5.4,21.1-9c3.4-2.7,11.2-9.7,10.3-13.9c-0.6-2.8-9.6-3-9.9-5.8c-0.9-8.5,9-32.8,9-32.8
			l9.4-6.7l-9.4-4.5l9.9-6.7l4.5-15.7l4,1.8l13-22.5l-3.1-4l-0.9-9.9l4.5-1.8l-4-4.9l-5.8-67.5l2.2-6.3l-3.1-7.6L160,259l-21.1-9.4
			l-0.4-9.9l-4,0.4v-8.5H142.4z"/>
		<path class="st1" d="M340.3,717l-12.6-14.5l-0.9,1.1c-4.8,6.2-48.3,60.7-72.6,63.8c-0.9,0.1-1.9,0.2-2.9,0.2
			c-11.4,0-30.9-6.7-38.5-15.1c-4-4.4-4.2-8.4-3.6-11.1c0.6-2.5,21.9-99.2,32.3-116.2c1.2-1.9,3.2-3.2,5.6-3.6
			c3.5-0.6,9.5,0.2,24.7,10.5l13-22.1l3.8-45.1l-39.8-9.1l-3.5,19.9l-26.3-1.3l-1,7.1l25.6,3l-0.3,9.4l-26.7-6.4v6.7l24.6,5.4
			l0.3,13.5l-27.7-2l-7.4,55l-7.8,46.6c0,0,5.4,3.7,5.7,5.7c0.5,3.5-6.4,12.5-6.4,12.5s-1.9,12-0.3,15.5c1.1,2.6,6.4,5.7,8.4,7.8
			c7.6,7.9,18.2,30.1,28.7,33.4c8.8,2.7,27.2-6,35.4-10.1c7.1-3.6,25.3-19.6,25.3-19.6l21.3-18.6l10.1,7.1l6.7-6.4l-6.4-9.4
			C327.1,730.6,333.4,723.4,340.3,717z"/>
		<polygon class="st1" points="45.6,437.9 28.3,433.7 28.3,488 38.1,489.3 		"/>
		<path class="st1" d="M666.6,306.5l-6.4,16.2l-10.8,22.9l-8.8,12.8l-0.2,0.3c12,5.8,28.1,13,34.3,14.2c0.3,0.1,0.5,0.1,0.8,0.1
			c2-7.8,5.5-21.9,6.7-27.7c0.8-3.8,1.4-9.4,2.1-15.3c1.2-10.5,2.6-22.5,5.3-29.6c3.4-8.7,17-27.4,22.6-34.9L696,257l-22.3,31.9
			L666.6,306.5z"/>
		<polygon class="st1" points="49.6,608.9 68.4,513.7 44.9,510.4 31.1,600.8 		"/>
		<path class="st1" d="M82.6,705.8l-30.1-4.5l0.4-6.3l-7.2-0.9l-2.7,6.3l-14.7-2.5v34.3c19,0,51.5,6,51.5,6L82.6,705.8z"/>
		<polygon class="st1" points="28.3,286.6 28.3,317.8 41.2,292.5 		"/>
		<path class="st1" d="M698.5,498.6c-5.8,0.9-11.8,1.8-17.5,2.9c3.8,13.1,13.1,43.7,18.8,54.5c5.6,10.6,25.5,34.9,34.3,45.4
			c0.1-0.1,0.2-0.2,0.3-0.3c2.5-2,5.1-4.2,7.8-6.4c-8.3-16.5-35.1-70.1-42.4-91.7C699.5,501.7,699,500.2,698.5,498.6z"/>
		<path class="st1" d="M748.3,649.3l-3.9-30.4c-2.3,1.8-4.8,3.9-7.5,6c-9.6,7.6-22.6,17.9-32,27L748.3,649.3z"/>
		<path class="st1" d="M815.1,456.6l-25.5,11.7c0.3,0.8,0.6,1.6,0.9,2.2c2.3,5.2,6.8,15.9,10.5,20.2c3.3,3.8,11.7,8.9,16.2,11.1
			c1.3,0.6,3,1.3,4.9,1.8v-50.9l-6.8,3.7L815.1,456.6z"/>
		<path class="st1" d="M704.8,392.7c-1.1-0.1-2.7-0.1-4.4-0.1c-0.7,3.5-1.6,7.8-2.4,12.2c7.7,2.4,18.3,6.4,24.2,9
			c5.2,2.2,15.8,6.4,20.9,8.8c7.4,3.4,22.2,10.4,29,14.8c2.7,1.7,7.9,7.9,9.8,10.5c1.8,2.5,3.3,6.8,4.7,11.3L811,448l11.1-6.1v-6
			c-15.7-4.1-30.2-8.4-38.8-12.4c-5.4-2.5-11.8-6.9-18.5-11.5c-6.4-4.4-13.7-9.5-18.1-11.2C737.7,397.3,716.6,393.8,704.8,392.7z"/>
		<path class="st1" d="M791.6,405.4c6.7,3.1,17.8,6.5,30.4,9.9v-34l-58.5-9.8l-14,9.1c1.6,0.5,3.1,1,4.5,1.6
			c6.5,2.6,14.4,8,22.1,13.3C781.9,399.5,787.8,403.6,791.6,405.4z"/>
		<polygon class="st1" points="323.4,147.5 320.4,154.3 342.3,166.1 331,177.8 349.4,187.9 397.2,105.6 374.3,93.2 372,97.6 
			363.6,116.5 352.8,143.5 330.2,130.3 326.8,137.7 349.1,150.2 344.7,158 		"/>
		<path class="st1" d="M657.9,404.3c0,0,11.1-2.2,14.8-2.4c3.9-0.2,10.7,0.1,16.1,0.8c0.6-3.5,1.3-6.8,1.9-9.8
			c-7.2,0.4-14.5,0.7-20-0.5c-9.8-2-30.4-11.6-40.4-16.5c0.6,5.2,1.2,13.9-0.5,17.1c-1.3,2.4-9.1,6.1-9.1,6.1l-2,20.2l15.9-1
			L657.9,404.3z"/>
		<polygon class="st1" points="673.6,67.6 692.9,32.4 685.5,28.3 681.4,28.3 663,61.5 		"/>
		<path class="st1" d="M545.7,375.1l-6.5-3.5l-30.4,55.2l26.2,13.8l8.9-0.8c0,0-2.2-48.6,1.7-64.1
			C545.5,375.4,545.6,375.3,545.7,375.1z"/>
		<path class="st1" d="M653.5,498.4c8.5-3.3,26-6.5,42.3-9c-4.9-17.1-10.5-41-10.9-55.3c-0.1-5,0.9-13.2,2.3-21.7
			c-6.9-0.7-17.4-0.7-17.4-0.7l-27,13.8l-21.6,31.7c0,0-2,11.1-1.7,14.8c0.7,8.9,8.8,25.5,9.4,34.4c0.5,6.9-3.4,27.3-3.4,27.3l9.4,1
			l0.3,5.1l10.4,1.1c-0.4-3.9-0.9-9.4-1.1-15.1C644.2,509.7,647,500.9,653.5,498.4z"/>
		<path class="st1" d="M228.5,751.9c5.8-15.4,24.1-61.5,38.4-72.6c6.2-4.8,22.9-8.1,32.3-9.6l-12.5-14.3c-3.9-3.3-7.9-6.4-11.8-9.3
			l-55.6,99.5C219.5,745.7,224.8,750.2,228.5,751.9z"/>
		<path class="st1" d="M291.9,647.4l16.6-24.7l12.6-16c-0.2-0.2-0.4-0.3-0.5-0.5c-6-5.4-16.5-19.3-23.6-29.3l-3,36l-13.4,22.8
			l0.1,0.1l-1.1,1.9C285.2,641.9,289.8,645.7,291.9,647.4z"/>
		<polygon class="st1" points="402.9,217.4 415.8,224.3 463.5,141.4 450.6,134.5 		"/>
		<polygon class="st1" points="482.6,100.9 523.1,28.3 503.1,28.3 485.4,59.9 		"/>
		<path class="st1" d="M224.2,717.5l43-76.9c-8.3-5.6-15.2-9.4-18.1-9.6C241.2,644.8,231.2,686.2,224.2,717.5z"/>
		<path class="st1" d="M250.3,546.5l39.3,8.9l4.7-38.1c-16.2-1.7-36.3-2.8-53.5-3.5l12.4,1.9l-2,26L250.3,546.5z"/>
		<polygon class="st1" points="485.4,153.2 476.2,148.2 461.9,189.6 		"/>
		<path class="st1" d="M472.8,107.6L472,97.3l-16.7,29l15.6,8.3l1.1-2.2c-4.8-2.4-7.9-7.5-7.7-12
			C464.6,114.8,467.5,110.8,472.8,107.6z"/>
		<path class="st1" d="M691.2,793.7L653.9,751c-8.2,21-15.6,41.1-20.6,55.3l45.4-10.5L691.2,793.7z"/>
		<path class="st1" d="M481,134.7l-1.6,4.5l11.2,6l5.8-9l-9.1-4.8C485.5,133,483.3,134.1,481,134.7z"/>
		<path class="st1" d="M268.9,299.9l15,7.9l31.8-57.7l-20-10.8c-7,13.3-17.2,33.3-20.9,42.5C273.1,286.1,270.4,293.8,268.9,299.9z"
			/>
		<polygon class="st1" points="446.7,121.8 472.9,76.3 476.6,36.7 432.6,113.9 		"/>
		<polygon class="st1" points="448.7,227.5 444.4,239.9 457.8,247.3 504.3,163.3 493.8,157.7 		"/>
		<path class="st1" d="M340,206l5.3-9.5l-20.6-11.3l-5.3,9.5C326.7,198.7,333.6,202.5,340,206z"/>
		<polygon class="st1" points="544.7,161.4 504.8,140.6 499,149.7 557.9,181.5 603.7,100 584.4,89.5 		"/>
		<polygon class="st1" points="380.7,205.1 394.3,212.8 442,130 427.9,122.1 		"/>
		<path class="st1" d="M309.6,212.3l-19.2-8.8l-5.7,7.1l17.9,15.9c0,0-0.9,1.7-2.4,4.4l20.1,10.9l10.1-18.3
			c-6.4-3.5-13.4-7.3-20.7-11.4L309.6,212.3z"/>
		<polygon class="st1" points="357.8,192.5 372.4,200.5 419.6,117.6 405.6,110.1 		"/>
		<path class="st1" d="M477.7,115.5c-2.8,0-5,2.3-5,5c0,2.8,2.3,5,5,5s5-2.3,5-5C482.7,117.7,480.4,115.5,477.7,115.5z"/>
		<polygon class="st1" points="608.4,91.7 629.7,53.6 610.5,42.8 589.1,81.2 		"/>
		<path class="st1" d="M771.2,647.9h42.6l-23-65.6c-12.3,8.7-28.1,21.5-37.8,29.4l4.8,37L771.2,647.9z"/>
		<path class="st1" d="M749.5,658.7l-47.9,2.8l-5.2-0.6c-0.2,0.3-0.5,0.6-0.7,1c-4.1,5.7-8.6,13.7-13.4,23.3l69.7-7.1L749.5,658.7z"
			/>
		<path class="st1" d="M822,565.8c-8.8,3.7-16.9,7.3-22,10.4c-0.3,0.2-0.7,0.4-1.1,0.7l23,65.8V565.8z"/>
		<polygon class="st1" points="818.1,659.9 817.5,657.4 771.4,657.4 759,658.2 761.3,676.1 		"/>
		<polygon class="st1" points="699.2,82 733,101.2 752.3,72.9 767.9,43.9 764.7,28.3 729,28.3 		"/>
		<polygon class="st1" points="634.4,45.4 644,28.3 618.6,28.3 615.2,34.5 		"/>
		<path class="st1" d="M796.6,62.8v20.9c0,0,21.3,5.4,25,7.1c0.2,0.1,0.4,0.2,0.5,0.3V28.3h-1.5L796.6,62.8z"/>
		<path class="st1" d="M812.2,335.2c-2-5.2-3.7-10.3-5-14.3c-20.6,14.1-66.5,38.6-93.4,52.6c6.9,0.9,15.3,2.2,23.2,3.9l24.5-15.9
			l60.6,10.1v-17.1C818.7,350,815.5,343.7,812.2,335.2z"/>
		<path class="st1" d="M816.6,546.4c1.8-0.8,3.6-1.5,5.4-2.3V513c-7.8-2.2-15.2-4.6-19.8-7.5c-4.9-3-13.5-11.3-16.5-16.2
			c-2.3-3.7-3.8-11.1-5.3-16.9l-47,21.6l-0.8,0.1c-0.3,0-11,1.3-24.6,3.2c0.3,1,0.6,1.9,0.9,2.7c6.7,20,31.8,70.5,40.9,88.6
			c14.1-11.4,29.6-23.3,39.8-29.5C796.4,555,806.2,550.8,816.6,546.4z"/>
		<polygon class="st1" points="410.4,101.9 424.3,109.4 470.4,28.3 453,28.3 		"/>
		<polygon class="st1" points="378.7,84.8 402,97.3 442,28.3 410.3,28.3 391.6,60.1 		"/>
		<path class="st1" d="M430.4,791.4c-2.1-0.9-9.5-0.6-13.9-0.4c-8.7,0.4-16.9,0.7-23.4-2.3c-7.9-3.7-17-15.9-23.8-26.5l-10.7,19.1
			L347,822h116.4C451.6,809,437,794.4,430.4,791.4z"/>
		<path class="st1" d="M696.8,802.4l-16.4,2.8l-50.9,11.8c-0.7,2-1.3,3.7-1.8,5.1h68.4L696.8,802.4z"/>
		<polygon class="st1" points="777.6,796.2 782.6,822 814.3,822 		"/>
		<path class="st1" d="M353.8,707.7c9.1-2,25.8-4,40.5-5.5c-3.6-10.7-10-31.3-10-31.3c-3-6.4-11.2-23-16.4-30.4l-9.6,24L333.7,695
			l13.9,15.9C349.9,709.3,352,708.1,353.8,707.7z"/>
		<polygon class="st1" points="766.8,790.4 706.4,800.7 705.6,822 772.9,822 		"/>
		<path class="st1" d="M488.2,110.5c2.5,2.6,4,6.1,4,10c0,0.9-0.1,1.8-0.2,2.6l48.6,25.4l67.2-120.2H534L488.2,110.5z"/>
		<polygon class="st1" points="818.6,804.3 809.9,781.1 781.6,787.4 822,815.9 822,806.5 		"/>
		<path class="st1" d="M629.1,759.7l-25.3-31.2l-24.1,2.2c1.7,7.8,4.2,15.8,6.7,20.1c4.5,7.9,21.7,23.9,33.3,34.1
			C622.5,777.3,625.7,768.7,629.1,759.7z"/>
		<path class="st1" d="M757.9,782.3l-90.7-63.8c-3.1,7.4-6.2,15-9.3,22.5l44.4,50.8L757.9,782.3z"/>
		<path class="st1" d="M650.1,707.5l-66.3-25.4c-2.4,9.7-6.5,27.3-6.3,33.9c0,1.5,0.2,3.4,0.5,5.4l29.9-2.8l25,30.9
			C638.4,735.7,644.2,721.2,650.1,707.5z"/>
		<path class="st1" d="M401.6,770.5c2.1,1,9.6,0.6,14.1,0.5c8.5-0.3,16.5-0.7,22.8,2.1c13.4,6,36,31.1,45.1,41.6l125.9-1.2
			c1.6-4.5,3.9-11,6.7-18.9c-9.9-8.6-32.1-28.4-38.1-39c-5.2-9.1-9.7-29-10.1-39.3c-0.3-8.8,4.8-29.6,6.8-37.6l-11.9-4.6
			c-1.5,12,5.4,31.5-1.3,46.1c-2.1,4.6-11.5-16.9-11.5-16.9l-8.4,5.1l10.8,16.9l2,10.1l-21.9-20.6l-5.4,3l14.8,15.5l-8.1,3.4
			l21.3,19.2l-3.4,3.4l-4.7-1.7l-0.7,10.1l-7.1,2l17.9,20.9l-4.4,3l-14.5-14.5L532,783l-7.4,15.5l-4.4-2l7.4-17.5
			c0,0-6.8-3.5-8.8-5.1c-2.7-2.1-8.4-6.6-9.8-9.8c-1.1-2.6-0.3-11.5-0.3-11.5l-6.7-2.7v-10.1l-20.6-2c0,0-32.1,0.5-42.5,2.7
			c-2.8,0.6-10.8,4-10.8,4l-15.5,2c0,0-3,7.5-5.4,8.1c-1.8,0.4-6.4-3.7-6.4-3.7l-8.1-3.4l-7.3,2.6C392,760.5,398.7,769,401.6,770.5z
			"/>
		<path class="st1" d="M812.4,760.6l3.5,9.4l6.1-1.4v-93l-1.6-6.5l-30.9,8.8c0,15.6,1.1,53.5,6.3,65.3c1.5,3.3,10,11.7,15.7,16.6
			L812.4,760.6z"/>
		<path class="st1" d="M806.6,772.1l-2.2-6c-3.8-3.4-14.6-13.3-17.2-19c-6.3-14-7.1-53.2-7.2-66.5l-17.4,4.9l12.1,93.6L806.6,772.1z
			"/>
		<path class="st1" d="M777.3,463.4c-2-5-5-11.7-7.8-14.5c-4.8-5.1-17.5-15.6-24.3-13.8c-2.7,0.7-5,6.8-5.7,9.4
			c-0.5,1.6,0.6,5.2,0,6.7c-0.4,1.1-1.9,3.9-3,3.7c-2.1-0.3-2.8-5.7-3-7.8c-0.5-3.8,3.9-11.9,2-15.2c-5.2-9.1-26.1-14.6-39.1-17.7
			c-1.3,7.8-2.2,15.3-2.1,19.6c0.4,12.9,5.8,36.6,10.9,54.2c12.4-1.8,22.7-3,25.6-3.3L777.3,463.4z"/>
		<path class="st1" d="M753.2,687.5l-75.8,7.8c-2.1,4.6-4.3,9.4-6.5,14.4l93.6,65.8L753.2,687.5z"/>
		<polygon class="st1" points="701.2,37.1 681.9,72.3 690.9,77.4 710.4,42.2 		"/>
		<polygon class="st1" points="654.7,56.9 670.5,28.3 654.8,28.3 642.7,50 		"/>
		<polygon class="st1" points="616.7,96.3 629.1,103 650.1,65.2 638,58.3 		"/>
		<polygon class="st1" points="566.3,186 579.2,193 624.5,111.3 612.1,104.6 		"/>
		<polygon class="st1" points="436.7,305.1 450.4,312.5 475.9,268 461.6,260.2 		"/>
		<polygon class="st1" points="466.2,251.9 480.6,259.8 528.4,176.4 512.6,167.9 		"/>
		<polygon class="st1" points="561.4,194.7 559.3,193.5 512.4,277.2 528.2,285.8 574.2,202.9 573.8,202.7 574.6,201.3 561.7,194.3 
					"/>
		<polygon class="st1" points="488.9,264.3 504.1,272.6 551.1,188.6 536.7,180.9 		"/>
		<path class="st1" d="M725.4,317.6l23.1-33L720.7,270c-6.3,8.4-19.4,26.6-22.2,33.9c-2.3,6-3.6,17.3-4.8,27.2
			c-0.7,6.1-1.3,11.9-2.2,16.1c-1.1,5.5-4.2,17.9-6.2,26c2-0.1,3.9-0.2,5.8-0.3c1.2-0.1,2.4-0.1,3.6-0.2c5.9-3,15.8-8.2,27.3-14.3
			L725.4,317.6z"/>
		<path class="st1" d="M779.3,184.7l27.5,16.7l15.2-21.8V145c-9.5,2.5-20.1,6-23.2,8.7C792.1,159.6,785.5,171.9,779.3,184.7z"/>
		<polygon class="st1" points="822,196.2 814.9,206.4 822,210.7 		"/>
		<path class="st1" d="M724.5,609.1c0.8-0.6,1.5-1.2,2.3-1.8c-9-10.8-29.2-35.5-35.3-46.9c-6.3-11.8-16.1-44.3-19.8-57.1
			c-6.1,1.3-11.3,2.6-14.8,4c0,0-3.2,2.3-2.8,19c0.3,9.7,1.7,18.9,1.7,19l0.2,1l-0.3,1c-0.7,2.3-6.7,23-10.5,30
			c-6,10.9-24.3,32.9-35.5,45.9l37,22.8l33.3,3.6C689.1,637.1,708.7,621.6,724.5,609.1z"/>
		<path class="st1" d="M773.5,197.3c-5.6,12.2-10.8,23.7-16.2,31.1c-5.7,8-21.6,25.2-30,34.3l26.7,14l47.3-67.6l-26.1-15.8
			C774.7,194.7,774.1,196,773.5,197.3z"/>
		<path class="st1" d="M822,307.3c-2.4,2.6-4.7,5-6.9,7.2c2,6.9,4.4,13.8,6.9,19.8V307.3z"/>
		<path class="st1" d="M779.3,130.3l-9.8,15.5l-21.3,30.7L725.7,213l-24,35.8l-0.3,0.4l17.1,9c7.7-8.2,25.3-27.1,31-35.2
			c4.8-6.7,9.9-17.8,15.3-29.6c8.5-18.5,17.3-37.7,27.8-46.8c5.5-4.8,20.5-9.1,29.4-11.3V96.6c-2.3,5.3-8.3,12.6-11,15.5
			C804.8,118.7,779.3,130.3,779.3,130.3z"/>
		<polygon class="st1" points="673.9,127.5 702.8,143.2 725,112.8 727.6,109 694.5,90.3 		"/>
		<path class="st1" d="M815.7,300.2c2.1-2.3,4.2-4.5,6.4-6.7v-71.7l-12.6-7.6l-47,67.1l47.5,25C811.8,304.4,813.7,302.3,815.7,300.2
			z"/>
		<path class="st1" d="M757,289.1L734.7,321l-2.7,32.2c25.4-13.5,55.3-30.1,70.2-40.4L757,289.1z"/>
		<polygon class="st1" points="415.3,293.4 428.4,300.6 453.2,255.6 440.4,248.6 		"/>
		<polygon class="st1" points="424.2,228.8 435.9,235.3 440,223.6 439.9,223.6 440.1,223.3 459.5,167.3 		"/>
		<path class="st1" d="M373.3,601.1l-69.7-31.2c7.4,10.4,17.9,24.5,23.3,29.3c4.3,3.8,11.6,8.4,19.4,13.2
			c6.2,3.9,12.5,7.8,17.8,11.7L373.3,601.1z"/>
		<path class="st1" d="M522.5,658.6l-111.6-42.7c-1.6,4-3.3,8.1-4.9,12l111.5,43.6C519.3,667.4,521,662.7,522.5,658.6z"/>
		<path class="st1" d="M386.1,653.2c3.4-9.7,9.7-25.5,15.9-40.7l-20-7.6l-10.2,25.7c0.5,0.5,0.9,1,1.4,1.4
			C376.9,636,382,645.2,386.1,653.2z"/>
		<path class="st1" d="M531.6,627l1.3-6.9c-23.9-8.3-68-23.8-107.4-39.3c-2.6,6.1-6.6,15.7-11,26.3l111,42.5
			C527.8,642.2,531.6,627,531.6,627z"/>
		<path class="st1" d="M674,658.6l-30.6-3.3l-40.1-24.7c-0.9,1-1.6,1.9-2.1,2.4l-15.2,39.9l67.9,26
			C660.8,683.2,667.7,669.1,674,658.6z"/>
		<path class="st1" d="M567.3,665.6l9.9,3.8l15.8-41.5l0.6-0.6c0.3-0.4,35.1-39.7,43.3-54.5c2-3.7,5.2-13.2,7.5-20.6l-9.1-4.8
			l-12.8-1.3l2,8.1l-8.8,17.9l-9.8,17.9l-2,6.7l-5.4-0.3l0.7,8.8l-7.1,7.4c0,0-20.6,25.4-22.9,35.8c-0.8,3.3,1.2,10.2,0.3,13.5
			C569.2,662.9,568.3,664.2,567.3,665.6z"/>
		<path class="st1" d="M539.1,588.2c0,0,10.7-39.7,11.8-53.3c0.6-7.2,0.4-22.1-1.7-29c-1.1-3.8-5.1-9.2-8.3-14l-59,100.1
			c20.7,7.6,39.6,14.2,52.8,18.8L539.1,588.2z"/>
		<path class="st1" d="M574.4,322l-6.2-3.4l-24.5,44.6l6,3.2c1.5-2.7,3-5.2,3.9-7C557.8,351.5,567.5,334.2,574.4,322z"/>
		<path class="st1" d="M423,699.6l3.4,5.7l49.9-5.7l2.4-5.1c0,0,20.5-2,26.3-5.4c2.6-1.5,6.2-6.1,8.1-9.1l-110.7-43.2
			c-3.4,8.6-6.3,16.3-8.1,21.5c-2.2,6.7,3.9,28.1,9.5,43C414.8,700.2,423,699.6,423,699.6z"/>
		<path class="st1" d="M348.4,210.6c18.8,10.3,30.6,17.1,35.7,19.9l5.4-9.4l-35.9-20L348.4,210.6z"/>
		<path class="st1" d="M328.6,246.4l35.1,19.4l10.4-18c-5.7-3.1-17.3-9.8-35.4-19.7L328.6,246.4z"/>
		<polygon class="st1" points="292.3,312.3 302.9,317.9 332.8,259.4 324,254.7 		"/>
		<polygon class="st1" points="372.4,270.3 385.4,277.2 411.1,232.5 398.1,225.6 		"/>
		<path class="st1" d="M350,659.7l10.5-26.4c-5.3-4.1-12.3-8.5-19.2-12.8c-4.4-2.8-8.7-5.5-12.5-8l-12.6,16l-17.6,26.1l28.8,33.2
			L350,659.7z"/>
		<polygon class="st1" points="295,385.1 321.7,338.9 305.5,330.3 282.9,378 		"/>
		<path class="st1" d="M253,758c17.4-2.3,53.8-44.3,66.4-60.3l2-2.4l-15.2-17.5c0,0-29.1,5.7-33.4,9.1c-11,8.6-28,49.1-35.4,68.6
			C243.6,757.4,249.7,758.4,253,758z"/>
		<path class="st1" d="M295.8,507.7l18.3-42.1l14.1-25l-15.1-35l-10.3-5.7l-10.4,107.7C293.8,507.8,295.8,507.7,295.8,507.7z"/>
	</g>
</g>
<g id="new_york">
	<g>
		<path class="st1" d="M62.2,100.2L48.8,56.1v44.1h-9.5V33.7h11.2l12.1,39.6V33.7h9.5v66.5H62.2z"/>
		<path class="st1" d="M94.4,43v18.8h14.7v9.3H94.4v19.8h18.2v9.3H84.3V33.7h28.3V43H94.4z"/>
		<path class="st1" d="M151.2,100.2l-5.9-39.6l-5.8,39.6h-10.3L119,33.7h10.4l6,44.1l5.7-44.1h8.9l5.7,44.1l6-44.1h10.1l-10.3,66.5
			H151.2z"/>
		<path class="st1" d="M214.6,100.2h-10.1V70.1l-14-36.4h10.6l8.5,23.6l8.3-23.6h10.5l-13.8,36.5V100.2z"/>
		<path class="st1" d="M351,100.2h-10.7l-9.9-29.1l-4.4,8.6v20.5h-10.1V33.7H326l0.2,27.7l14-27.7h10.5L337,60.1L351,100.2z"/>
	</g>
	<path class="st1" d="M250.5,32.9v9.5c2.6,0.8,4,3.3,4,7.3v34.6c0,4.9-2.2,7.6-6.2,7.6s-6.2-2.7-6.2-7.6V49.7c0-4,1.4-6.5,4-7.3
		v-9.5c-8.8,0.9-14.1,7-14.1,16.7v34.8c0,10.5,6.2,16.8,16.2,16.8s16.2-6.4,16.2-16.8V49.6C264.5,39.9,259.3,33.8,250.5,32.9z"/>
	<path class="st1" d="M298.9,69.9c4.7-2.7,7.1-7.6,7.1-14.6v-4.8c0-10.9-5.9-16.8-16.7-16.8h-14.5v16.8h10.1V43h4.1
		c4.8,0,7,2.6,7,8.2v3.4c0,5.6-2.2,8.2-7,8.2h-4.1v-8h-10.1v45.4h10.1V72.1h4.7l8,28.1h10.6L298.9,69.9z"/>
</g>
</svg>
