<?xml version="1.0" encoding="utf-8"?>
<!-- Generator: Adobe Illustrator 19.0.0, SVG Export Plug-In . SVG Version: 6.00 Build 0)  -->
<svg version="1.1" xmlns="http://www.w3.org/2000/svg" xmlns:xlink="http://www.w3.org/1999/xlink" x="0px" y="0px"
	 viewBox="0 0 850.4 850.5" style="enable-background:new 0 0 850.4 850.5;" xml:space="preserve">
<style type="text/css">
	.st0{fill:#000000;stroke:#000000;}
	.st1{fill:#FFFFFF;stroke:#000000;}
</style>
<g id="cadre_exterieur">
	<rect class="st0" width="850.4" height="850.4"/>
</g>
<g id="Calque_1">
	<g>
		<polygon class="st1" points="791.7,239.6 782.7,241.9 786.8,250.3 793.1,248.8 		"/>
		<path class="st1" d="M788.1,215.8l-2.5-16.1c-8.1,3.3-14.9,6-19.6,7.9l5.3,10.9C775.4,217.8,781.3,216.9,788.1,215.8z"/>
		<polygon class="st1" points="739,154.2 749.1,174.8 754.2,173.4 750.1,151.3 		"/>
		<polygon class="st1" points="724.9,202.3 747.4,203.6 738.7,185.7 726.3,189.1 727.3,191.8 729.9,190.8 732.8,198.1 724.4,201.3 
					"/>
		<path class="st1" d="M791.3,291.6l-39.9,18.2c0.2,0.3,3.3,6.3,3.5,6.5c7.6-3.4,29.8-13.8,39.4-18.1
			C794.1,297.9,791.5,292,791.3,291.6z"/>
		<polygon class="st1" points="761.7,201 784.5,191.8 781.7,173.9 752.5,181.9 		"/>
		<path class="st1" d="M683.5,199.7l32.7,2c0-0.1-2.5-4.7-6.3-11.3C705.2,192.1,693,196.4,683.5,199.7z"/>
		<path class="st1" d="M728.3,226.3c0,0-12.8,2.4-27,5c0.8,23.4,1.8,56.7,1.9,59.9c2.7,2.8,12.2,13.2,13.5,14.5
			c1,0.5,2.5,1.3,4.6,2.5c5-2.3,50.8-23.2,63.9-29.1c-8.8-18.2-19-39-25.2-51.9C749.5,226.9,728.3,226.3,728.3,226.3z"/>
		<path class="st1" d="M701,223.4l47.3-7.1c0,0-40-0.9-47.6-1.4C700.8,217.2,700.9,220.1,701,223.4z"/>
		<path class="st1" d="M502.2,279.9c-7.4-0.1-15.4-0.2-22.7-0.4l0.2,14.5l0.1,11.2c4,0.6,9.8,0.8,15.3,0.6l-0.7-17.1
			c0,0,6.7-3.1,9.4-4.4C503.3,283,502.7,281.3,502.2,279.9z"/>
		<path class="st1" d="M641.2,273.6l7.4,12.5c0.3,0.6,3.6,10.9,5.4,16.1c0.4-0.1,5.8-0.8,6.2-0.9l-2.6-7l-12.7-20.8L641.2,273.6z"/>
		<path class="st1" d="M474.2,297.7l-11.1-4.5c0.3,1.1,0.5,2,0.8,3.2c3.5,2.7,7.5,5.5,10.4,7L474.2,297.7z"/>
		<path class="st1" d="M567.1,268.4c0.3,0.7,1.3,2.6,1.5,3.1l22.4-4.9c0.1,0,1.1-0.1,2.3-0.2l17.8-47.9l-8.9-14.6l-3.7-0.3v8.8
			l-8.1,0.5c0.6,2.9,1.4,6.5,1.6,7.6c1.5,0.8,7.5,4.2,7.5,4.2l-4.3,7.8l-9.5,1.3l-0.8-5.4c0,0,6.9-1.4,7.1-1.7
			c-1.8-1-4.9-2.8-4.9-2.8l-2.3-10.7l-22.8,1.6c0,0-10.1,19.6-11.7,22.6c0.9,2,6.8,16.8,6.9,16.9c0.1,0,5.3,5.4,5.3,5.4
			c0.2,0.3,1.2,2.3,2.5,4.7c1.6-0.2,5.1-0.6,6.9-0.9c0.5-2.2,1.5-6.3,1.5-6.3l5.3,1.3l-3.2,7.9L567.1,268.4z"/>
		<path class="st1" d="M432.2,280.1l0.9-1.8c-3.3-0.1-9.1-0.7-10.5-1c-0.9,1.8-2.5,5.4-3.5,7.6l8.9,3.6l1.7-3.3l-5.1-1.3l1.4-4.2
			L432.2,280.1z"/>
		<path class="st1" d="M424.6,253.9c0,0-7.6,15.5-14.3,27.4l3.7,1.5l5.4-11.8c0,0,1.3,0.3,2.7,0.5
			C423,267.4,424.6,253.9,424.6,253.9z"/>
		<polygon class="st1" points="798.3,104.9 758.4,111.1 726.4,127.2 736.1,147.1 803.3,129.9 		"/>
		<polygon class="st1" points="774.9,225.8 780.3,236.9 790.9,234.2 789.3,223.5 		"/>
		<polygon class="st1" points="772.7,145.2 770.8,156.7 760.2,157.9 761.8,171.3 764.5,170.6 799.3,138.2 		"/>
		<path class="st1" d="M670.7,147.6l6.7,11.7l11.5-6.7l7.1,10c0.1-1.6,0.2-2.9,0.2-3.4c-0.2-0.3-10.1-22.4-12.9-28.6L670.7,147.6z"
			/>
		<polygon class="st1" points="712.1,131.5 689.9,126.1 701.1,151.2 704.1,157.8 702,187.6 715.8,183.9 710.7,171.1 717.9,168.2 
			723.4,181.8 735.2,178.6 712.4,131.6 		"/>
		<path class="st1" d="M688.1,259l-25,2c0,0-3-21.7-3.2-23.3c-0.8-1.2-12.9-19.3-17.6-26.2c-7.8-0.4-14.7-0.9-19.7-1.1l33.9,55.3
			c12.4-0.1,25.1-0.3,31.8-0.3L688.1,259z"/>
		<path class="st1" d="M449.5,347.6l17.8-5.6l-2.7-10.6c-4.6,3-7.8,5.3-8.7,6.2C456,337.5,452.6,342.8,449.5,347.6z"/>
		<path class="st1" d="M604.6,488.4l7.3,19.5l18.9-6c-3-7.7-5.4-14.2-6.1-15.9C621.2,486.5,610.3,487.7,604.6,488.4z"/>
		<path class="st1" d="M583.3,492.2l6.5,22.7l14.7-4.6l-7.8-20.8C593.3,490.1,588.5,491.1,583.3,492.2z"/>
		<polygon class="st1" points="757.7,347.1 762.3,360.4 780.8,351.9 774.6,338.1 		"/>
		<polygon class="st1" points="577.8,555.8 592.3,552 584.5,524.8 569.7,529.5 		"/>
		<path class="st1" d="M559.9,497.8l7.5,24.2l15-4.7l-6.7-23.4C568.6,495.5,562.2,497,559.9,497.8z"/>
		<polygon class="st1" points="515.1,546.7 521.2,571 550.1,563.3 542.6,538 		"/>
		<polygon class="st1" points="557.7,561.2 570.2,557.9 562.2,531.8 550,535.7 		"/>
		<polygon class="st1" points="665,499.3 661.3,526.7 675,521.7 666.9,498.7 		"/>
		<path class="st1" d="M614.6,515.2l10.5,27.9l16.6-4.5l1.8-3.6c-1.8-4.6-6-15.5-9.9-25.9L614.6,515.2z"/>
		<polygon class="st1" points="635.2,492 638.3,499.6 664.2,491.4 661.3,483.2 		"/>
		<polygon class="st1" points="668.6,480.5 671.7,489 695.4,481.5 692,472.2 		"/>
		<polygon class="st1" points="649.3,552.9 643.3,571.5 655.7,569.5 		"/>
		<polygon class="st1" points="641.1,506.9 650.6,531.7 652.9,530.9 656.8,501.9 		"/>
		<polygon class="st1" points="599.8,550 617.6,545.2 607.2,517.6 591.9,522.4 		"/>
		<path class="st1" d="M764.1,468.1l-32.3,10.2c2,5.8,4.3,12.4,6.9,19.9l31.5-11.6L764.1,468.1z"/>
		<polygon class="st1" points="777.2,446 762.5,451.4 765.8,459.3 780.3,454.7 		"/>
		<polygon class="st1" points="715.6,515 730.6,556.9 743.6,554.7 728.1,510.3 		"/>
		<polygon class="st1" points="788.1,416.1 785.3,406.1 779,408.4 782.3,417.8 		"/>
		<path class="st1" d="M681.9,580c0.5,1.4,1,2.6,1.3,3.4c4.1,0.4,34.2,4,36.2,4.2c1.4-0.6,20.9-10,30.6-14.7l-1.7-4.9L681.9,580z"/>
		<polygon class="st1" points="784,359.1 764.9,367.9 769.8,381.7 790.4,373.4 		"/>
		<path class="st1" d="M666.7,601.1l-6.3-18.2l-21.5,3.6c-0.3,1.6-0.8,3.6-1.2,6.1l11.9,17.8L666.7,601.1z"/>
		<path class="st1" d="M489.9,554.7c-1.6,7.8-3.1,16.9-4.4,25.9l28.2-7.6l-6-24L489.9,554.7z"/>
		<polygon class="st1" points="674.8,624.5 669.2,608.5 653.9,616.9 661.9,628.9 		"/>
		<path class="st1" d="M637.5,553.8l-14.8,4.4l10.8,18.1C634.6,573.2,636,558.4,637.5,553.8z"/>
		<path class="st1" d="M508.7,521l4.5,18.1l27.1-8.5l-6.5-21.4C522.6,514.2,511.7,519.3,508.7,521z"/>
		<path class="st1" d="M467.7,254.4l-1.9,9.1c1.1,0.2,6.2,1.6,7.4,1.8l2-9.4L467.7,254.4z"/>
		<path class="st1" d="M522.3,190.3l-3.1-0.5l-2.3,17.8c1.5,0.1,2.9,0.2,4,0.2C521.3,203.8,521.9,195.7,522.3,190.3z"/>
		<path class="st1" d="M540.4,208.6l0.9-20.2l-4.2-0.2v20.4C537.9,208.5,539.4,208.6,540.4,208.6z"/>
		<path class="st1" d="M525.9,234.1l5.3-11.1l7.8,1.9l5.7-10.6c-7-0.3-14.5-0.6-18.6-0.7L525.9,234.1z"/>
		<path class="st1" d="M549.6,249.7l-6.5,0.8l-2.7,5l10.4-2.9C550.4,251.6,550,250.7,549.6,249.7z"/>
		<path class="st1" d="M531.2,153l-1.5,16.3l11.7,1.4v4.4l6.8-2.4c-1.2-2.7-4.6-10.8-5.2-12.4C541.9,159.6,535.8,155.9,531.2,153z"
			/>
		<path class="st1" d="M575.8,196.1v-17.1l-2.7,1.6l-4.3,14.9C570.6,195.6,573,195.9,575.8,196.1z"/>
		<path class="st1" d="M559.8,174.5l1.6,4.1c3.2-1,8.1-2.6,8.2-2.6c0,0,1.4-0.9,3.5-2.1l-1.8-3.4L559.8,174.5z"/>
		<path class="st1" d="M550.8,214.5l-9,16.7l4.8,2l9.7-18.4C554.8,214.7,552.9,214.6,550.8,214.5z"/>
		<path class="st1" d="M428.9,237.7l-2.8,11l6.2,1.6l-3,13.8l13.6-0.4c-2.3-4.9-6.3-13.9-6.3-13.9c-0.2-0.9,0.4-6.5,0.9-10.5
			L428.9,237.7z"/>
		<path class="st1" d="M544,238l-5.6-2.3l-18.2,30.4l-8.9,8.5c5,0.1,9.2,0.2,11.9,0.2L544,238z"/>
		<path class="st1" d="M551,159.4l4.6,10.8l11.6-4.1c-0.9-1.3-4.2-6.7-8.1-12.8L551,159.4z"/>
		<path class="st1" d="M546.5,191.5l7.2,1.4c1.7-5.3,3.1-9.7,3.3-10.4c-0.3-1-1.5-4.1-2.4-6.3l-7.6,2.7L546.5,191.5z"/>
		<path class="st1" d="M526.4,208.1c1.5,0.1,3.4,0.2,5.6,0.3v-20.5l-4-0.2C527.7,192.3,526.8,203.2,526.4,208.1z"/>
		<path class="st1" d="M645.1,115.2L635,125.6c4.8,2.9,8.9,5.4,10.5,6.4c2-2.8,7.1-9.6,10.5-14.2L645.1,115.2z"/>
		<path class="st1" d="M629.4,131.3l-13.1,13.4c4.5,3,11.7,7.7,14.8,9.8c2.3-3.4,7.8-11.6,10.6-15.7L629.4,131.3z"/>
		<polygon class="st1" points="613.9,195.7 619.6,196.1 624.1,184.1 599.1,146.7 589.2,155.6 		"/>
		<path class="st1" d="M630.9,165.8c0,0,8.4-0.6,11.1-0.8c1.1-1.9,4.1-7.4,5.9-10.6l-3.3-6.1L631.9,161L611,150.6l16.4,24.5
			L630.9,165.8z"/>
		<polygon class="st1" points="605.2,141.9 610.4,139.5 622.5,127.1 610.2,119.7 		"/>
		<path class="st1" d="M612,111.6c3.1,1.9,9.5,5.8,16.1,9.8l8.2-8.4l-23.3-5.7L612,111.6z"/>
		<path class="st1" d="M593.1,203.2l-2.4-0.2l-2.8-0.3l-21-2l-2.9,8.5c6.8-0.5,24-1.6,29.1-2V203.2z"/>
		<path class="st1" d="M561.5,199.9c-1.1-0.2-2.5-0.5-4-0.7l-3.2,10c1.6,0.1,2.9,0.2,4,0.2C559.2,206.8,560.3,203.5,561.5,199.9z"/>
		<path class="st1" d="M567.5,182.3c-1.8,0.6-3.8,1.2-5.2,1.7l-3.2,9.9l4.1,0.8C564.9,190.1,566.4,185.5,567.5,182.3z"/>
		<path class="st1" d="M588.3,181.1l-5.3-6.9l-2.8,1.7c4.8,9.4,10.5,20.4,11.2,21.8c1.1,0,4.1,0.3,7.4,0.6L588.3,181.1z"/>
		<path class="st1" d="M545.8,208.9c1,0.1,1.9,0.1,2.9,0.1c0.9-2.7,2.1-6.6,3.4-10.9c-2.1-0.4-4.1-0.8-5.7-1.1L545.8,208.9z"/>
		<path class="st1" d="M520.5,232.9c0.1-5.2,0.2-14.8,0.3-19.7c-0.3,0-0.5-0.1-0.8-0.1l-6.1,18.3L520.5,232.9z"/>
		<path class="st1" d="M471.3,274l0.8-4.6c-2.1-0.4-6-1.2-7.1-1.3l-0.9,5.8C465.2,273.9,466.9,274.2,471.3,274z"/>
		<path class="st1" d="M468.2,289.4l1.2-4l4.8,1.4l-0.1-7.4c-6.4-0.1-11.5-0.2-14.5-0.3c0.4,1.3,1,4,1.9,7.5L468.2,289.4z"/>
		<path class="st1" d="M442.9,240.4c-0.4,3.8-1,8.4-1,8.4c0.3,0,4.9,10.2,6.9,14.7l5.6-0.2l4.5-21.2L442.9,240.4z"/>
		<path class="st1" d="M454.6,291.2l-3.1-12.2c-2.3-0.1-4.9-0.2-7.7-0.3l-0.5,10.2l-5.4-0.1l1.9-4.4c-0.4-0.1-2.5-1-3-1.2
			c-0.9,1.7-2.5,4.9-3.7,7.3l5.2,2C444.6,291.3,451.3,291.2,454.6,291.2z"/>
		<path class="st1" d="M468.5,197l-16.7-1.6c-3,16.8-5.4,29.7-6.7,37.2l15.4,1.7L468.5,197z"/>
		<path class="st1" d="M427.5,272.6c1.4,0,9.7,0.3,17.4,0.6c0-1.4-0.1-3-0.2-4.2c-6.6,0.2-13.6,0.3-16.5,0.4L427.5,272.6z"/>
		<polygon class="st1" points="674.3,496.4 682.3,518.9 705.6,510.3 698,488.9 		"/>
		<path class="st1" d="M504.9,241.4c-2.5-1.7-6.8-4.6-8.9-6c-0.8,1.6-2.1,4.2-2.9,5.8l10.7,3L504.9,241.4z"/>
		<path class="st1" d="M487,227.6l5.8,1.5c0.6-1.7,1.7-4.5,2.3-6l-6.6-1.7L487,227.6z"/>
		<polygon class="st1" points="502.4,249.1 496.5,247.4 494.9,253.7 500.2,255.1 		"/>
		<polygon class="st1" points="483.7,243.8 481.8,251.5 489.7,253 491.3,245.8 		"/>
		<path class="st1" d="M513.2,266c-0.5-0.7-2-2.6-2-2.6s6.6-19,8.7-25l-7.7-1.7l-12.6,37.7c1.1,0,2.2,0,3.3,0
			C504.6,273,510.7,268,513.2,266z"/>
		<polygon class="st1" points="499.2,260.3 481.4,256.9 479.7,263.2 497.5,265.3 		"/>
		<path class="st1" d="M489.3,216.8l13.6,3.5c1.1-1.1,2.4-2.5,3.1-3.2c-0.1-0.5-0.2-2.3-0.3-4.7c-1.2-0.1-2.1-0.1-2.1-0.1
			s-6.3,0.2-13.4,0.3L489.3,216.8z"/>
		<path class="st1" d="M673.2,174.1c-0.2-0.8-0.4-1.9-0.6-3.1c-4.5,2.6-9,5.2-12.5,7.3c1.6,1.3,3,2.6,3.8,3.3
			C666.6,179.4,671,175.9,673.2,174.1z"/>
		<polygon class="st1" points="478.4,242.3 470.7,240.1 468.5,249 476.4,250.5 		"/>
		<path class="st1" d="M742.1,712.6l-7.2-19.8c-9.5,3.4-17.9,6.3-25.1,8.7l6.9,19.8L742.1,712.6z"/>
		<polygon class="st1" points="780.3,715.1 778.2,708.6 752.2,717.4 754.3,723.4 		"/>
		<path class="st1" d="M742.2,690.2l7.3,19.9l26.2-9l-6.8-20.3C759.5,684.2,750.6,687.3,742.2,690.2z"/>
		<polygon class="st1" points="776.4,648.1 770.8,632.2 696,661.9 702,679.2 		"/>
		<path class="st1" d="M732.2,685.4l-3.3-9l-24.3,10.2l2.6,7.6C714.3,691.7,722.7,688.8,732.2,685.4z"/>
		<path class="st1" d="M750.1,607.3l-65.3,22.1l8.7,25.1c10.2-4.1,38.7-15.4,74.8-29.7l-4.7-13.4L750.1,607.3z"/>
		<polygon class="st1" points="623.4,66.4 620.5,76.2 641.9,80.5 648.7,74.1 		"/>
		<path class="st1" d="M607.6,697.9l-9.5-1.2c1,12.4,2.1,25.5,2.9,30.8L607.6,697.9z"/>
		<path class="st1" d="M556.2,304.7l-4.2-16.6c-1,1-2.1,1.9-2.8,2.6l-8,6.8c-4.9,2.9-24.7,11.7-32.1,14.2c-3.4,1.2-9.4,1.8-15.6,1.9
			c-7.5,4.5-15.3,9.2-21.8,13.3c1.1,4.4,2.1,8.7,3.2,12.7l21.3-6.7c0.1,0,1.6-0.3,3.9-0.8l-4.1-12.2l2.5-2.4L556.2,304.7z"/>
		<path class="st1" d="M527.1,343.9c5.4-1.2,10.6-2.5,15.7-3.7l-1-8.4l-16.2,3.2L527.1,343.9z"/>
		<path class="st1" d="M558.3,310.5c-21.3,4.5-49.1,10.5-53.9,11.5c1,2.6,2.3,6.1,3.3,8.6c13.1-2.6,34.7-6.8,53.3-10.5L558.3,310.5z
			"/>
		<path class="st1" d="M566.3,81.5L666.6,106c-7.7-6.9-17-15.3-17.8-16.1c-1.2-0.2-46.6-9.4-81.5-16.5
			C567,75.8,566.6,78.8,566.3,81.5z"/>
		<path class="st1" d="M584.3,110.6l14.8,22.3c1.6-7,4.8-20.8,6.2-27.4l-10.2-2.5L584.3,110.6z"/>
		<path class="st1" d="M578.5,52.9C574.9,58.5,572,63,570,66l42.8,8.7l3.2-10.5L578.5,52.9z"/>
		<path class="st1" d="M623.2,753.2c-2.5-1.4-10.9-9.2-15.6-13.8l-0.2,5c3.5,8.8,8.3,20.6,9.7,22.5c1.6,1.9,6.2,4.7,9.6,4.5
			c1.2-0.1,2-0.5,2.7-1.5l4.1-8.9c3.1-7.4,6.3-15,11.2-17.6l-2.1-2.4C627.8,755.6,624.6,754,623.2,753.2z"/>
		<path class="st1" d="M720.8,595.7l-41.7-4.9l-3.3-9.9l-7.6,0.6l14,40.5l76.1-25.7l-5.6-16c-9.8,4.8-30.9,14.9-30.9,14.9
			L720.8,595.7z"/>
		<polygon class="st1" points="746.9,725.8 744.8,720 719.2,728.7 721.1,734.1 		"/>
		<path class="st1" d="M617.6,650.3l-13.3-2.3c-4.4,12.1-7.6,21.2-7.9,23l16,4.3L617.6,650.3z"/>
		<path class="st1" d="M608.7,692.5l2-9.6l-13.9-3.4c0.2,3.3,0.5,7.3,0.9,11.6L608.7,692.5z"/>
		<path class="st1" d="M589.8,618.5c-1.1,0.2-25.7-0.3-34.6-0.4v26.1c0.6,1.2,22.2,40.5,36.2,65.8c-1.6-17.6-2.9-38.9-2.9-39.3
			c0-3,10.2-30.6,21.1-59.5L589.8,618.5z"/>
		<path class="st1" d="M803.1,589.3l-29,9.8c0.9,2.5,1.7,5,2.6,7.5c7.5-2.3,21.8-6.8,28.2-8.8C804.4,595.2,803.8,592.4,803.1,589.3z
			"/>
		<path class="st1" d="M751.5,534.6c2,5.7,4,11.5,6.2,17.7l36.3-6.1c-2-9.9-3.8-18.6-4.9-24.2L751.5,534.6z"/>
		<path class="st1" d="M779,655.5l-42.9,17.9l3.4,9.5c13.2-4.6,28.1-9.8,43.8-15.2L779,655.5z"/>
		<path class="st1" d="M766.4,577c1.7,4.8,3.4,9.8,5.2,14.8l29.9-10.2c-0.5-2.6-1.1-5.2-1.7-7.8C794.4,574.4,777.1,576,766.4,577z"
			/>
		<path class="st1" d="M762.4,565.7c0.4,1.2,0.9,2.5,1.3,3.8c11-1.1,29.7-2.8,34.5-3.2c-0.4-2.1-0.8-4.2-1.3-6.3L762.4,565.7z"/>
		<path class="st1" d="M476.7,347.2c0.8,3.3,1.4,6,2,8.2c1.7-0.4,3.4-0.8,5.2-1.2c4.6-1.1,9-2.1,13.5-3.2L496,341
			C492.6,342.1,485,344.5,476.7,347.2z"/>
		<path class="st1" d="M310.6,782l4.3,1.4l3.2-1.2l-0.9-13.5l-7.2,1.2C310.3,774.5,310.5,779.9,310.6,782z"/>
		<path class="st1" d="M497.8,718l5.4-0.5c-1.4-6.2-2.8-12.7-4.2-19.2C498.7,704.8,498.2,711.6,497.8,718z"/>
		<path class="st1" d="M496.4,742c0,0,2.1,16.2,2.4,18.5c0.4,0.7,7.9,12.6,14.8,23.9l7.5-3.1l-5.4-7.9c-0.2-0.5-5-22.4-11.3-50.7
			l-6.9,0.7C496.9,734,496.4,742,496.4,742z"/>
		<path class="st1" d="M388.8,798.3l4.4-2c-2.6-6.1-3.9-11.3-3.9-11.3c0-3.2-0.5-6.2-0.4-9.4c-0.9-0.6-5-3.3-6.7-4.5
			c-1.2,0.6-3.3,1.7-4.9,2.4l0.4,3l-5.4,0.7l-2.4-17.2l-47.2,7.9l0.8,12.5l13.8-5.2l1.9,5.1c-4.9,1.8-9.5,3.6-15.4,6.1l47.7,15.4
			l-4.3-20.9l5.4-1.1l4.8,23.8l6.1-2.8l-5.5-19.8l5.4-1L388.8,798.3z"/>
		<path class="st1" d="M384.6,740.7c-4.5,0.4-52.2,2.7-60.9,3.1c-1.8,2.5-12.5,16.9-13.9,18.8c0,0.3,0,1,0.1,1.8l77.3-12.8
			C386.3,747.8,385.3,743.8,384.6,740.7z"/>
		<path class="st1" d="M563.8,797.5c-6.9,5.4-31.7,10.3-37.6,11.4l-0.1,5.1c14.2-0.9,77.3-4.9,79.1-5.1c0.5-0.4,4.1-4,8.5-8.4
			l-10.9-12.7l0.9-31.6c-1.7-4-3.5-8.5-5.7-14.2l-41.1-78.6l-13.1,9.5l-3.2-4.4l13.7-9.8l-5.4-9.8l-12.8,5.7c0,0,2.7-52.3,2.7-52.4
			c-2.8,0.5-22.7,4.1-37.5,6.7l-1.1,13.1l-9.4,2.1c2.2,9.9,4.6,21.1,7.2,33l0.1-0.1l18,7.8l4.9,21l20.7-2.8l1.1,7.7l-19.9,2.7l4,17
			l11.8-2l-3.6-9.6l15.3-1.1l0.6,7.7c0,0-2.4,0.2-4.9,0.4c2,5.3,5.2,13.8,5.2,13.8l-7.3,2.7l-2.4-6.5l-12.8,2.2l7.3,30.6l-7.6,1.8
			c0,0-4.5-19-9.2-38.5l-9,0.8c7,31.9,12.6,57.5,12.6,57.6c0.1-0.1,4.8,6.6,7.6,10.5c5.9-3,16.6-8.2,21-8.2
			c5.6,0,13.3,7.7,15.3,13.7C568.2,790.9,567.2,795,563.8,797.5z"/>
		<path class="st1" d="M517.3,704.3c-4-16.9-7.7-32.2-8.1-33.9c-1.6-0.7-5.8-2.5-9.3-4c2.9,12.8,5.7,26.1,8.5,38.7L517.3,704.3z"/>
		<polygon class="st1" points="797,222.3 799.5,239.1 820.1,230.8 818.6,216.7 		"/>
		<path class="st1" d="M689.2,292.2l-0.6-19.1l-27.4,0.3l14.4,23.4C680.6,295.1,686.1,293.2,689.2,292.2z"/>
		<path class="st1" d="M795.8,214.6c3.4-0.6,15.5-4.8,22-5.9l-2.3-20.5c-5.3,2-17.8,6.7-22.4,8.6L795.8,214.6z"/>
		<polygon class="st1" points="821,101.4 808.6,103.3 810.5,112.2 821,104.9 		"/>
		<path class="st1" d="M289.6,752.9l14.3,4.7l15.8-21.3c0,0,0.6-0.1,1.6-0.1l16.4-10.1l-0.8-3.6c-27.2,12.5-52,24-52.8,24.3
			c-0.4,1-7.4,15.5-13.6,28.5c8,1.2,24.4,3.8,32.3,5l-0.7-17.6c-2.5-0.8-8.4-2.8-10.5-3.4c-1.2,1.5-3.2,4-3.2,4l-4.2-3.4l4.4-5.5
			L289.6,752.9z"/>
		<path class="st1" d="M442.2,503.7l-0.5-2.6c-4.1,1-8.2,1.5-12.3,2.4l-12.2,27.2c1.2,4.7,2.8,9.1,3.8,10.1
			c0.3,0.2,5.8,2.9,31.5-4.9c2.1-1.3,7.1-9.9,7.4-12.2c-0.2-2.7-4-18.4-6.4-24.2l-5.4,1c4.1,5.6,4.4,12.6,8.2,21.6
			c0.3,5.7-8.7,9.8-12.3,12.2c-3.6,2.4-21.1,0.8-21.1,0.8l-1.3-4.5l10.2-24.5L442.2,503.7z"/>
		<path class="st1" d="M403,537.8c0.3,1.1,3.9,14.4,7.8,28.5l44.9-10.2l-0.4-5.9l16.9-8.9v-0.1l27.7-23.3l-6.8-26.4l-27.4,5
			c8.1,7.1,16.3,15.6,16.3,21c-0.5,6.4-18.9,21.6-26.5,25.5c-30.6,9.2-36.8,5.4-38.8,4.1c-5.9-4.4-5.8-31.3-5.5-41.5h-4.5
			c0.1,9.6,0.5,21.4-0.3,24C406.4,529.7,404.1,535.2,403,537.8z"/>
		<path class="st1" d="M281.8,520.4l-5.7,0.7l14.6,111.5l25.6-6.8l-8-37.7c-0.1-1.3,2.3-21.4,2.3-21.4l7.7,0.9l-2.4,20.2
			c0.1,0,3.4,15.4,7.8,36.1l30.8-8.2l-5.1-24.5l7.7-1.6l4.9,24.1l49.8-13.3l-17.1-63l4.1-9.9c0.4-1.6,0.7-9.9,0.5-21.2
			c-16.7-0.3-78.4-1.4-99,2.5c0,0-8,0.4-10.6,4.9l24.2-2.5l0.3,5.2l-24.2,3.1c5.4,10.1,12.4,22.8,13.9,25.6c4.1-1.1,14-3.9,14-3.9
			l2.2,7.5l-20,5.6L281.8,520.4z"/>
		<path class="st1" d="M506.7,513.3l43.6-19.9l-6.2-20.2c-1.6,0.5-3.7,1.3-4.8,1.7l5.3,16.5l-39.2,16.6L506.7,513.3z"/>
		<path class="st1" d="M474.2,517.4c-0.3-2-6.1-8.1-13.6-14.8c3.1,7.7,5.2,11.4,7,22C471.4,521.3,473.9,518.7,474.2,517.4z"/>
		<path class="st1" d="M416.5,519.4c2.8-4.2,5.5-9.4,8.6-14.9l-8.4,0.7C416.6,507.8,416.5,519.4,416.5,519.4z"/>
		<path class="st1" d="M56.7,754.4l13.5-4.2l14-25.6c-2-0.4-6-1.4-9.5-2.3L56.7,754.4z"/>
		<path class="st1" d="M115.4,741.3c-3.6-2-16.4-9.1-24.1-13.3l-11.9,21.8c9.4,0.5,26.3,1.7,34.1,2.3
			C114,748.9,114.7,745.2,115.4,741.3z"/>
		<path class="st1" d="M122.7,701c-0.4-0.7-2.6-3.9-5.3-7.9l-30.6,3.5c-1.2,4.6-2.3,8.2-2.3,8.2l-5.9,10.5l9.6,2.4
			c0.8,0.3,20.6,11.2,28.6,15.5C119.3,719.3,122,704.8,122.7,701z"/>
		<path class="st1" d="M173.7,648.9l-27-13.3l-12.1,10.7c-0.3,0.2-13.8,10.3-25.9,19.3l9.8,14.8l20.1-18.1
			C139.3,661.8,161.3,653.5,173.7,648.9z"/>
		<path class="st1" d="M92,678c-0.4,1.5-1.6,5.7-2.9,10.4l23.5-2.6c-3.7-5.6-7.6-11.5-10.3-15.5C97.9,673.6,94.1,676.4,92,678z"/>
		<path class="st1" d="M743,377.6c-2.2,1-4.6,2-6.9,3l4.5,12.7l5.2-2.1L743,377.6z"/>
		<polygon class="st1" points="663.5,568.2 690,563.7 677.6,529 661.4,535 662.8,544.7 657.6,551.2 		"/>
		<path class="st1" d="M636.9,694.9l-20-3.6c-0.5,2.5-1,4.9-1.5,7.3l-0.1,0.3h-0.1c-0.7,3.4-1.4,6.7-2,9.8l24.6,6.2l-1.3,5.3
			l-24.4-6.1c-1.9,9-3.3,15.6-3.9,18.8l0.1-0.1c6.1,5.9,15.6,14.7,17.5,15.7c1.2-0.5,8.4-6.7,14.2-12.4c0.2-1.9,1.8-18.9,1.9-19.1
			c-0.2,0-4-12.1-4-12.1C637.9,704.6,637.5,700.6,636.9,694.9z"/>
		<polygon class="st1" points="685,526.3 691.7,545.1 715.4,537.5 708.3,517.7 		"/>
		<polygon class="st1" points="783.3,398.6 779.8,386 772.3,389.1 776.5,401 		"/>
		<polygon class="st1" points="710.2,485 705.4,486.5 712.9,507.7 717.4,506 		"/>
		<polygon class="st1" points="725.6,503 718.4,482.5 714.5,483.8 721.6,504.4 		"/>
		<path class="st1" d="M475.4,673.4c0-0.4,11.3-12.9,14.6-16.5c-0.8-3.6-1.6-7.3-2.4-10.8l-23.4,12.3l7.1,16.9
			C473.8,674.2,475.4,673.4,475.4,673.4z"/>
		<path class="st1" d="M457.3,662.1l-10.8,5.7l-3.7-6.9l11.4-6l-3.9-9.1L406,666.3l7.7,36.4l12.6-5.8c0,0,23.4-11.2,37.9-18.1
			L457.3,662.1z"/>
		<polygon class="st1" points="760,415 768.8,440.8 774.7,438.6 765.8,413 		"/>
		<polygon class="st1" points="402.3,686.3 398.8,669.7 375.9,680.2 379.3,697 		"/>
		<path class="st1" d="M394.6,728.4c0.9-1.6,8.8-14.7,12.3-20.5l-3.4-16c-4.5,2-12.7,5.8-23.1,10.6l6.1,29.3
			C389.2,730.6,393,729.1,394.6,728.4z"/>
		<polygon class="st1" points="738.6,315.7 723.9,322.5 732.4,344.6 748.3,336.2 744.9,329.2 744.8,329.2 744.2,327.8 741,321.3 
			741.2,321.3 		"/>
		<polygon class="st1" points="733,453.8 723.9,427.8 716.9,430.2 726.2,456.3 		"/>
		<path class="st1" d="M716.6,368.9c1,3.1,2,6.7,2.7,10.6l7-3l-3.8-10.7L716.6,368.9z"/>
		<polygon class="st1" points="766.2,319.6 752,326 755.2,332.5 768.8,325.3 		"/>
		<polygon class="st1" points="743.3,400.7 747.1,411.3 752.6,409.4 747.9,398.8 		"/>
		<polygon class="st1" points="755.2,395.9 760,406.8 763.2,405.6 759.3,394.3 		"/>
		<path class="st1" d="M373.2,705.8c-9.1,4.2-19,8.8-29.1,13.4c0.4,1.8,0.7,3.2,1,4.5c6.6-1.1,17.6-2.9,17.6-2.9l0.8-0.1l14.1,6.9
			L373.2,705.8z"/>
		<polygon class="st1" points="714.2,422.9 721.3,420.5 717.9,410.8 710.9,413.6 		"/>
		<polygon class="st1" points="755.3,425.3 745.4,429.3 750.6,447.4 761.5,443.5 		"/>
		<polygon class="st1" points="736,403.6 725.1,407.9 728.6,417.8 739.7,414 		"/>
		<polygon class="st1" points="743.3,450.1 735.7,423.6 731.2,425.2 740.3,451.2 		"/>
		<path class="st1" d="M722.6,400.5l10.9-4.3l-4.4-12.5c-3.4,1.4-6.4,2.7-8.8,3.8c0.1,2,0.1,4-0.2,6L722.6,400.5z"/>
		<polygon class="st1" points="702.8,479.2 715.8,475.1 712.2,465.1 699.4,469.6 		"/>
		<polygon class="st1" points="729.5,362 733.5,373.2 741.5,369.7 738.9,357 		"/>
		<path class="st1" d="M758.3,461.7l-3.1-7.6l-28.4,10.3c0.7,1.9,1.4,4.1,2.3,6.5L758.3,461.7z"/>
		<polygon class="st1" points="722.7,558.2 717.9,544.8 694.3,552.4 697.8,562.4 		"/>
		<polygon class="st1" points="324.6,664.9 319.2,641.1 292.5,648.3 295.5,673.2 		"/>
		<path class="st1" d="M453.3,737.3l-6.3-8.2c-3.9,2.8-7.9,5.8-11.6,8.5l7,9.1L453.3,737.3z"/>
		<path class="st1" d="M293.4,709.7l-4.3-26.7c-2.9,0.9-5.7,1.6-8.5,2.4l3.1,28.6L293.4,709.7z"/>
		<polygon class="st1" points="277.3,653.9 279.8,677.7 288,675.4 284.2,652 		"/>
		<polygon class="st1" points="297.4,734.6 294.7,717.8 284.7,722.4 286.6,739.6 		"/>
		<path class="st1" d="M330.5,692.6l-4.3-20c-9.6,2.7-19.7,5.6-29.4,8.4l4,25.4L330.5,692.6z"/>
		<path class="st1" d="M362.6,654.1l-5.1-23.3l-30.8,8.2c1.8,8.2,3.6,15.3,5.4,23.7L362.6,654.1z"/>
		<path class="st1" d="M621.8,668.2c-1.3,6.1-2.5,12-3.7,17.8l18.3,3.3c-0.5-5.6-1.1-11.8-1.6-17.5
			C630.9,670.7,625.6,669.3,621.8,668.2z"/>
		<path class="st1" d="M624.2,594.8c-5.3,13.8-11.8,31.1-17.2,45.8l12.1,2l9.8-46.5C627.5,595.8,626,595.4,624.2,594.8z"/>
		<path class="st1" d="M631.3,584.5l-26.2-20l-120.7,32.3c0.5,2.2,1.1,3.5,1.8,6.8l55.9-10c0,0,10,14,11.9,16.6
			c3.5,0.1,34.3,0.7,34.4,0.7c0-0.2,18.1-7,24.8-9.4c1.7-4.4,6.2-16.1,6.2-16.1l11,3.1L631.3,584.5z"/>
		<path class="st1" d="M414.1,711.1c-0.7,1.2-6.2,10.3-10.1,16.9l13.3,13.4l24.9-18.4l-14-18.3C424.7,706.2,416.3,710.1,414.1,711.1
			z"/>
		<path class="st1" d="M547.4,643.5v-29.2c-1-1.4-2.3-3.2-3.5-4.9c-0.6,11.8-1.7,31.4-1.9,36.5C543.7,645.1,545.7,644.2,547.4,643.5
			z"/>
		<path class="st1" d="M367,675.7l-2.9-13.9c-5.8,1.7-17,4.8-30.4,8.7c1.4,6.5,2.7,12.8,4,18.8L367,675.7z"/>
		<polygon class="st1" points="404.4,658.5 451.4,636.7 424.7,612.9 396,620.5 		"/>
		<path class="st1" d="M412.9,573.9c1,3.6,1.9,7.1,2.9,10.4l11.4-3.3l2.2,7.5l-11.6,3.3c0.7,2.6,1.3,4.7,1.7,6.4l26.4-7l-5.4-23.7
			L412.9,573.9z"/>
		<polygon class="st1" points="448.1,565.8 450.7,576.9 466.9,574 463.8,562.1 		"/>
		<polygon class="st1" points="335.7,717 332.2,700.4 302.1,714.4 304.8,731.2 		"/>
		<path class="st1" d="M343,713.7l29.1-13.4l-3.4-16.7l-29.2,13.5C340.8,703.3,342,709,343,713.7z"/>
		<polygon class="st1" points="365,628.8 374.3,672.4 397.1,661.8 388.4,622.6 		"/>
		<path class="st1" d="M459,633.2l23.4-10.8c-2.4-11-4.3-18.2-5.5-23.5l-43.4,11.6L459,633.2z"/>
		<path class="st1" d="M377.4,733.4c-5.4-2.6-13.8-6.7-14.7-7.2c-1.6,0.3-20.4,3.3-20.5,3.3c0,0.1-4.8,3.2-9.7,6.1
			C346.3,735,367.4,734,377.4,733.4z"/>
		<path class="st1" d="M474.6,572.5l4.2-0.7c0.8-4.7,1.6-9.5,2.4-14.1l-9.9,2.5L474.6,572.5z"/>
		<path class="st1" d="M461.1,651.3l24.7-13.1c-0.6-2.7-1.2-5.4-1.7-8l-26.7,12.4L461.1,651.3z"/>
		<path class="st1" d="M453.5,589.1l23.8-6.3c0.2-1,0.3-1.9,0.4-2.9l-25.3,4.7L453.5,589.1z"/>
		<path class="st1" d="M655.8,156l-6.9,12.6c1.4,1.2,3.1,2.6,4.8,4.2l16.9-9.8c-2-3.4-4.9-8.5-6.4-11.2
			C662.4,152.8,658.9,154.6,655.8,156z"/>
		<polygon class="st1" points="555.1,30.1 538.9,30.1 542,36.7 		"/>
		<polygon class="st1" points="529.2,57.7 544.7,60.8 538.4,47.2 526.5,53.3 		"/>
		<polygon class="st1" points="545.3,43.8 554.2,62.8 561.8,64.3 579.8,36.4 567.1,32.7 		"/>
		<polygon class="st1" points="535.1,40.2 530.3,30.1 512.3,30.1 522.4,46.6 		"/>
		<path class="st1" d="M507.7,49.4c-1,4.7-2.2,10.4-3.6,16.9l16.3,4L507.7,49.4z"/>
		<path class="st1" d="M661.7,61.7l-0.3-3l-73.6-20.2c-1.7,2.6-3.3,5.1-4.8,7.5l72.3,21.8L661.7,61.7z"/>
		<path class="st1" d="M669.6,63c0.5,0.9,8.7,14.3,14.6,24.1c2.8-4.2,5.2-7.9,6.2-9.5c-0.8-1.8-5.3-11.1-11.1-23.2L669,57
			C669.4,60.4,669.6,62.7,669.6,63z"/>
		<polygon class="st1" points="704,64.5 706.3,30.1 683.1,30.1 699.1,63.3 		"/>
		<path class="st1" d="M732.1,54.2c0-0.4,0.8-10.3,1.9-24.2h-13.7c-1.2,17.7-2.1,30.7-2.6,37.7l19.1,4.5L732.1,54.2z"/>
		<path class="st1" d="M659.5,39.6l-30.4-2.1l2.5-4.6c0,0,16.4,0.5,26.9,0.5l0.1-3.3h-65.4c-0.3,0.5-0.7,1.1-1,1.6l68.4,18.7
			L659.5,39.6z"/>
		<path class="st1" d="M501.8,39.8l-6-9.7h-14c-1.8,9.9-3.6,19.8-5.3,29.5l20.1,4.9L501.8,39.8z"/>
		<path class="st1" d="M652.4,82.6l21.8,19.7c1.7-2.5,3.4-5.3,5.2-8.1l-14.9-24.6l-13.4,12.7L652.4,82.6z"/>
		<path class="st1" d="M685.7,110.6l28.4,6.9c0.5-0.3,1.3-0.6,2-1c8.1-4.1,26.5-13.4,31.6-16c-0.1-1.9-0.1-3.1-0.3-4.4
			c0-0.6-0.1-1.1-0.1-1.8c-2.9-2.3-7.9-6.2-9.5-7.5c-1.9-0.5-20-4.7-31.9-7.5L685.7,110.6z"/>
		<path class="st1" d="M676.9,49.4c-3-6.1-6.1-12.7-9.3-19.3h-1.2c0.8,7.7,1.5,15.4,2.1,21.5L676.9,49.4z"/>
		<path class="st1" d="M59.2,149.2v46.3h11v-28.4h4.9c11.9,0,18.3-6.1,18.3-17.3v-5.5c0-11.3-6.4-17.3-18.3-17.3H59.2v16.5h11v-6.9
			h4.5c5.3,0,7.7,2.6,7.7,8.4v4.1c0,5.8-2.4,8.4-7.7,8.4h-4.5v-8.4H59.2z"/>
		<polygon class="st1" points="87.6,318.6 219.7,229.4 229.1,242.1 245,229.4 239.9,217 276.5,30.1 264.5,30.1 227.4,215.5 
			84,312.9 		"/>
		<polygon class="st1" points="207.6,195.5 207.6,136.8 219.4,136.8 219.4,127 184.8,127 184.8,136.8 196.6,136.8 196.6,195.5 		"/>
		<path class="st1" d="M160.1,118.5c10,0,16.1-5.7,16.1-16.6V47.9h-10.4v53.6c0,5.1-2.2,6.9-5.9,6.9c-3.6,0-5.9-1.9-5.9-6.9V47.9
			h-10v53.9C144.2,112.8,150.3,118.5,160.1,118.5z"/>
		<path class="st1" d="M493.6,78.2l-19.7-4.8c-1.9,10.4-3.7,20.5-5.5,30.4l18.9,4.1L493.6,78.2z"/>
		<path class="st1" d="M180.3,149.2v-4.9c0-11.3-6.4-17.3-18.3-17.3h-15.9v16h11v-6.4h4.5c5.3,0,7.7,2.6,7.7,8.4v3.5
			c0,5.8-2.4,8.4-7.7,8.4h-4.5v-8.2h-11v46.7h11v-29h5.1l8.7,29h11.6l-10.1-31.2C177.6,161.6,180.3,156.5,180.3,149.2z"/>
		<path class="st1" d="M467.5,30.1h-9.2l-4.2,24l8.7,2.1C464.3,47.6,465.9,38.8,467.5,30.1z"/>
		<path class="st1" d="M454.7,100.8c1.8-10,3.7-20.2,5.6-30.8l-8.6-2.1L446.2,99L454.7,100.8z"/>
		<path class="st1" d="M450.4,30.1h-16.2c-1.1,6.1-2.3,12.4-3.4,18.3l15.7,3.9L450.4,30.1z"/>
		<path class="st1" d="M429.5,149l7.7-43.9c-6.7-1.4-12.5-2.7-16.3-3.5c-3,15.9-5.8,30.8-8.3,44.4L429.5,149z"/>
		<path class="st1" d="M444,66.1l-15.9-3.9c-2,10.9-3.9,21.3-5.8,31.6l16.2,3.5L444,66.1z"/>
		<polygon class="st1" points="192.4,117.5 200.5,93 209.2,117.5 220.1,117.5 207,81.8 219.3,47.9 208.6,47.9 201,70.1 193.4,47.9 
			182.5,47.9 194.8,81.4 181.7,117.5 		"/>
		<path class="st1" d="M741.3,505.5c2.4,6.8,4.9,14.1,7.7,21.8l50.6-17l-8.1-23.3L741.3,505.5z"/>
		<path class="st1" d="M802.2,517.6l-5.6,1.9c1.6,7.7,3.3,16.4,5.2,25.4l9.4-1.6L802.2,517.6z"/>
		<path class="st1" d="M778.6,611.8c0.9,2.6,1.8,5.2,2.7,7.7c8.5-3.4,17.2-6.9,26.3-10.5c-0.4-1.7-0.9-3.7-1.4-5.9L778.6,611.8z"/>
		<path class="st1" d="M758.2,85.1L775.4,74l-15.3-31.3l-19-3.7c-0.8,8.7-1.2,14.5-1.2,14.5c0.2,0,3.8,13.6,6,21.8L758.2,85.1z"/>
		<polygon class="st1" points="771.5,465.7 777.5,483.8 788.9,479.6 782.9,462.1 		"/>
		<polygon class="st1" points="793.7,380.5 787.2,383.1 790.7,396 799.3,393 		"/>
		<polygon class="st1" points="790.1,423.6 784.8,425.2 787.9,433.8 792.4,432.1 		"/>
		<path class="st1" d="M729.9,783.1l-27.5-79c-5.1,1.8-9.1,3.2-11.9,4.2c12,33.9,24.2,68.5,28.1,79.4
			C720.5,786.9,724.8,785.1,729.9,783.1z"/>
		<path class="st1" d="M699.9,696.7l-22.5-64.8l-12.4,4.2c3.9,11,13.1,37,22.9,64.8C690.7,699.9,694.8,698.5,699.9,696.7z"/>
		<path class="st1" d="M568.4,121.7l16.6,27.1c3.7-3.3,7.2-6.4,9.7-8.7l-16.9-25.1L568.4,121.7z"/>
		<path class="st1" d="M814.4,628l-4.6-11.3l-25.9,10.3c1.8,5.3,3.7,10.5,5.5,15.8l26.5-11.1C815.4,630.4,814.9,629.3,814.4,628z"/>
		<path class="st1" d="M809.4,742l-8.9-25.3c-2.7,0.9-6.2,2-10.3,3.3l10.9,32.6L809.4,742z"/>
		<path class="st1" d="M776.3,678.3l11.4,34.3l10.2-3.3l-12-34.4C782.7,676.1,779.4,677.2,776.3,678.3z"/>
		<polygon class="st1" points="813.4,424.5 802.5,400.1 792.7,403.5 799.8,429.5 		"/>
		<polygon class="st1" points="789.3,171.9 791.9,188.8 814,181.2 811,165.7 		"/>
		<path class="st1" d="M761.3,92.4l0.7,12.5l40-6.2l-6.4-28.6C781.5,79.3,767.8,88.2,761.3,92.4z"/>
		<path class="st1" d="M778,30.1h-36.2c0,0.4-0.1,0.8-0.1,1.1c7.7,1.5,20.7,4,22.1,4.3C765.2,34.9,773.3,31.8,778,30.1z"/>
		<polygon class="st1" points="768.5,42 781.9,69.7 792.1,63.1 782.4,36.7 		"/>
		<polygon class="st1" points="789.8,157.7 790.2,163.5 809.3,157.9 805.8,144.5 		"/>
		<path class="st1" d="M779,313.8l2.3,4.9l18.4-9.8c-0.5-1.1-1.1-2.3-1.8-3.6L779,313.8z"/>
		<path class="st1" d="M796.8,353.2l1.6,3.3l19.4-7.5c-1.2-2.7-1.6-3.6-2-4.4L796.8,353.2z"/>
		<polygon class="st1" points="787,331.5 793.6,346.1 809.1,339 801.5,323.8 		"/>
		<path class="st1" d="M152.3,821.6c12.3,0.1,16.4-0.5,25.7-0.2c-8-5.9-18.9-13.9-23.1-17L152.3,821.6z"/>
		<path class="st1" d="M817.5,566.3l-10.3,4.7c3.1,14.8,6,27.8,7.7,35.3c2-0.8,4-1.7,6.1-2.5v-32.1l-2-5.9L817.5,566.3z"/>
		<polygon class="st1" points="821,529 821,511.3 815.5,513.1 		"/>
		<path class="st1" d="M755.3,781c-1.3,0.5-8.1,3.3-15.8,6.4l10.6,30.6l20.9-26.9C767.2,788.6,757.5,782.4,755.3,781z"/>
		<polygon class="st1" points="821,475.3 804.7,482 812.9,505.8 821,503 		"/>
		<polygon class="st1" points="136,107.7 117.2,107.7 117.2,87.1 132.4,87.1 132.4,77.3 117.2,77.3 117.2,57.7 136,57.7 136,47.9 
			106.9,47.9 106.9,117.5 136,117.5 		"/>
		<path class="st1" d="M770.7,804.4l23-6.6c2.9-12.6,6.2-26.8,6.2-26.8l7.6,1.8l-10.9,46.7l0.5,1.7H821v-46.1l-8.5-24.4L770.7,804.4
			z"/>
		<polygon class="st1" points="790.4,441.2 795.2,454.7 821,445 821,441.2 816.7,431.6 		"/>
		<path class="st1" d="M762.2,815.3l-4.7,6h28.2c2-2.6,3.4-4.4,3.5-4.6c0.1-0.4,0.9-3.9,2-8.7l-16.1,10.5L762.2,815.3z"/>
		<path class="st1" d="M799.1,670.4c4.2,12.1,8.5,24.2,12.6,35.9c3.1-0.4,6.5-0.9,9.3-1.2v-16.7l-9.8-22.2
			C807.1,667.6,803.2,669,799.1,670.4z"/>
		<path class="st1" d="M821,732.7v-19.8c-2.1,0.3-4.4,0.5-6.7,0.9C816.6,720.2,818.8,726.5,821,732.7z"/>
		<path class="st1" d="M792,650.1c1.5,4.3,3,8.6,4.5,12.9c8.1-2.8,16.2-5.7,24.4-8.5v-10.4c-0.7-1.8-1.4-3.4-2.1-5.2L792,650.1z"/>
		<polygon class="st1" points="811.8,118 813.4,125 821,117.9 820.9,111 		"/>
		<polygon class="st1" points="820.2,155.3 821,155.1 821,128.6 815.4,133.8 		"/>
		<path class="st1" d="M807.9,30.1h-19.6l10.6,28.7L821,44.4v-6C816.4,35.4,811.9,32.6,807.9,30.1z"/>
		<path class="st1" d="M807.3,98l13.6-2.1V53.7c-5.9,3.8-13,8.4-20.6,13.3L807.3,98z"/>
		<polygon class="st1" points="803.5,368.2 821,361.2 821,351.8 800.6,360 		"/>
		<polygon class="st1" points="803.5,264.1 821,258.5 821,238.8 796.8,248.6 		"/>
		<path class="st1" d="M818.2,299.1l2.8-1.5v-15.3c-1.9,0.7-7.1,2.1-8.8,2.6L818.2,299.1z"/>
		<polygon class="st1" points="808.9,277 821,273 821,266.7 806.5,271.4 		"/>
		<path class="st1" d="M818.3,401.2c0.8-0.4,1.8-0.8,2.6-1.2v-30.3l-14.2,5.7L818.3,401.2z"/>
		<polygon class="st1" points="802.1,474.7 821,467.7 821,453.3 797.8,462.2 		"/>
		<path class="st1" d="M156.6,796.1c0.3,0.1,2.8,1.9,6.2,4.4c0.9-3,1.9-6.7,2.5-8.7l-7-4.4C157.7,790.3,157.2,793,156.6,796.1z"/>
		<path class="st1" d="M151.7,765.8l1.9-5.1c0,0,16.3,6.1,20.2,7.6c1-2.2,2.8-6.3,3.8-8.5c-19.5-11.3-36.4-21.2-36.4-21.2l-1.9-45.7
			l-6.1-15.4c-4.1,3.8-8.4,7.7-10.3,9.4l8.9,12.5c0,0-12.2,62.3-12.3,62.4c0.2,0,2.1,19.7,2.7,25l12.3,2.5
			c0.3,0.1,10.5,3.2,16.9,5.2l5.2-26.9L151.7,765.8z"/>
		<path class="st1" d="M165.5,771l-3.8-1.4l-2.3,12l6.3,4C165.6,780.8,165.6,773.8,165.5,771z"/>
		<path class="st1" d="M684.4,714.4C670.2,674,656.1,634,656.1,634c-0.1,0-13.3-19.7-20.7-30.8c-3.2,15.5-7.9,37.8-12.5,59.6
			c3.3,0.9,7.8,2.2,11.4,3.2c-0.6-6.9-1.1-11.9-1.1-11.9L633,652l2-0.7l13.3-4.5l1.8,5.2c0,0-8.4,2.8-11.3,3.8
			c0.1,1.2,0.5,5.9,1.1,11.8c0.3-0.4,14.8-4.6,14.8-4.6l1.5,5.2l-15.9,4.6c1.3,13.8,2.9,30.8,2.9,30.8c0.1,0,4,12.6,4,12.6v0.1
			c0,1.8-1.3,15.4-1.7,19.7l6.3,7.2c0.5,0.3,1.1,0.6,1.6,1c4-6.2,11.7-18.3,11.7-18.3C666,725.3,681.5,716.1,684.4,714.4z"/>
		<path class="st1" d="M178.4,792.3l1.4-5.3l59.3,15.9c-1.4-3.9-3.1-8.4-3.6-9.6c-1.2-0.8-28.3-16.5-53.2-30.9l-5.6,12.7l-5.7-2.2
			l0.1,17.9c-0.1,0.6-2.4,8.5-3.7,12.9c4,2.9,18.5,13.4,19.4,14.1l-1.1-23.8C181.3,793.1,178.4,792.3,178.4,792.3z"/>
		<path class="st1" d="M193.6,796.4l1.2,25h47.3c3.5-2.3,7.5-4.9,11.7-7.7c-4.5-1.7-10.2-3.8-10.2-3.8S212.9,801.6,193.6,796.4z"/>
		<polygon class="st1" points="66.4,117.5 77.9,47.9 67.6,47.9 59.8,101 52.1,47.9 41.5,47.9 53,117.5 		"/>
		<rect x="85.4" y="47.9" class="st1" width="10.4" height="69.5"/>
		<path class="st1" d="M118.6,196.5c11,0,17.8-6.6,17.8-17.3v-35.8c0-9.6-5.4-15.9-14.4-17.1v10.1c2.2,1.1,3.4,3.5,3.4,7.1v35.6
			c0,5.1-2.4,7.8-6.8,7.8c-4.4,0-6.8-2.7-6.8-7.8v-35.6c0-3.5,1.2-5.9,3.3-7.1v-10.1c-9,1.2-14.3,7.5-14.3,17.1v35.8
			C100.8,189.9,107.6,196.5,118.6,196.5z"/>
		<path class="st1" d="M286,783.3l1.6,4.6l-40.6,14l1.4,4c3.1,1.1,7.8,2.9,11.1,4.1c14-9.2,29.3-19.2,38-24.9L286,783.3z"/>
		<path class="st1" d="M64.3,783.7l1.5-7.6l1.2,0.2l2-15.3l5.4,0.7l-2,15.6l3.3,0.6l2.4-17.8l5.4,0.8L81,779.1l2.8,0.5l1.8-11.6
			l4.2,0.6l-2.3,11.8l2.3,0.4c1.2-5.4,2.5-10.8,3.8-16.3l13.6,2l-0.8,5.4c0,0-5.6-0.9-8.7-1.3c-0.5,2.2-1.8,7.4-2.6,11.1l19,3.7
			c-0.8-8.5-1.3-15.1-2-25.7c-11.2-0.8-38.3-2.8-38.4-2.8c0,0.2-14.6,4.8-22.4,7.3c-7.8,12.8-13.5,21.5-21.8,33.5v23.5h12.6l-5-8.7
			l4.7-2.7l6.6,11.4h1.8l12.2-3.2l1.3-16.9c5.6-1.2,11.2-2.5,16.8-3.7l1.2,5.3c0,0-9.9,2.2-12.9,2.8c-0.1,2-0.5,7.4-0.8,11
			c6.7-1.6,15.2-3.8,23.5-4.6l3.8,9.3h3.1c3.6-2.5,7.3-4.9,11-7.4c0,0,2.5,4.5,4.1,7.4h4.9c3.6-1.3,7.7-2.7,7.7-2.7l1,2.7H140
			l1.1-3.8l5.5,1.6l3.3-17c-5.9-1.7-17.4-5.2-17.4-5.2L64.3,783.7z"/>
		<path class="st1" d="M79.7,669.7c0,0,86.6-70.2,97.6-79.9c-5-41.3-10.1-82.5-18.3-123.3l14.2-0.1l1,5.1l3.5-0.2l-0.7-4.3l6,0
			l1.6,8.8l-9.6,0.6l7.2,41.8c12.6-2.2,36-6.2,54.9-9.5c-7.7-20.3-15.6-40.2-17.7-44.4c-1.9-0.2-14-0.9-14-0.9
			c-14.7-0.6-21.9-1-24.5-2.1c-5.8-2.8-13.1-10.9-15.7-18.1l-2.4-40l7.8-0.5c0,0,2.1,35.7,2.3,37.8c1.5,2.2,3,4.3,4.5,6.2l33.1-0.7
			l-0.1,6.3l-25.3,1.2c4.7,1.6,15.2,3.5,21.4,4.1c15,1.2,16.1-1.2,17.7-0.2c1.2,0.8,2.7,1.9,20.8,49.8c12.5-2.2,21.6-3.7,21.6-3.7
			c0-0.1,31.3-8.6,31.3-8.6c25.2-4.8,110.3,0,112.2-2.6c2.8-3.7,6.5-6.2,8.1-6.5c6.7-1.4,19.1,2,19.1,2l-1.1-3.3l-18.9-3.6
			l-12.3,3.9l-5.8-8l-3.6-10.4h-7.8l-1-6.6l5.8-7.4l-13.2-21.4c-12.5,0.4-29.6,2-41.2,1.2l-0.8,4.8l18.7,2.8l-5.5,33.1l-12.8,5.6
			l-4.8-10L301.9,437l1.4-7.6l19.3,1.5l1.2-5.8l-35.6,0.4l-20-25.3c0,0-16.3-14.9-34.1-12.9c-10.6,1.2-18.7,14.4-18.7,14.4
			l-6.6,20.2c0,0-11.5,5.4-19,4.6c-10.2-1.1-15.3-6.1-15.3-6.1l0.2-23.5l2.8-7.5l-6-3.3l-9.1,1.1l-8.6,6l-3.2,2.1c0,0,2.7,7,0,9.1
			c-2.7,2.2-6.5,0.5-8.7,1.1c-2.2,0.5-11.8,9.7-11.8,9.7l5.4,16.2c0,0-4.3,0-4.8,3.2c-0.5,3.2,2.7,9.1,1.1,13.4
			c-1.6,4.3-11.3,11.9-14.5,16.2c-3.3,4.3-2.7,9.7-4.9,13.4c-2.1,3.8-5.9,2.7-6.4,6.5c-0.5,3.8,2.7,21,2.7,21s-6.5,1.6-5.4,5.4
			c1.1,3.7,3.8,22.6,7,26.9c3.2,4.3,18.9-6.4,22.6-2.7c3.8,3.8,7,10.8,11.8,13.5c4.9,2.7,7.6-1.6,11.3,2.1
			c3.8,3.8,4.8,24.2,3.2,29.1c-2.7,8.1-9.7-1.1-11.3,5.4c-1.6,6.5,2.2,8.1,2.2,10.7c0,2.7-1.7,10.6-3.4,13.8
			c-1.6,3.2-19.2,16.8-19.2,16.8l-14.9,12l-14.2,11.3c0,0-17.7,11.7-20.4,16c-2.7,4.4-14.3,43.2-16.4,43.8
			c-2.1,0.5-7.7,18.7-11.1,20.5c-3.8,2-1.1,5.1-7,11.3c-4.2,4.5-8.5-2.7-11.2-0.6c-2.3,1.8-2.7,32.6-2.7,32.6
			c14.2-22.6,28.3-49.6,42.2-73.7C72,697.8,79.7,669.7,79.7,669.7z"/>
		<path class="st1" d="M395.3,801.2l-14.9,7l12.6,13h9.4c-0.1-2.7-0.2-4.3-0.2-4.3C402.2,817,398.7,809.2,395.3,801.2z"/>
		<path class="st1" d="M559.4,789.4c-1.1-4.1-6.6-8.7-8.2-8.9c-2.2,0.1-12.4,4.6-20.3,8.9l-3.1,1.7l-3.4-5l-7.7,3.1
			c3,4.9,5.8,9.4,7.6,12.2c11.4-2.1,30.4-6.6,34.8-9.9C559.4,791.1,559.8,790.8,559.4,789.4z"/>
		<path class="st1" d="M264.7,815.9c0.5,1.5,1.2,3.4,2,5.5h21.9l-7.1-16.5L264.7,815.9z"/>
		<path class="st1" d="M673,816.2c-2.2-2.5-2.5-6.7-2.2-11.9c-3-6.7-8.7-18.8-11.6-21.9c-0.8-0.9-2.3-1.7-3.9-2.4l-7.8,31.7
			c0,0-12.2-12.1-14-13.9c-1.7,0.4-7.1,1.7-10.5,2.5c-0.8,0.2-1.6,0.4-2,0.5c-6.7,6.6-12.8,12.7-12.8,12.7l-0.7,0.7l-81.7,5.3
			l-0.1,1.9h153.5l0.6-1.5C676.9,819.1,674.5,818,673,816.2z"/>
		<path class="st1" d="M707.9,817.8c0.7,0.6,1.7,1.5,2.3,3.6h9.2c1.6-3.2,3.3-6.9,4.7-9.7l-19,4.6
			C706.2,816.6,707.2,817.1,707.9,817.8z"/>
		<path class="st1" d="M501.8,812.4c0.1,1.5,0.2,5,0.3,8.9h15.7c-0.1-2.7,0-5.5,0.2-8.6C513.9,812.7,505,812.5,501.8,812.4z"/>
		<path class="st1" d="M732.4,790.4c-9.6,4-18.5,7.6-18.5,7.6s-13.6-38.6-27.6-78.5c-4.4,2.6-17.3,10.3-17.4,10.3
			c0,0.4-7.9,12.7-11.4,18.2c4.7,5.6,8.8,14.1,10.9,19.1c4.5,3.4,13.1,10.9,13.1,17.1l-1.3,8.8c-0.6,3.5-1.9,10.5-1.9,14.8
			c0,1.5,0.2,2.7,0.6,3.2c1.3,1.3,8.4,2.1,12.7,2.6l45.1-10.7L732.4,790.4z"/>
		<path class="st1" d="M493.5,779.1l-5.3-5.8l6-5.4c-0.6-0.9-1.1-1.7-1.5-2.4l-11,8.8l-4.9-6.1l13.7-11l-1.6-12.2
			c-3.4,0.4-7.6,0.8-7.7,0.8c0,0.4-39.3,29.8-44.6,33.7c-0.1,2.2-0.6,17.3-0.8,19.5c1.9,1.6,20.6,16.6,20.6,16.6l-4.3,5.8h44.3
			c-0.1-3.8-0.3-7.6-0.3-9.7L478,791l4.1-3.6l17.2,19.5l19,0.4c0-0.2-12.2-20.2-19.9-32.7L493.5,779.1z"/>
		<path class="st1" d="M427.6,803.6l0.5,14.9l-5.4,0.2l-0.6-15.7l-0.9-1.1l-2.9,3.5l-4.2-3.5l3.7-4.4l-11.3-14.6l-11.9-12.7
			c-0.5,6.3-1.1,14-1.1,14.1c0.3-0.1,13.9,31.6,13.9,31.6c0,0.2,0.1,2.3,0.3,5.5h38.1c1.3-1.7,2.5-4,3.2-4.8
			c-2.7-2.2-13.3-10.7-17.1-13.8L427.6,803.6z"/>
		<path class="st1" d="M288.1,800.5l9,20.8h15.4c-4.2-13.1-7.7-24.3-9.7-30.5L288.1,800.5z"/>
		<polygon class="st1" points="730.9,810 725.5,821.3 743.1,821.3 738.5,808.2 		"/>
		<path class="st1" d="M310.8,790.3l5.1,16.1l27.3,15h38.9c-5.8-6.1-10.8-11.2-11.3-11.7C369.4,809.1,327.3,795.5,310.8,790.3z"/>
		<path class="st1" d="M756.1,772.3L776,785l19.3-24.9l-2.9-8.8L754.9,763l-2.3-7.4l37.3-11.8l-7.1-21.4
			c-21.1,6.8-49.9,16.1-59.2,19l13.4,38.7C746.6,776.1,756.1,772.3,756.1,772.3z"/>
		<path class="st1" d="M472.9,311.6c-1.7-0.7-3.8-1.9-6-3.4c0.9,3.5,1.8,7.1,2.7,10.7c3.2-2,6.5-4,9.7-6
			C476.6,312.6,474.3,312.2,472.9,311.6z"/>
		<path class="st1" d="M384,298.9c9.2-15.8,25.6-44.7,27.5-50c0,0,2-7.7,3.5-13.8l-19.1-3.3C394.6,239.1,391.3,256.7,384,298.9z"/>
		<path class="st1" d="M376.7,341.5c1.5,4.8,4.5,11.9,8.7,15.3c1.4,1.1,5.2,4.2,10.2-1.8c0,0,2.5-5,4.6-9.2l-10.9-7l4.2-6.5
			l10.2,6.5c10.6-21.5,19-38.3,23.3-41.9c0.8-0.7,1.8-1.3,2.8-1.8l-22.2-8.9c-8.1,14.2-16.3,28.1-18.1,30.6
			c-3,4.3-10.2,17.2-12.4,22.1C377.1,339.8,376.9,340.7,376.7,341.5z"/>
		<path class="st1" d="M384.4,377.4c1.6-0.3,13.5-3.1,30.5-7l3.2-5.7l-14.6-8.3l-1.9,3.6c-6.1,7.4-14.2,8.5-21.2,2.9
			c-2-1.6-3.7-3.8-5.2-6C376,368,381.8,376.8,384.4,377.4z"/>
		<path class="st1" d="M487.6,142l9.2,0.9l1.8-23.9c-2-0.5-3.8-1.1-5.3-1.5C492.2,122.6,488.7,136.7,487.6,142z"/>
		<path class="st1" d="M469.2,349.5c-10.9,3.4-21.6,6.8-25.4,8c-0.4,1.2-1.3,3.8-2.3,6.6c9.5-2.3,19.4-4.6,29.6-7L469.2,349.5z"/>
		<path class="st1" d="M436.8,329.5c0,0,6.9-6.1,10.2-8.2c-1.1-4.1-4.7-15.5-4.7-15.5l7.5-2l4.2,20.1c0,0-9.9,8.6-13.2,10.7l6.8,1.7
			l2.2-3.4c1.2-1.7,6.5-5.3,12.8-9.5l-5.6-22.2c-1-0.8-2-1.6-2.6-2.1c-7.7-0.1-19,1.1-22.2,3.9c-3.5,3-16.1,28.5-22.1,40.8l-3,5.8
			l14.9,8.5L436.8,329.5z"/>
		<path class="st1" d="M476.3,204.5c10.3-4.5,27.8-12.7,29.6-13.5c0.3-1.8,0.9-5.9,1.3-8.5c-3.4-1-13.3-3.7-13.3-3.7l0.5-1.7
			l1.9-26.8l-9.5-1.5C482.9,167.8,480.1,186.9,476.3,204.5z"/>
		<path class="st1" d="M458.3,160l17.5,2.3l9.9-46.8c-3.7-0.8-10.6-2.3-18.7-4C463.9,128.8,461,145.1,458.3,160z"/>
		<path class="st1" d="M437.2,150.4l8.2,1.5c2.4-13.2,5.1-27.9,7.9-43.4c-2.8-0.6-5.6-1.2-8.4-1.8L437.2,150.4z"/>
		<path class="st1" d="M453.2,187.8l16.9,1.6l4.1-19.3l-17.3-2.3C455.6,174.8,454.4,181.5,453.2,187.8z"/>
		<path class="st1" d="M399,218.1c9.7,1.7,26.4,4.7,33.4,5.9c0.5-2.8,4.5-25.1,10.5-58.3l-32.9-6C405.1,186.6,401.2,207.1,399,218.1
			z"/>
		<path class="st1" d="M437.8,351.3l0.1-0.1l6.8-10.5l-3-1.8c-3.8,6.6-11.3,19.9-16.4,28.9c2.4-0.5,4.7-1.1,7.2-1.7L437.8,351.3z"/>
		<path class="st1" d="M637.1,318.6c7.2-1.1,16.6-1.3,25-0.9l0.3-9.1c-6.1,1.1-16.7,3.2-27.7,5.3l0.9,5
			C636.2,318.8,636.8,318.7,637.1,318.6z"/>
		<polygon class="st1" points="697.2,321.8 707.1,315.9 691.8,299.5 679.7,303.5 692.2,324 		"/>
		<path class="st1" d="M627.9,320.6l-0.9-5.3c-16,3-30.7,5.8-30.7,5.8l-5.5,1.1l1.3,6.6C607.9,325.1,620.2,322.2,627.9,320.6z"/>
		<path class="st1" d="M647,303.6c-1.7-5.3-4.7-14.3-4.7-14.3c-0.1,0-4.1-6.8-9.4-15.6l-5.3,0.1l5.7,32.4
			C638.1,305.3,642.8,304.4,647,303.6z"/>
		<polygon class="st1" points="712.3,355.2 725.5,348.3 718.9,331.4 706.8,334.9 707.7,336.8 		"/>
		<path class="st1" d="M505,349.2c4.9-1.2,9.8-2.3,14.5-3.4l-1.4-9.3l-14.5,2.8L505,349.2z"/>
		<path class="st1" d="M594.9,313.5c0,0,14.8-2.8,30.8-5.8l-6-34.3c-1.7-0.3-3.5-0.6-3.6-0.6c0,0.1-23.9,1.5-23.9,1.5
			s-5,1.1-10.9,2.4l7.9,37.9C592.7,313.9,594.9,313.5,594.9,313.5z"/>
		<path class="st1" d="M565.2,335l-2.1-7.4l-13.6,2.7l1,8.2C555.6,337.3,560.5,336.1,565.2,335z"/>
		<path class="st1" d="M573.8,278.3c-6.3,1.4-11.9,2.6-11.9,2.6c-0.7,0.1-1.9,0.8-3.3,1.8l5.2,20.4l14.1-3L573.8,278.3z"/>
		<path class="st1" d="M581.6,316.1l-2.1-10.1c-3.1,0.6-7.8,1.7-13.6,2.9l2.7,9.8C573.5,317.7,577.8,316.8,581.6,316.1z"/>
		<path class="st1" d="M584.6,330.5l-1.5-6.8l-12.3,2.4l2,7.2C576.9,332.3,580.8,331.4,584.6,330.5z"/>
		<path class="st1" d="M505.2,136.7l21,5l14.8-10.4c-7.9-2.3-22.8-6.6-34.7-10L505.2,136.7z"/>
		<path class="st1" d="M497.9,230.8c1.9,1.2,5.8,3.8,8.5,5.6l3.2-9.6l-9.3-2.4L497.9,230.8z"/>
		<path class="st1" d="M471.4,235.1l7.9,2.1l5.3-24.5c-1.1,0.1-8,0.3-9,0.3L471.4,235.1z"/>
		<polygon class="st1" points="485.9,205.6 486.6,207.2 505.3,206.8 505.3,197.2 		"/>
		<path class="st1" d="M547.5,281.7c5.5-5,9.8-8.2,13.7-8.5l2-0.4c-1.9-3.8-4.9-9.6-4.9-9.7c-0.1,0.1-4.8-4.9-5.2-5.4l-16.5,4.6
			l-7.4,13c5.3,0.7,16.3,2.2,16.3,2.2L547.5,281.7z"/>
		<path class="st1" d="M496.1,269.9c-3.6-0.5-10.9-1.4-17.4-2.3l-1.7,6.5c5.3,0.1,12.1,0.2,17.8,0.3L496.1,269.9z"/>
		<path class="st1" d="M506.4,304.3c7-2.4,26.2-10.9,30.7-13.5l6.1-5.3c-0.4-0.8-1-2.1-1.5-3.1c-2.5-0.3-15.9-2.2-15.9-2.2
			c0.1,0.1-7.6-0.1-17.8-0.3l2.7,7.1c0,0-8.4,3.9-10.7,4.9c0.1,1.9,0.3,8.5,0.5,13.3C502.9,305.1,505,304.8,506.4,304.3z"/>
		<path class="st1" d="M484.6,238.7l4,1.2l3-6c-1.6-0.4-4.1-1.1-5.5-1.4L484.6,238.7z"/>
		<path class="st1" d="M554.5,131.4l18,28.6c0.5-0.5,1.2-1.1,1.8-1.7l-17.5-28.6L554.5,131.4z"/>
		<path class="st1" d="M672.2,794.3c0.2-0.9,0.3-1.6,0.4-2.5l1.1-7.4c-0.2-1.9-5.3-7.4-10.9-11.6l-0.9-0.6l-0.4-1
			c-2.5-6-5.6-11.8-8.3-15.8c-2.3,4.2-5.6,10.5-8.7,16.1c7.5,1.1,15,3.3,18.5,7.1C665.7,781.4,669.3,788.2,672.2,794.3z"/>
		<path class="st1" d="M502.5,175.4l7.3,2v-0.1l13.4,2.8c0.8-8.1,2.3-24.2,2.9-30.5c-0.3-0.2-0.6-0.4-0.6-0.4
			c0,0.1-10.2-2.3-20.8-4.8L502.5,175.4z"/>
		<path class="st1" d="M690,442.9l4.7,13.5c6.5-2.3,11.9-4.2,14.7-5.2c-1-3-2.8-7.9-4.7-13.3L690,442.9z"/>
		<path class="st1" d="M652.2,212l12.2,18.1L687,226l-0.4-11.9C674.8,213.4,662.8,212.7,652.2,212z"/>
		<polygon class="st1" points="527,97.6 551.3,124.1 552.8,123.1 529.2,86 		"/>
		<path class="st1" d="M539.8,75l18.9,4.6l0.9-7.7c-10.2-2.1-19-3.9-24.8-5L539.8,75z"/>
		<polygon class="st1" points="564.3,115.1 585.1,100.5 550.2,92 		"/>
		<path class="st1" d="M628.4,265.9c-6-10.1-12.4-21-16.3-27.5c-4.3,11.6-8.1,21.6-10.2,27.5c6.9-0.4,14.6-0.8,14.6-0.8
			C617.5,265.1,625.2,266,628.4,265.9z"/>
		<path class="st1" d="M499.3,88.8l20.6,5.1l2.3-8.7l-21-5.1C500.6,82.9,500,85.8,499.3,88.8z"/>
		<path class="st1" d="M521.8,117.7c6.3,1.8,12.5,3.6,17.6,5.1c-4.9-5.4-10.8-11.9-14.7-16.2L521.8,117.7z"/>
		<path class="st1" d="M649.1,140.1c0,0,3.2,6,4.5,8.3c2.5-1.2,7.5-3.7,10.8-5.3l14.6-19.7l-14.7-3.6L649.1,140.1z"/>
		<path class="st1" d="M640.2,265.8L616.4,227c-0.5,0.5,0.3-0.2-2.3,2l21.8,36.8C636.8,265.8,639.2,265.8,640.2,265.8z"/>
		<path class="st1" d="M695.1,174.8c-0.8-1.1-6-8.4-8.4-11.9c-1.3,0.8-3.9,2.2-7,4.1l2.2,10.2l-18.3,14.6L650,180l-8.2-7.1
			c-2,0.2-4.1,0.3-5.4,0.4c-0.4,1.2-3.1,8.3-6.8,18.3c-0.6,1.6-1.2,3.3-1.9,5l34.2,2l32-8.8C694.3,186.3,694.7,180.6,695.1,174.8z"
			/>
		<path class="st1" d="M494.9,109.8c4.4,1.3,11.5,3.4,19.4,5.6l3.7-14c-4.6-1.2-14.1-3.5-20.3-5
			C496.8,100.8,495.9,105.3,494.9,109.8z"/>
		<path class="st1" d="M687.8,251.1l-0.5-17.3c-8.3,1.5-15.6,2.8-19.5,3.6c0.5,4,1.6,11.6,2,15.1
			C673.5,252.3,682.4,251.6,687.8,251.1z"/>
		<path class="st1" d="M534.1,145.7c4.2,2.6,9.4,5.8,12.2,7.5l8.7-6.6c-2.7-4.3-5.2-8.2-6.8-10.8L534.1,145.7z"/>
		<path class="st1" d="M191.7,733.8l-1.8-4.6l-30.4,11.1c2.3,1.3,4.9,2.8,7.6,4.5L191.7,733.8z"/>
		<path class="st1" d="M187.1,721.9l-2.3-6l-36.2,13.4c1.3,4,1.2,2.8,2.1,5.8L187.1,721.9z"/>
		<path class="st1" d="M194.5,741.1l-19,8.4c9,5.2,19.1,11.1,28.7,16.7L194.5,741.1z"/>
		<path class="st1" d="M182,708.7l-1.9-5L148,716c0.1,1.8,0.2,3.5,0.3,5.2L182,708.7z"/>
		<path class="st1" d="M203.1,714.6l-22.1-51.4c-1.8,0.8-4.3,1.9-7.1,3.2l29.4,76c3.8-9.9,7.1-23.6,13.5-31.6L203.1,714.6z"/>
		<path class="st1" d="M219.2,774.9l9.1-30.1l-14.8-6.8c-2.4,6.2-4.7,12.1-6,15.3l7.5,19.3C216.4,773.3,217.8,774.1,219.2,774.9z"/>
		<path class="st1" d="M205,655.7c1.1-0.2,13.5-3,26.7-5.8c-1-6.1-2.5-15.9-4.3-27.5L188,598.9l-35,31.1
			C169.4,638.1,203.3,654.8,205,655.7z"/>
		<path class="st1" d="M243,759.5c0,0,12-15.4,14-18c-0.2-0.7-1.2-4.4-2.8-9.7c-4.3,1.3-12.9,3.9-15.3,4.6
			c-0.9,2.9-9.5,31.3-12.9,42.5c4.1,2.4,7.6,4.4,10.2,6L243,759.5z"/>
		<path class="st1" d="M184.2,531.9c0.4,2.9,0.8,6.6,1.3,10.7l28.5-4.7c-0.7-4.3-1.2-7.7-1.7-10.8
			C201.3,528.9,191,530.7,184.2,531.9z"/>
		<path class="st1" d="M177.2,696.5l-1.7-4.3l-28.1,9.8c0.1,1.9,0.2,3.8,0.2,5.9L177.2,696.5z"/>
		<path class="st1" d="M172.8,684.9l-5.9-15.3c-2.6,1.2-5.4,2.4-8,3.6l3,12.4c0,0-11.1,3.5-15.1,4.9l0.4,3.3L172.8,684.9z"/>
		<path class="st1" d="M152.8,681.4c-0.4-1.4-0.8-3.2-1.2-4.9c-4.2,1.9-7.5,3.4-9,4.1c0.6,1.4,1.3,3.3,2,4.9
			C147.6,684,151.1,682.3,152.8,681.4z"/>
		<path class="st1" d="M280,782.3l-12-1.8c-1.8,3.9-3.5,7.3-4.8,10c7.9-2.7,15.5-5.3,17.5-6C280.4,783.7,280.2,783,280,782.3z"/>
		<path class="st1" d="M477,742.6c-2.7-5.2-10.9-20.7-13.5-25.7c-1.9,1.4-6.6,4.8-12.1,8.9l17.6,22.8L477,742.6z"/>
		<path class="st1" d="M488.8,739.5c0.7-12.6,3.8-64.9,4.1-69.4c-0.3-1.3-0.6-2.6-0.9-3.9l-12,13.2c-1,0.7-35.7,17.4-46.8,22.7
			l13.4,17.4l15.8-11.7l3.6-2.7l18.4,34.8C485.9,739.8,487.4,739.7,488.8,739.5z"/>
		<path class="st1" d="M464.5,751.9l-7.8-10.3c-3.7,3.2-17.5,15.2-20,17.4c1.1,1.9,3.8,6.4,5.6,9.5L464.5,751.9z"/>
		<path class="st1" d="M425.5,798.5c1.2-0.3,3.2-0.7,5-1.1l0.8-20.8l6.5-4.8l-8.2-14l1.7-1.4l6.9-6l-7.3-9.5
			c-5.3,3.9-9.4,7-10.3,7.6c0,2.9-0.4,15.4-0.4,15.4l-13.4,3.8c1.8,6.2,3.2,10.9,3.2,10.9C410.3,778.5,422.9,795,425.5,798.5z"/>
		<path class="st1" d="M620.6,793.6c6.8-6.7,13.2-13,13.2-13c0-0.1,0.9-1.8,2.2-4.3c-0.9-0.1-1.6,0.1-2.4,0.2
			c-1.8,1.5-3.9,2.6-6.5,2.8c-4.8,0.2-9.8-2.2-13.1-4.7c-1.2-1-2.3-1.9-2.9-2.8c-0.6-0.8-1.5-2.4-2.5-4.5
			c-0.1,7.9-0.2,17.4-0.2,18.5c0.9,1,6.7,7.8,9.2,10.9C618.5,795.7,619.6,794.6,620.6,793.6z"/>
		<path class="st1" d="M644.5,801c1.6-6.5,5.6-22.6,5.6-22.6l-8.1-1.7c-2.3,4.1-3.9,7.2-3.9,7.2c-0.2,0.3-4.3,4.4-9.5,9.5l6.6-1.6
			C635.2,791.7,641.1,797.7,644.5,801z"/>
		<path class="st1" d="M376.5,767.7c2-1,4.1-1.9,6.1-3l6.7,4.5c0.3-3.8,0.5-6.7,0.5-6.7s-0.6-2.4-1.4-5.6l-13.1,2.2L376.5,767.7z"/>
		<path class="st1" d="M186.5,550.3c0.5,4.7,1.2,9.6,1.8,14.4l29.3-4.4c-0.8-5.2-1.6-10.2-2.3-14.8L186.5,550.3z"/>
		<path class="st1" d="M279.2,744.2l-2-18.4l-14.6,6.8c1.5,5.3,2.5,8.7,2.5,8.7l0.5,1.9c0,0-14.6,18.7-15.5,19.9
			c-0.1,0.4-0.6,2.6-1.4,5.5c4.1,1.5,13.3,4.7,16.2,5.7L279.2,744.2z"/>
		<path class="st1" d="M256,793l6.5-13.8c-3.5-1.2-11.3-4-15.3-5.4c-1.6,6-3.4,13.1-4.4,16.8l2.3,6.1
			C247.6,795.8,251.5,794.5,256,793z"/>
		<path class="st1" d="M412.7,757.9c0.1-3.3,0.3-11.3,0.4-13.1l-12-12.1c-0.6,1.1-1.1,1.8-1.1,1.8l-2.5,1c1.5,5,4.5,15.3,7.2,24.6
			C406.8,759.6,410.4,758.6,412.7,757.9z"/>
		<path class="st1" d="M401.9,769.9c-3.1-10.4-7.5-25.3-9.6-32.2l-2.6,1c1.9,8,3.9,16,5.4,24L401.9,769.9z"/>
		<path class="st1" d="M204,663.9L186,655c4.6,10.7,19.6,45.6,21.7,50.3c4.8-1.3,22.1-6,23.9-6.5l10.8-8.9
			c-4.4-15.4-8.3-29.1-9.2-32.3L204,663.9z"/>
		<path class="st1" d="M551.4,470.5l6.1,19.9c7.3-2.5,39.9-9.4,43.4-9.4l21.1-2.5l-9.7-30.5C587.4,457.3,564.3,465.9,551.4,470.5z"
			/>
		<path class="st1" d="M547.7,528.2l12.1-3.8l-7.3-23.5c-3.3,1.4-7.3,3.2-11.6,5.1L547.7,528.2z"/>
		<path class="st1" d="M619.6,445.3l12.7,38.9l4.5-1.8l-13.2-38.7C623.5,443.8,619.6,445.3,619.6,445.3z"/>
		<path class="st1" d="M496.4,531.2c-1.3,1.4-3,7-4.7,14.7l14-4.5l-3.8-15L496.4,531.2L496.4,531.2z"/>
		<path class="st1" d="M234.2,613.6c0.1,0.8,0.7,4.1,0.8,4.9l32.3,19.8l9.6-3.7l-4.2-33.9L234.2,613.6z"/>
		<path class="st1" d="M527.9,479.4c-10.9,4.5-20.1,8.3-27.1,10.4l3,12.2c6.2-2.6,27.7-11.8,33.5-14.3c-1.5-2.7-3.8-6.9-5.4-9.9
			C529.7,478.7,527.9,479.4,527.9,479.4z"/>
		<path class="st1" d="M632.1,441.2c1.1,3.3,2.6,7.7,4.2,12.2l11.4-3.9l-4.5-12.6C639.6,438.4,635.8,439.8,632.1,441.2z"/>
		<path class="st1" d="M676.6,447.4l1.9,5l-2.9,1.1l3.3,8.6c2.9-1,5.8-2.1,8.5-3c-1.3-3.8-3-8.6-4.8-13.6L676.6,447.4z"/>
		<path class="st1" d="M665.8,428.1l3.8,9.8l3.6-1.4l1.2,3.4l5.7-1.9c-1.8-5.1-3.5-9.9-4.7-13.5
			C672.3,425.7,669.1,426.9,665.8,428.1z"/>
		<path class="st1" d="M638.9,460.8c1.9,5.8,3.8,11.1,4.9,14.2c2.3-0.9,6.5-2.3,11.6-4.1l-5-14L638.9,460.8z"/>
		<path class="st1" d="M661.6,452.5l-5,2.2l4.9,13.9c2.5-0.9,7.5-3,10-3.9l-3.4-8.9l-4.6,1.7L661.6,452.5z"/>
		<path class="st1" d="M649.3,434.5l4.6,12.8l4.8-1.8l-1.4-3.4l4.8-1.9l-3.6-9.4C656.3,431.7,651.6,433.7,649.3,434.5z"/>
		<path class="st1" d="M239.4,648.2c8.1-1.8,15.6-3.4,20.6-4.5c-16.7-11.2-17.4-11.6-23.9-16.2C237.4,636.1,238.6,643.3,239.4,648.2
			z"/>
		<path class="st1" d="M276.3,717.6l-1.9-17.1l-18,10.7c1.4,5,2.7,9.6,3.9,13.8L276.3,717.6z"/>
		<path class="st1" d="M222.9,544.3c0.7,4.6,1.5,9.6,2.4,14.9l40.9-6.1l-2-15.6L222.9,544.3z"/>
		<path class="st1" d="M229.8,587.7c1.1,6.7,2.1,13.4,3.1,19.8l38.7-12.9l-1.7-13L229.8,587.7z"/>
		<path class="st1" d="M226.5,566.8c0.7,4.3,1.3,8.7,2,13.1l40.3-6.1l-1.7-13.1L226.5,566.8z"/>
		<path class="st1" d="M193.5,593.1l29.6,17.6l2.3-0.8c-1.1-6.8-2.1-14-3.3-21.1L193.5,593.1z"/>
		<path class="st1" d="M220,525.7c0.5,3.1,1,6.6,1.7,10.9l41.3-6.9l-1.4-11.2C252.3,520.1,235.9,522.9,220,525.7z"/>
		<path class="st1" d="M682.6,421.8l4.8,13.7l14.6-5c-1.9-5.2-3.7-10.3-5.1-14C692.8,418,687.9,419.8,682.6,421.8z"/>
		<path class="st1" d="M249.4,686.3l22.9-6.5l-2.5-22.9l-9.2,21.8l-12.7,2C248.3,682.5,248.8,684.4,249.4,686.3z"/>
		<path class="st1" d="M273.8,694.5l-0.7-6.9c-10.1,2.9-17.9,5.1-21.6,6.1c1.2,4,2.3,8.1,3.4,12L273.8,694.5z"/>
		<path class="st1" d="M189.2,572.4c0.6,4.9,1.2,9.5,1.7,13.3l30-4.6c-0.7-4.5-1.4-8.9-2.1-13.2L189.2,572.4z"/>
		<path class="st1" d="M230.6,737.2l2.1-7.1l2-0.6l17.4-5.2c-2.2-7.6-4.8-16.9-7.5-26.2c-7.4,6.2-21.9,18.1-23,19
			c-0.3,0.7-2.6,6.6-5.3,13.6L230.6,737.2z"/>
		<path class="st1" d="M245.6,673.2c3.2-0.5,7.5-1.2,9.4-1.5c2.8-6.4,5.2-13.1,8.2-20.7l-22.6,5C241.3,658,243.1,664.6,245.6,673.2z
			"/>
	</g>
	<g>
		<path class="st1" d="M651.6,335.5l19.4,0.9l12.7,12.7l12.6,18.2l6.1,16l-0.2,5.3l4.1,1.2c0.1-0.6,0,0,0-0.6
			c0-8.4-3.4-17.5-5.1-21.9c-0.1-0.2-0.3-0.6-0.4-0.9c-0.1-0.2-0.2-0.4-0.3-0.7c-4-8.6-19.1-30.1-24.2-32.4c-6.1-1.5-25-2.6-37-0.8
			c-6.7,1-253,58.9-254.4,59c-3.3,0.1-8.2-0.9-13.3-6.7c-6.7-7.5-12.6-22.8-9.9-38.5l0.7-4.1c0.3-1.8,0.6-3.4,0.9-5.2l-0.3,0
			c0.1-0.4,0.4-1.1,0.6-1.6c16.9-99.5,19.5-110.4,20.3-112.8c0.1-0.2,0.1-0.4,0.2-0.5c1.3-4.8,17.1-90.5,35.8-191.9h-33l-62.5,40.1
			l5.8,23.8l41.7-26.8l15.9,23.8L311,141.4l5.5,25.8l44.5-27.3l14.4,24.8l-72.3,47l8.9,19.4l41.7-26.8l16.2,23.7l-91,60.9L264.9,272
			l-4,2.5l-7.8-5.8l-1.5,1.3l32.1,48.7l16.9,5.3L312,344l5.5,21.2l8.3,7.8l7.8,14.9l18.4,13.9l19.7,3l8.4,1.3l1-4.3l39.7-12.9l4,9.9
			h3.1l-2.2-11.3l2.2-1.3l4.3,11.6l6.1-1l-4-12.2L651.6,335.5z"/>
		<path class="st1" d="M701.2,393.8l-1.1,2.2l-83,29.3l-118.9,45.1l-51.8,11.3l-0.2,4.4l45.7-8.4c5.1-0.5,21.2-7.2,30.7-11.2
			l14.7-5.7c5.2-1.5,101.2-37.3,166.3-61.6c0.8-1.2,1.4-2.5,1.8-3.9L701.2,393.8z"/>
	</g>
</g>
</svg>
