<?xml version="1.0" encoding="utf-8"?>
<!-- Generator: Adobe Illustrator 19.0.0, SVG Export Plug-In . SVG Version: 6.00 Build 0)  -->
<svg version="1.1" id="Layer_1" xmlns="http://www.w3.org/2000/svg" xmlns:xlink="http://www.w3.org/1999/xlink" x="0px" y="0px"
	 viewBox="0 0 188 35.8" style="enable-background:new 0 0 188 35.8;" xml:space="preserve">
<path d="M127.9,4v14.5c0,5-4,9-9,9c-0.2,0-0.4,0-0.6-0.1v5.3c0.2,0,0.4,0,0.6,0c7.8,0,14.2-6.4,14.2-14.2V4H127.9z"/>
<rect x="54.5" y="4" width="5.4" height="28.3"/>
<g>
	<polygon points="25.2,21.4 26.7,19.8 42.4,4.1 34.8,4.1 21.2,17.8 21.2,4 15.8,4 15.8,32.3 21.2,32.3 21.2,25.4 25.2,21.3 	"/>
	<polygon points="32.2,20.8 28.4,24.6 36.2,32.3 43.8,32.3 	"/>
</g>
<g>
	<rect x="76.5" y="4" width="5.4" height="28.3"/>
	<path d="M90.7,4c-1.2,0-2.4,0.2-3.6,0.5v5.5c1.1-0.5,2.3-0.7,3.6-0.7c5,0,9,4,9,9v14.5h5.2V18.2C104.9,10.3,98.6,4,90.7,4z"/>
</g>
<g>
	<path d="M162.7,4.5v5.4c3.6,1.1,6.3,4.5,6.3,8.5c0,4-2.7,7.4-6.3,8.5v5.4c6.6-1.3,11.5-7,11.5-13.9C174.2,11.5,169.2,5.8,162.7,4.5
		z"/>
	<path d="M157.3,27c-3.6-1.1-6.3-4.5-6.3-8.5c0-4,2.7-7.4,6.3-8.5V4.5c-6.6,1.3-11.5,7-11.5,13.9c0,6.9,5,12.7,11.5,13.9V27z"/>
</g>
</svg>
